<svg width="370" height="418" viewBox="0 0 370 418" fill="none" xmlns="http://www.w3.org/2000/svg">
<path d="M146.906 229.673C149.685 229.673 151.937 227.42 151.937 224.64C151.937 221.86 149.685 219.606 146.906 219.606C144.127 219.606 141.875 221.86 141.875 224.64C141.875 227.42 144.127 229.673 146.906 229.673Z" fill="black"/>
<path d="M52.7488 198.393C55.5275 198.393 57.7801 196.14 57.7801 193.36C57.7801 190.58 55.5275 188.326 52.7488 188.326C49.9701 188.326 47.7175 190.58 47.7175 193.36C47.7175 196.14 49.9701 198.393 52.7488 198.393Z" fill="black"/>
<path d="M84.3736 198.393C87.1523 198.393 89.4048 196.14 89.4048 193.36C89.4048 190.58 87.1523 188.326 84.3736 188.326C81.5949 188.326 79.3423 190.58 79.3423 193.36C79.3423 196.14 81.5949 198.393 84.3736 198.393Z" fill="black"/>
<path d="M131.093 198.393C133.872 198.393 136.124 196.14 136.124 193.36C136.124 190.58 133.872 188.326 131.093 188.326C128.314 188.326 126.062 190.58 126.062 193.36C126.062 196.14 128.314 198.393 131.093 198.393Z" fill="black"/>
<path d="M37.2957 182.574C40.0744 182.574 42.327 180.32 42.327 177.54C42.327 174.761 40.0744 172.507 37.2957 172.507C34.517 172.507 32.2644 174.761 32.2644 177.54C32.2644 180.32 34.517 182.574 37.2957 182.574Z" fill="black"/>
<path d="M52.7488 182.574C55.5275 182.574 57.7801 180.32 57.7801 177.54C57.7801 174.761 55.5275 172.507 52.7488 172.507C49.9701 172.507 47.7175 174.761 47.7175 177.54C47.7175 180.32 49.9701 182.574 52.7488 182.574Z" fill="black"/>
<path d="M68.5611 182.574C71.3399 182.574 73.5925 180.32 73.5925 177.54C73.5925 174.761 71.3399 172.507 68.5611 172.507C65.7824 172.507 63.5298 174.761 63.5298 177.54C63.5298 180.32 65.7824 182.574 68.5611 182.574Z" fill="black"/>
<path d="M84.3736 182.574C87.1523 182.574 89.4048 180.32 89.4048 177.54C89.4048 174.761 87.1523 172.507 84.3736 172.507C81.5949 172.507 79.3423 174.761 79.3423 177.54C79.3423 180.32 81.5949 182.574 84.3736 182.574Z" fill="black"/>
<path d="M99.8275 182.574C102.606 182.574 104.859 180.32 104.859 177.54C104.859 174.761 102.606 172.507 99.8275 172.507C97.0488 172.507 94.7961 174.761 94.7961 177.54C94.7961 180.32 97.0488 182.574 99.8275 182.574Z" fill="black"/>
<path d="M115.28 182.574C118.059 182.574 120.312 180.32 120.312 177.54C120.312 174.761 118.059 172.507 115.28 172.507C112.502 172.507 110.249 174.761 110.249 177.54C110.249 180.32 112.502 182.574 115.28 182.574Z" fill="black"/>
<path d="M131.093 182.574C133.872 182.574 136.124 180.32 136.124 177.54C136.124 174.761 133.872 172.507 131.093 172.507C128.314 172.507 126.062 174.761 126.062 177.54C126.062 180.32 128.314 182.574 131.093 182.574Z" fill="black"/>
<path d="M146.906 182.574C149.685 182.574 151.937 180.32 151.937 177.54C151.937 174.761 149.685 172.507 146.906 172.507C144.127 172.507 141.875 174.761 141.875 177.54C141.875 180.32 144.127 182.574 146.906 182.574Z" fill="black"/>
<path d="M21.4825 167.115C24.2612 167.115 26.5138 164.861 26.5138 162.081C26.5138 159.301 24.2612 157.048 21.4825 157.048C18.7038 157.048 16.4512 159.301 16.4512 162.081C16.4512 164.861 18.7038 167.115 21.4825 167.115Z" fill="black"/>
<path d="M37.2957 167.115C40.0744 167.115 42.327 164.861 42.327 162.081C42.327 159.301 40.0744 157.048 37.2957 157.048C34.517 157.048 32.2644 159.301 32.2644 162.081C32.2644 164.861 34.517 167.115 37.2957 167.115Z" fill="black"/>
<path d="M52.7488 167.115C55.5275 167.115 57.7801 164.861 57.7801 162.081C57.7801 159.301 55.5275 157.048 52.7488 157.048C49.9701 157.048 47.7175 159.301 47.7175 162.081C47.7175 164.861 49.9701 167.115 52.7488 167.115Z" fill="black"/>
<path d="M68.5611 167.115C71.3399 167.115 73.5925 164.861 73.5925 162.081C73.5925 159.301 71.3399 157.048 68.5611 157.048C65.7824 157.048 63.5298 159.301 63.5298 162.081C63.5298 164.861 65.7824 167.115 68.5611 167.115Z" fill="black"/>
<path d="M84.3736 167.115C87.1523 167.115 89.4048 164.861 89.4048 162.081C89.4048 159.301 87.1523 157.048 84.3736 157.048C81.5949 157.048 79.3423 159.301 79.3423 162.081C79.3423 164.861 81.5949 167.115 84.3736 167.115Z" fill="black"/>
<path d="M99.8275 167.115C102.606 167.115 104.859 164.861 104.859 162.081C104.859 159.301 102.606 157.048 99.8275 157.048C97.0488 157.048 94.7961 159.301 94.7961 162.081C94.7961 164.861 97.0488 167.115 99.8275 167.115Z" fill="black"/>
<path d="M115.28 167.115C118.059 167.115 120.312 164.861 120.312 162.081C120.312 159.301 118.059 157.048 115.28 157.048C112.502 157.048 110.249 159.301 110.249 162.081C110.249 164.861 112.502 167.115 115.28 167.115Z" fill="black"/>
<path d="M131.093 167.115C133.872 167.115 136.124 164.861 136.124 162.081C136.124 159.301 133.872 157.048 131.093 157.048C128.314 157.048 126.062 159.301 126.062 162.081C126.062 164.861 128.314 167.115 131.093 167.115Z" fill="black"/>
<path d="M146.906 167.115C149.685 167.115 151.937 164.861 151.937 162.081C151.937 159.301 149.685 157.048 146.906 157.048C144.127 157.048 141.875 159.301 141.875 162.081C141.875 164.861 144.127 167.115 146.906 167.115Z" fill="black"/>
<path d="M6.02938 151.295C8.80809 151.295 11.0607 149.041 11.0607 146.261C11.0607 143.481 8.80809 141.228 6.02938 141.228C3.25067 141.228 0.998047 143.481 0.998047 146.261C0.998047 149.041 3.25067 151.295 6.02938 151.295Z" fill="black"/>
<path d="M21.4825 151.295C24.2612 151.295 26.5138 149.041 26.5138 146.261C26.5138 143.481 24.2612 141.228 21.4825 141.228C18.7038 141.228 16.4512 143.481 16.4512 146.261C16.4512 149.041 18.7038 151.295 21.4825 151.295Z" fill="black"/>
<path d="M37.2957 151.295C40.0744 151.295 42.327 149.041 42.327 146.261C42.327 143.481 40.0744 141.228 37.2957 141.228C34.517 141.228 32.2644 143.481 32.2644 146.261C32.2644 149.041 34.517 151.295 37.2957 151.295Z" fill="black"/>
<path d="M52.7488 151.295C55.5275 151.295 57.7801 149.041 57.7801 146.261C57.7801 143.481 55.5275 141.228 52.7488 141.228C49.9701 141.228 47.7175 143.481 47.7175 146.261C47.7175 149.041 49.9701 151.295 52.7488 151.295Z" fill="black"/>
<path d="M68.5611 151.295C71.3399 151.295 73.5925 149.041 73.5925 146.261C73.5925 143.481 71.3399 141.228 68.5611 141.228C65.7824 141.228 63.5298 143.481 63.5298 146.261C63.5298 149.041 65.7824 151.295 68.5611 151.295Z" fill="black"/>
<path d="M84.3736 151.295C87.1523 151.295 89.4048 149.041 89.4048 146.261C89.4048 143.481 87.1523 141.228 84.3736 141.228C81.5949 141.228 79.3423 143.481 79.3423 146.261C79.3423 149.041 81.5949 151.295 84.3736 151.295Z" fill="black"/>
<path d="M99.8275 151.295C102.606 151.295 104.859 149.041 104.859 146.261C104.859 143.481 102.606 141.228 99.8275 141.228C97.0488 141.228 94.7961 143.481 94.7961 146.261C94.7961 149.041 97.0488 151.295 99.8275 151.295Z" fill="black"/>
<path d="M115.28 151.295C118.059 151.295 120.312 149.041 120.312 146.261C120.312 143.481 118.059 141.228 115.28 141.228C112.502 141.228 110.249 143.481 110.249 146.261C110.249 149.041 112.502 151.295 115.28 151.295Z" fill="black"/>
<path d="M131.093 151.295C133.872 151.295 136.124 149.041 136.124 146.261C136.124 143.481 133.872 141.228 131.093 141.228C128.314 141.228 126.062 143.481 126.062 146.261C126.062 149.041 128.314 151.295 131.093 151.295Z" fill="black"/>
<path d="M146.906 151.295C149.685 151.295 151.937 149.041 151.937 146.261C151.937 143.481 149.685 141.228 146.906 141.228C144.127 141.228 141.875 143.481 141.875 146.261C141.875 149.041 144.127 151.295 146.906 151.295Z" fill="black"/>
<path d="M6.02938 135.835C8.80809 135.835 11.0607 133.581 11.0607 130.801C11.0607 128.021 8.80809 125.768 6.02938 125.768C3.25067 125.768 0.998047 128.021 0.998047 130.801C0.998047 133.581 3.25067 135.835 6.02938 135.835Z" fill="black"/>
<path d="M21.4825 135.835C24.2612 135.835 26.5138 133.581 26.5138 130.801C26.5138 128.021 24.2612 125.768 21.4825 125.768C18.7038 125.768 16.4512 128.021 16.4512 130.801C16.4512 133.581 18.7038 135.835 21.4825 135.835Z" fill="black"/>
<path d="M37.2957 135.835C40.0744 135.835 42.327 133.581 42.327 130.801C42.327 128.021 40.0744 125.768 37.2957 125.768C34.517 125.768 32.2644 128.021 32.2644 130.801C32.2644 133.581 34.517 135.835 37.2957 135.835Z" fill="black"/>
<path d="M52.7488 135.835C55.5275 135.835 57.7801 133.581 57.7801 130.801C57.7801 128.021 55.5275 125.768 52.7488 125.768C49.9701 125.768 47.7175 128.021 47.7175 130.801C47.7175 133.581 49.9701 135.835 52.7488 135.835Z" fill="black"/>
<path d="M68.5611 135.835C71.3399 135.835 73.5925 133.581 73.5925 130.801C73.5925 128.021 71.3399 125.768 68.5611 125.768C65.7824 125.768 63.5298 128.021 63.5298 130.801C63.5298 133.581 65.7824 135.835 68.5611 135.835Z" fill="black"/>
<path d="M84.3736 135.835C87.1523 135.835 89.4048 133.581 89.4048 130.801C89.4048 128.021 87.1523 125.768 84.3736 125.768C81.5949 125.768 79.3423 128.021 79.3423 130.801C79.3423 133.581 81.5949 135.835 84.3736 135.835Z" fill="black"/>
<path d="M99.8275 135.835C102.606 135.835 104.859 133.581 104.859 130.801C104.859 128.021 102.606 125.768 99.8275 125.768C97.0488 125.768 94.7961 128.021 94.7961 130.801C94.7961 133.581 97.0488 135.835 99.8275 135.835Z" fill="black"/>
<path d="M115.28 135.835C118.059 135.835 120.312 133.581 120.312 130.801C120.312 128.021 118.059 125.768 115.28 125.768C112.502 125.768 110.249 128.021 110.249 130.801C110.249 133.581 112.502 135.835 115.28 135.835Z" fill="black"/>
<path d="M131.093 135.835C133.872 135.835 136.124 133.581 136.124 130.801C136.124 128.021 133.872 125.768 131.093 125.768C128.314 125.768 126.062 128.021 126.062 130.801C126.062 133.581 128.314 135.835 131.093 135.835Z" fill="black"/>
<path d="M146.906 135.835C149.685 135.835 151.937 133.581 151.937 130.801C151.937 128.021 149.685 125.768 146.906 125.768C144.127 125.768 141.875 128.021 141.875 130.801C141.875 133.581 144.127 135.835 146.906 135.835Z" fill="black"/>
<path d="M21.4825 120.375C24.2612 120.375 26.5138 118.122 26.5138 115.342C26.5138 112.562 24.2612 110.308 21.4825 110.308C18.7038 110.308 16.4512 112.562 16.4512 115.342C16.4512 118.122 18.7038 120.375 21.4825 120.375Z" fill="black"/>
<path d="M37.2957 120.375C40.0744 120.375 42.327 118.122 42.327 115.342C42.327 112.562 40.0744 110.308 37.2957 110.308C34.517 110.308 32.2644 112.562 32.2644 115.342C32.2644 118.122 34.517 120.375 37.2957 120.375Z" fill="black"/>
<path d="M52.7488 120.375C55.5275 120.375 57.7801 118.122 57.7801 115.342C57.7801 112.562 55.5275 110.308 52.7488 110.308C49.9701 110.308 47.7175 112.562 47.7175 115.342C47.7175 118.122 49.9701 120.375 52.7488 120.375Z" fill="black"/>
<path d="M68.5611 120.375C71.3399 120.375 73.5925 118.122 73.5925 115.342C73.5925 112.562 71.3399 110.308 68.5611 110.308C65.7824 110.308 63.5298 112.562 63.5298 115.342C63.5298 118.122 65.7824 120.375 68.5611 120.375Z" fill="black"/>
<path d="M84.3736 120.375C87.1523 120.375 89.4048 118.122 89.4048 115.342C89.4048 112.562 87.1523 110.308 84.3736 110.308C81.5949 110.308 79.3423 112.562 79.3423 115.342C79.3423 118.122 81.5949 120.375 84.3736 120.375Z" fill="black"/>
<path d="M99.8275 120.375C102.606 120.375 104.859 118.122 104.859 115.342C104.859 112.562 102.606 110.308 99.8275 110.308C97.0488 110.308 94.7961 112.562 94.7961 115.342C94.7961 118.122 97.0488 120.375 99.8275 120.375Z" fill="black"/>
<path d="M115.28 120.375C118.059 120.375 120.312 118.122 120.312 115.342C120.312 112.562 118.059 110.308 115.28 110.308C112.502 110.308 110.249 112.562 110.249 115.342C110.249 118.122 112.502 120.375 115.28 120.375Z" fill="black"/>
<path d="M131.093 120.375C133.872 120.375 136.124 118.122 136.124 115.342C136.124 112.562 133.872 110.308 131.093 110.308C128.314 110.308 126.062 112.562 126.062 115.342C126.062 118.122 128.314 120.375 131.093 120.375Z" fill="black"/>
<path d="M146.906 120.375C149.685 120.375 151.937 118.122 151.937 115.342C151.937 112.562 149.685 110.308 146.906 110.308C144.127 110.308 141.875 112.562 141.875 115.342C141.875 118.122 144.127 120.375 146.906 120.375Z" fill="black"/>
<path d="M6.02938 104.555C8.80809 104.555 11.0607 102.302 11.0607 99.522C11.0607 96.7421 8.80809 94.4885 6.02938 94.4885C3.25067 94.4885 0.998047 96.7421 0.998047 99.522C0.998047 102.302 3.25067 104.555 6.02938 104.555Z" fill="black"/>
<path d="M21.4825 104.555C24.2612 104.555 26.5138 102.302 26.5138 99.522C26.5138 96.7421 24.2612 94.4885 21.4825 94.4885C18.7038 94.4885 16.4512 96.7421 16.4512 99.522C16.4512 102.302 18.7038 104.555 21.4825 104.555Z" fill="black"/>
<path d="M37.2957 104.555C40.0744 104.555 42.327 102.302 42.327 99.522C42.327 96.7421 40.0744 94.4885 37.2957 94.4885C34.517 94.4885 32.2644 96.7421 32.2644 99.522C32.2644 102.302 34.517 104.555 37.2957 104.555Z" fill="black"/>
<path d="M52.7488 104.555C55.5275 104.555 57.7801 102.302 57.7801 99.522C57.7801 96.7421 55.5275 94.4885 52.7488 94.4885C49.9701 94.4885 47.7175 96.7421 47.7175 99.522C47.7175 102.302 49.9701 104.555 52.7488 104.555Z" fill="black"/>
<path d="M68.5611 104.555C71.3399 104.555 73.5925 102.302 73.5925 99.522C73.5925 96.7421 71.3399 94.4885 68.5611 94.4885C65.7824 94.4885 63.5298 96.7421 63.5298 99.522C63.5298 102.302 65.7824 104.555 68.5611 104.555Z" fill="black"/>
<path d="M84.3736 104.555C87.1523 104.555 89.4048 102.302 89.4048 99.522C89.4048 96.7421 87.1523 94.4885 84.3736 94.4885C81.5949 94.4885 79.3423 96.7421 79.3423 99.522C79.3423 102.302 81.5949 104.555 84.3736 104.555Z" fill="black"/>
<path d="M99.8275 104.555C102.606 104.555 104.859 102.302 104.859 99.522C104.859 96.7421 102.606 94.4885 99.8275 94.4885C97.0488 94.4885 94.7961 96.7421 94.7961 99.522C94.7961 102.302 97.0488 104.555 99.8275 104.555Z" fill="black"/>
<path d="M115.28 104.555C118.059 104.555 120.312 102.302 120.312 99.522C120.312 96.7421 118.059 94.4885 115.28 94.4885C112.502 94.4885 110.249 96.7421 110.249 99.522C110.249 102.302 112.502 104.555 115.28 104.555Z" fill="black"/>
<path d="M131.093 104.555C133.872 104.555 136.124 102.302 136.124 99.522C136.124 96.7421 133.872 94.4885 131.093 94.4885C128.314 94.4885 126.062 96.7421 126.062 99.522C126.062 102.302 128.314 104.555 131.093 104.555Z" fill="black"/>
<path d="M146.906 104.555C149.685 104.555 151.937 102.302 151.937 99.522C151.937 96.7421 149.685 94.4885 146.906 94.4885C144.127 94.4885 141.875 96.7421 141.875 99.522C141.875 102.302 144.127 104.555 146.906 104.555Z" fill="black"/>
<path d="M21.4825 88.7358C24.2612 88.7358 26.5138 86.4823 26.5138 83.7024C26.5138 80.9224 24.2612 78.6688 21.4825 78.6688C18.7038 78.6688 16.4512 80.9224 16.4512 83.7024C16.4512 86.4823 18.7038 88.7358 21.4825 88.7358Z" fill="black"/>
<path d="M37.2957 88.7358C40.0744 88.7358 42.327 86.4823 42.327 83.7024C42.327 80.9224 40.0744 78.6688 37.2957 78.6688C34.517 78.6688 32.2644 80.9224 32.2644 83.7024C32.2644 86.4823 34.517 88.7358 37.2957 88.7358Z" fill="black"/>
<path d="M52.7488 88.7358C55.5275 88.7358 57.7801 86.4823 57.7801 83.7024C57.7801 80.9224 55.5275 78.6688 52.7488 78.6688C49.9701 78.6688 47.7175 80.9224 47.7175 83.7024C47.7175 86.4823 49.9701 88.7358 52.7488 88.7358Z" fill="black"/>
<path d="M68.5611 88.7358C71.3399 88.7358 73.5925 86.4823 73.5925 83.7024C73.5925 80.9224 71.3399 78.6688 68.5611 78.6688C65.7824 78.6688 63.5298 80.9224 63.5298 83.7024C63.5298 86.4823 65.7824 88.7358 68.5611 88.7358Z" fill="black"/>
<path d="M84.3736 88.7358C87.1523 88.7358 89.4048 86.4823 89.4048 83.7024C89.4048 80.9224 87.1523 78.6688 84.3736 78.6688C81.5949 78.6688 79.3423 80.9224 79.3423 83.7024C79.3423 86.4823 81.5949 88.7358 84.3736 88.7358Z" fill="black"/>
<path d="M99.8275 88.7358C102.606 88.7358 104.859 86.4823 104.859 83.7024C104.859 80.9224 102.606 78.6688 99.8275 78.6688C97.0488 78.6688 94.7961 80.9224 94.7961 83.7024C94.7961 86.4823 97.0488 88.7358 99.8275 88.7358Z" fill="black"/>
<path d="M115.28 88.7358C118.059 88.7358 120.312 86.4823 120.312 83.7024C120.312 80.9224 118.059 78.6688 115.28 78.6688C112.502 78.6688 110.249 80.9224 110.249 83.7024C110.249 86.4823 112.502 88.7358 115.28 88.7358Z" fill="black"/>
<path d="M131.093 88.7358C133.872 88.7358 136.124 86.4823 136.124 83.7024C136.124 80.9224 133.872 78.6688 131.093 78.6688C128.314 78.6688 126.062 80.9224 126.062 83.7024C126.062 86.4823 128.314 88.7358 131.093 88.7358Z" fill="black"/>
<path d="M146.906 88.7358C149.685 88.7358 151.937 86.4823 151.937 83.7024C151.937 80.9224 149.685 78.6688 146.906 78.6688C144.127 78.6688 141.875 80.9224 141.875 83.7024C141.875 86.4823 144.127 88.7358 146.906 88.7358Z" fill="black"/>
<path d="M37.2957 73.2755C40.0744 73.2755 42.327 71.0219 42.327 68.242C42.327 65.462 40.0744 63.2085 37.2957 63.2085C34.517 63.2085 32.2644 65.462 32.2644 68.242C32.2644 71.0219 34.517 73.2755 37.2957 73.2755Z" fill="black"/>
<path d="M53.1083 73.2755C55.887 73.2755 58.1396 71.0219 58.1396 68.242C58.1396 65.462 55.887 63.2085 53.1083 63.2085C50.3296 63.2085 48.0769 65.462 48.0769 68.242C48.0769 71.0219 50.3296 73.2755 53.1083 73.2755Z" fill="black"/>
<path d="M68.5611 73.2755C71.3399 73.2755 73.5925 71.0219 73.5925 68.242C73.5925 65.462 71.3399 63.2085 68.5611 63.2085C65.7824 63.2085 63.5298 65.462 63.5298 68.242C63.5298 71.0219 65.7824 73.2755 68.5611 73.2755Z" fill="black"/>
<path d="M84.3736 73.2755C87.1523 73.2755 89.4048 71.0219 89.4048 68.242C89.4048 65.462 87.1523 63.2085 84.3736 63.2085C81.5949 63.2085 79.3423 65.462 79.3423 68.242C79.3423 71.0219 81.5949 73.2755 84.3736 73.2755Z" fill="black"/>
<path d="M99.8275 73.2755C102.606 73.2755 104.859 71.0219 104.859 68.242C104.859 65.462 102.606 63.2085 99.8275 63.2085C97.0488 63.2085 94.7961 65.462 94.7961 68.242C94.7961 71.0219 97.0488 73.2755 99.8275 73.2755Z" fill="black"/>
<path d="M115.28 73.2755C118.059 73.2755 120.312 71.0219 120.312 68.242C120.312 65.462 118.059 63.2085 115.28 63.2085C112.502 63.2085 110.249 65.462 110.249 68.242C110.249 71.0219 112.502 73.2755 115.28 73.2755Z" fill="black"/>
<path d="M131.093 73.2755C133.872 73.2755 136.124 71.0219 136.124 68.242C136.124 65.462 133.872 63.2085 131.093 63.2085C128.314 63.2085 126.062 65.462 126.062 68.242C126.062 71.0219 128.314 73.2755 131.093 73.2755Z" fill="black"/>
<path d="M146.906 73.2755C149.685 73.2755 151.937 71.0219 151.937 68.242C151.937 65.462 149.685 63.2085 146.906 63.2085C144.127 63.2085 141.875 65.462 141.875 68.242C141.875 71.0219 144.127 73.2755 146.906 73.2755Z" fill="black"/>
<path d="M53.1083 57.4558C55.887 57.4558 58.1396 55.2023 58.1396 52.4225C58.1396 49.6426 55.887 47.3891 53.1083 47.3891C50.3296 47.3891 48.0769 49.6426 48.0769 52.4225C48.0769 55.2023 50.3296 57.4558 53.1083 57.4558Z" fill="black"/>
<path d="M68.5611 57.4558C71.3399 57.4558 73.5925 55.2023 73.5925 52.4225C73.5925 49.6426 71.3399 47.3891 68.5611 47.3891C65.7824 47.3891 63.5298 49.6426 63.5298 52.4225C63.5298 55.2023 65.7824 57.4558 68.5611 57.4558Z" fill="black"/>
<path d="M84.3736 57.4558C87.1523 57.4558 89.4048 55.2023 89.4048 52.4225C89.4048 49.6426 87.1523 47.3891 84.3736 47.3891C81.5949 47.3891 79.3423 49.6426 79.3423 52.4225C79.3423 55.2023 81.5949 57.4558 84.3736 57.4558Z" fill="black"/>
<path d="M99.8275 57.4558C102.606 57.4558 104.859 55.2023 104.859 52.4225C104.859 49.6426 102.606 47.3891 99.8275 47.3891C97.0488 47.3891 94.7961 49.6426 94.7961 52.4225C94.7961 55.2023 97.0488 57.4558 99.8275 57.4558Z" fill="black"/>
<path d="M115.28 57.4558C118.059 57.4558 120.312 55.2023 120.312 52.4225C120.312 49.6426 118.059 47.3891 115.28 47.3891C112.502 47.3891 110.249 49.6426 110.249 52.4225C110.249 55.2023 112.502 57.4558 115.28 57.4558Z" fill="black"/>
<path d="M131.093 57.4558C133.872 57.4558 136.124 55.2023 136.124 52.4225C136.124 49.6426 133.872 47.3891 131.093 47.3891C128.314 47.3891 126.062 49.6426 126.062 52.4225C126.062 55.2023 128.314 57.4558 131.093 57.4558Z" fill="black"/>
<path d="M146.906 57.4558C149.685 57.4558 151.937 55.2023 151.937 52.4225C151.937 49.6426 149.685 47.3891 146.906 47.3891C144.127 47.3891 141.875 49.6426 141.875 52.4225C141.875 55.2023 144.127 57.4558 146.906 57.4558Z" fill="black"/>
<path d="M53.1083 41.9962C55.887 41.9962 58.1396 39.7426 58.1396 36.9627C58.1396 34.1828 55.887 31.9292 53.1083 31.9292C50.3296 31.9292 48.0769 34.1828 48.0769 36.9627C48.0769 39.7426 50.3296 41.9962 53.1083 41.9962Z" fill="black"/>
<path d="M68.5611 41.9962C71.3399 41.9962 73.5925 39.7426 73.5925 36.9627C73.5925 34.1828 71.3399 31.9292 68.5611 31.9292C65.7824 31.9292 63.5298 34.1828 63.5298 36.9627C63.5298 39.7426 65.7824 41.9962 68.5611 41.9962Z" fill="black"/>
<path d="M84.3736 41.9962C87.1523 41.9962 89.4048 39.7426 89.4048 36.9627C89.4048 34.1828 87.1523 31.9292 84.3736 31.9292C81.5949 31.9292 79.3423 34.1828 79.3423 36.9627C79.3423 39.7426 81.5949 41.9962 84.3736 41.9962Z" fill="black"/>
<path d="M99.8275 41.9962C102.606 41.9962 104.859 39.7426 104.859 36.9627C104.859 34.1828 102.606 31.9292 99.8275 31.9292C97.0488 31.9292 94.7961 34.1828 94.7961 36.9627C94.7961 39.7426 97.0488 41.9962 99.8275 41.9962Z" fill="black"/>
<path d="M115.28 41.9962C118.059 41.9962 120.312 39.7426 120.312 36.9627C120.312 34.1828 118.059 31.9292 115.28 31.9292C112.502 31.9292 110.249 34.1828 110.249 36.9627C110.249 39.7426 112.502 41.9962 115.28 41.9962Z" fill="black"/>
<path d="M131.093 41.9962C133.872 41.9962 136.124 39.7426 136.124 36.9627C136.124 34.1828 133.872 31.9292 131.093 31.9292C128.314 31.9292 126.062 34.1828 126.062 36.9627C126.062 39.7426 128.314 41.9962 131.093 41.9962Z" fill="black"/>
<path d="M146.906 41.9962C149.685 41.9962 151.937 39.7426 151.937 36.9627C151.937 34.1828 149.685 31.9292 146.906 31.9292C144.127 31.9292 141.875 34.1828 141.875 36.9627C141.875 39.7426 144.127 41.9962 146.906 41.9962Z" fill="black"/>
<path d="M68.5611 26.1769C71.3399 26.1769 73.5925 23.9233 73.5925 21.1433C73.5925 18.3634 71.3399 16.1099 68.5611 16.1099C65.7824 16.1099 63.5298 18.3634 63.5298 21.1433C63.5298 23.9233 65.7824 26.1769 68.5611 26.1769Z" fill="black"/>
<path d="M84.3736 26.1769C87.1523 26.1769 89.4048 23.9233 89.4048 21.1433C89.4048 18.3634 87.1523 16.1099 84.3736 16.1099C81.5949 16.1099 79.3423 18.3634 79.3423 21.1433C79.3423 23.9233 81.5949 26.1769 84.3736 26.1769Z" fill="black"/>
<path d="M99.8275 26.1769C102.606 26.1769 104.859 23.9233 104.859 21.1433C104.859 18.3634 102.606 16.1099 99.8275 16.1099C97.0488 16.1099 94.7961 18.3634 94.7961 21.1433C94.7961 23.9233 97.0488 26.1769 99.8275 26.1769Z" fill="black"/>
<path d="M115.28 26.1769C118.059 26.1769 120.312 23.9233 120.312 21.1433C120.312 18.3634 118.059 16.1099 115.28 16.1099C112.502 16.1099 110.249 18.3634 110.249 21.1433C110.249 23.9233 112.502 26.1769 115.28 26.1769Z" fill="black"/>
<path d="M131.093 26.1769C133.872 26.1769 136.124 23.9233 136.124 21.1433C136.124 18.3634 133.872 16.1099 131.093 16.1099C128.314 16.1099 126.062 18.3634 126.062 21.1433C126.062 23.9233 128.314 26.1769 131.093 26.1769Z" fill="black"/>
<path d="M146.906 26.1769C149.685 26.1769 151.937 23.9233 151.937 21.1433C151.937 18.3634 149.685 16.1099 146.906 16.1099C144.127 16.1099 141.875 18.3634 141.875 21.1433C141.875 23.9233 144.127 26.1769 146.906 26.1769Z" fill="black"/>
<path d="M131.093 10.7167C133.872 10.7167 136.124 8.46312 136.124 5.6832C136.124 2.90327 133.872 0.649719 131.093 0.649719C128.314 0.649719 126.062 2.90327 126.062 5.6832C126.062 8.46312 128.314 10.7167 131.093 10.7167Z" fill="black"/>
<path d="M146.906 10.7167C149.685 10.7167 151.937 8.46312 151.937 5.6832C151.937 2.90327 149.685 0.649719 146.906 0.649719C144.127 0.649719 141.875 2.90327 141.875 5.6832C141.875 8.46312 144.127 10.7167 146.906 10.7167Z" fill="black"/>
<path d="M207.641 417.35C210.42 417.35 212.673 415.097 212.673 412.317C212.673 409.537 210.42 407.283 207.641 407.283C204.863 407.283 202.61 409.537 202.61 412.317C202.61 415.097 204.863 417.35 207.641 417.35Z" fill="black"/>
<path d="M238.907 417.35C241.685 417.35 243.938 415.097 243.938 412.317C243.938 409.537 241.685 407.283 238.907 407.283C236.128 407.283 233.875 409.537 233.875 412.317C233.875 415.097 236.128 417.35 238.907 417.35Z" fill="black"/>
<path d="M207.641 401.53C210.42 401.53 212.673 399.277 212.673 396.497C212.673 393.717 210.42 391.463 207.641 391.463C204.863 391.463 202.61 393.717 202.61 396.497C202.61 399.277 204.863 401.53 207.641 401.53Z" fill="black"/>
<path d="M223.094 401.53C225.873 401.53 228.125 399.277 228.125 396.497C228.125 393.717 225.873 391.463 223.094 391.463C220.315 391.463 218.063 393.717 218.063 396.497C218.063 399.277 220.315 401.53 223.094 401.53Z" fill="black"/>
<path d="M238.907 401.53C241.685 401.53 243.938 399.277 243.938 396.497C243.938 393.717 241.685 391.463 238.907 391.463C236.128 391.463 233.875 393.717 233.875 396.497C233.875 399.277 236.128 401.53 238.907 401.53Z" fill="black"/>
<path d="M254.72 401.53C257.498 401.53 259.751 399.277 259.751 396.497C259.751 393.717 257.498 391.463 254.72 391.463C251.941 391.463 249.688 393.717 249.688 396.497C249.688 399.277 251.941 401.53 254.72 401.53Z" fill="black"/>
<path d="M207.641 386.07C210.42 386.07 212.673 383.817 212.673 381.037C212.673 378.257 210.42 376.004 207.641 376.004C204.863 376.004 202.61 378.257 202.61 381.037C202.61 383.817 204.863 386.07 207.641 386.07Z" fill="black"/>
<path d="M223.094 386.07C225.873 386.07 228.125 383.817 228.125 381.037C228.125 378.257 225.873 376.004 223.094 376.004C220.315 376.004 218.063 378.257 218.063 381.037C218.063 383.817 220.315 386.07 223.094 386.07Z" fill="black"/>
<path d="M238.907 386.07C241.685 386.07 243.938 383.817 243.938 381.037C243.938 378.257 241.685 376.004 238.907 376.004C236.128 376.004 233.875 378.257 233.875 381.037C233.875 383.817 236.128 386.07 238.907 386.07Z" fill="black"/>
<path d="M254.36 386.07C257.139 386.07 259.392 383.817 259.392 381.037C259.392 378.257 257.139 376.004 254.36 376.004C251.582 376.004 249.329 378.257 249.329 381.037C249.329 383.817 251.582 386.07 254.36 386.07Z" fill="black"/>
<path d="M270.173 386.07C272.952 386.07 275.204 383.817 275.204 381.037C275.204 378.257 272.952 376.004 270.173 376.004C267.394 376.004 265.142 378.257 265.142 381.037C265.142 383.817 267.394 386.07 270.173 386.07Z" fill="black"/>
<path d="M191.829 370.611C194.607 370.611 196.86 368.357 196.86 365.577C196.86 362.797 194.607 360.544 191.829 360.544C189.05 360.544 186.797 362.797 186.797 365.577C186.797 368.357 189.05 370.611 191.829 370.611Z" fill="black"/>
<path d="M207.641 370.611C210.42 370.611 212.673 368.357 212.673 365.577C212.673 362.797 210.42 360.544 207.641 360.544C204.863 360.544 202.61 362.797 202.61 365.577C202.61 368.357 204.863 370.611 207.641 370.611Z" fill="black"/>
<path d="M223.094 370.611C225.873 370.611 228.125 368.357 228.125 365.577C228.125 362.797 225.873 360.544 223.094 360.544C220.315 360.544 218.063 362.797 218.063 365.577C218.063 368.357 220.315 370.611 223.094 370.611Z" fill="black"/>
<path d="M238.907 370.611C241.685 370.611 243.938 368.357 243.938 365.577C243.938 362.797 241.685 360.544 238.907 360.544C236.128 360.544 233.875 362.797 233.875 365.577C233.875 368.357 236.128 370.611 238.907 370.611Z" fill="black"/>
<path d="M254.36 370.611C257.139 370.611 259.392 368.357 259.392 365.577C259.392 362.797 257.139 360.544 254.36 360.544C251.582 360.544 249.329 362.797 249.329 365.577C249.329 368.357 251.582 370.611 254.36 370.611Z" fill="black"/>
<path d="M270.173 370.611C272.952 370.611 275.204 368.357 275.204 365.577C275.204 362.797 272.952 360.544 270.173 360.544C267.394 360.544 265.142 362.797 265.142 365.577C265.142 368.357 267.394 370.611 270.173 370.611Z" fill="black"/>
<path d="M191.829 354.791C194.607 354.791 196.86 352.538 196.86 349.758C196.86 346.978 194.607 344.724 191.829 344.724C189.05 344.724 186.797 346.978 186.797 349.758C186.797 352.538 189.05 354.791 191.829 354.791Z" fill="black"/>
<path d="M207.641 354.791C210.42 354.791 212.673 352.538 212.673 349.758C212.673 346.978 210.42 344.724 207.641 344.724C204.863 344.724 202.61 346.978 202.61 349.758C202.61 352.538 204.863 354.791 207.641 354.791Z" fill="black"/>
<path d="M223.094 354.791C225.873 354.791 228.125 352.538 228.125 349.758C228.125 346.978 225.873 344.724 223.094 344.724C220.315 344.724 218.063 346.978 218.063 349.758C218.063 352.538 220.315 354.791 223.094 354.791Z" fill="black"/>
<path d="M238.907 354.791C241.685 354.791 243.938 352.538 243.938 349.758C243.938 346.978 241.685 344.724 238.907 344.724C236.128 344.724 233.875 346.978 233.875 349.758C233.875 352.538 236.128 354.791 238.907 354.791Z" fill="black"/>
<path d="M254.36 354.791C257.139 354.791 259.392 352.538 259.392 349.758C259.392 346.978 257.139 344.724 254.36 344.724C251.582 344.724 249.329 346.978 249.329 349.758C249.329 352.538 251.582 354.791 254.36 354.791Z" fill="black"/>
<path d="M270.173 354.791C272.952 354.791 275.204 352.538 275.204 349.758C275.204 346.978 272.952 344.724 270.173 344.724C267.394 344.724 265.142 346.978 265.142 349.758C265.142 352.538 267.394 354.791 270.173 354.791Z" fill="black"/>
<path d="M285.625 354.791C288.404 354.791 290.657 352.538 290.657 349.758C290.657 346.978 288.404 344.724 285.625 344.724C282.847 344.724 280.594 346.978 280.594 349.758C280.594 352.538 282.847 354.791 285.625 354.791Z" fill="black"/>
<path d="M348.158 354.791C350.937 354.791 353.189 352.538 353.189 349.758C353.189 346.978 350.937 344.724 348.158 344.724C345.379 344.724 343.127 346.978 343.127 349.758C343.127 352.538 345.379 354.791 348.158 354.791Z" fill="black"/>
<path d="M176.375 339.331C179.154 339.331 181.406 337.077 181.406 334.297C181.406 331.517 179.154 329.264 176.375 329.264C173.596 329.264 171.344 331.517 171.344 334.297C171.344 337.077 173.596 339.331 176.375 339.331Z" fill="black"/>
<path d="M191.829 339.331C194.607 339.331 196.86 337.077 196.86 334.297C196.86 331.517 194.607 329.264 191.829 329.264C189.05 329.264 186.797 331.517 186.797 334.297C186.797 337.077 189.05 339.331 191.829 339.331Z" fill="black"/>
<path d="M207.641 339.331C210.42 339.331 212.673 337.077 212.673 334.297C212.673 331.517 210.42 329.264 207.641 329.264C204.863 329.264 202.61 331.517 202.61 334.297C202.61 337.077 204.863 339.331 207.641 339.331Z" fill="black"/>
<path d="M223.094 339.331C225.873 339.331 228.125 337.077 228.125 334.297C228.125 331.517 225.873 329.264 223.094 329.264C220.315 329.264 218.063 331.517 218.063 334.297C218.063 337.077 220.315 339.331 223.094 339.331Z" fill="black"/>
<path d="M238.907 339.331C241.685 339.331 243.938 337.077 243.938 334.297C243.938 331.517 241.685 329.264 238.907 329.264C236.128 329.264 233.875 331.517 233.875 334.297C233.875 337.077 236.128 339.331 238.907 339.331Z" fill="black"/>
<path d="M254.36 339.331C257.139 339.331 259.392 337.077 259.392 334.297C259.392 331.517 257.139 329.264 254.36 329.264C251.582 329.264 249.329 331.517 249.329 334.297C249.329 337.077 251.582 339.331 254.36 339.331Z" fill="black"/>
<path d="M270.173 339.331C272.952 339.331 275.204 337.077 275.204 334.297C275.204 331.517 272.952 329.264 270.173 329.264C267.394 329.264 265.142 331.517 265.142 334.297C265.142 337.077 267.394 339.331 270.173 339.331Z" fill="black"/>
<path d="M285.625 339.331C288.404 339.331 290.657 337.077 290.657 334.297C290.657 331.517 288.404 329.264 285.625 329.264C282.847 329.264 280.594 331.517 280.594 334.297C280.594 337.077 282.847 339.331 285.625 339.331Z" fill="black"/>
<path d="M348.158 339.331C350.937 339.331 353.189 337.077 353.189 334.297C353.189 331.517 350.937 329.264 348.158 329.264C345.379 329.264 343.127 331.517 343.127 334.297C343.127 337.077 345.379 339.331 348.158 339.331Z" fill="black"/>
<path d="M176.375 323.512C179.154 323.512 181.406 321.258 181.406 318.478C181.406 315.698 179.154 313.445 176.375 313.445C173.596 313.445 171.344 315.698 171.344 318.478C171.344 321.258 173.596 323.512 176.375 323.512Z" fill="black"/>
<path d="M192.187 323.512C194.966 323.512 197.218 321.258 197.218 318.478C197.218 315.698 194.966 313.445 192.187 313.445C189.408 313.445 187.156 315.698 187.156 318.478C187.156 321.258 189.408 323.512 192.187 323.512Z" fill="black"/>
<path d="M207.641 323.512C210.42 323.512 212.673 321.258 212.673 318.478C212.673 315.698 210.42 313.445 207.641 313.445C204.863 313.445 202.61 315.698 202.61 318.478C202.61 321.258 204.863 323.512 207.641 323.512Z" fill="black"/>
<path d="M223.094 323.512C225.873 323.512 228.125 321.258 228.125 318.478C228.125 315.698 225.873 313.445 223.094 313.445C220.315 313.445 218.063 315.698 218.063 318.478C218.063 321.258 220.315 323.512 223.094 323.512Z" fill="black"/>
<path d="M238.907 323.512C241.685 323.512 243.938 321.258 243.938 318.478C243.938 315.698 241.685 313.445 238.907 313.445C236.128 313.445 233.875 315.698 233.875 318.478C233.875 321.258 236.128 323.512 238.907 323.512Z" fill="black"/>
<path d="M254.72 323.512C257.498 323.512 259.751 321.258 259.751 318.478C259.751 315.698 257.498 313.445 254.72 313.445C251.941 313.445 249.688 315.698 249.688 318.478C249.688 321.258 251.941 323.512 254.72 323.512Z" fill="black"/>
<path d="M270.173 323.512C272.952 323.512 275.204 321.258 275.204 318.478C275.204 315.698 272.952 313.445 270.173 313.445C267.394 313.445 265.142 315.698 265.142 318.478C265.142 321.258 267.394 323.512 270.173 323.512Z" fill="black"/>
<path d="M285.625 323.512C288.404 323.512 290.657 321.258 290.657 318.478C290.657 315.698 288.404 313.445 285.625 313.445C282.847 313.445 280.594 315.698 280.594 318.478C280.594 321.258 282.847 323.512 285.625 323.512Z" fill="black"/>
<path d="M348.158 323.512C350.937 323.512 353.189 321.258 353.189 318.478C353.189 315.698 350.937 313.445 348.158 313.445C345.379 313.445 343.127 315.698 343.127 318.478C343.127 321.258 345.379 323.512 348.158 323.512Z" fill="black"/>
<path d="M363.971 323.512C366.749 323.512 369.002 321.258 369.002 318.478C369.002 315.698 366.749 313.445 363.971 313.445C361.192 313.445 358.939 315.698 358.939 318.478C358.939 321.258 361.192 323.512 363.971 323.512Z" fill="black"/>
<path d="M160.562 308.052C163.341 308.052 165.593 305.799 165.593 303.019C165.593 300.239 163.341 297.985 160.562 297.985C157.784 297.985 155.531 300.239 155.531 303.019C155.531 305.799 157.784 308.052 160.562 308.052Z" fill="black"/>
<path d="M176.375 308.052C179.154 308.052 181.406 305.799 181.406 303.019C181.406 300.239 179.154 297.985 176.375 297.985C173.596 297.985 171.344 300.239 171.344 303.019C171.344 305.799 173.596 308.052 176.375 308.052Z" fill="black"/>
<path d="M192.187 308.052C194.966 308.052 197.218 305.799 197.218 303.019C197.218 300.239 194.966 297.985 192.187 297.985C189.408 297.985 187.156 300.239 187.156 303.019C187.156 305.799 189.408 308.052 192.187 308.052Z" fill="black"/>
<path d="M207.641 308.052C210.42 308.052 212.673 305.799 212.673 303.019C212.673 300.239 210.42 297.985 207.641 297.985C204.863 297.985 202.61 300.239 202.61 303.019C202.61 305.799 204.863 308.052 207.641 308.052Z" fill="black"/>
<path d="M223.094 308.052C225.873 308.052 228.125 305.799 228.125 303.019C228.125 300.239 225.873 297.985 223.094 297.985C220.315 297.985 218.063 300.239 218.063 303.019C218.063 305.799 220.315 308.052 223.094 308.052Z" fill="black"/>
<path d="M238.907 308.052C241.685 308.052 243.938 305.799 243.938 303.019C243.938 300.239 241.685 297.985 238.907 297.985C236.128 297.985 233.875 300.239 233.875 303.019C233.875 305.799 236.128 308.052 238.907 308.052Z" fill="black"/>
<path d="M254.72 308.052C257.498 308.052 259.751 305.799 259.751 303.019C259.751 300.239 257.498 297.985 254.72 297.985C251.941 297.985 249.688 300.239 249.688 303.019C249.688 305.799 251.941 308.052 254.72 308.052Z" fill="black"/>
<path d="M270.173 308.052C272.952 308.052 275.204 305.799 275.204 303.019C275.204 300.239 272.952 297.985 270.173 297.985C267.394 297.985 265.142 300.239 265.142 303.019C265.142 305.799 267.394 308.052 270.173 308.052Z" fill="black"/>
<path d="M285.625 308.052C288.404 308.052 290.657 305.799 290.657 303.019C290.657 300.239 288.404 297.985 285.625 297.985C282.847 297.985 280.594 300.239 280.594 303.019C280.594 305.799 282.847 308.052 285.625 308.052Z" fill="black"/>
<path d="M301.439 308.052C304.218 308.052 306.47 305.799 306.47 303.019C306.47 300.239 304.218 297.985 301.439 297.985C298.66 297.985 296.408 300.239 296.408 303.019C296.408 305.799 298.66 308.052 301.439 308.052Z" fill="black"/>
<path d="M317.251 308.052C320.03 308.052 322.282 305.799 322.282 303.019C322.282 300.239 320.03 297.985 317.251 297.985C314.472 297.985 312.22 300.239 312.22 303.019C312.22 305.799 314.472 308.052 317.251 308.052Z" fill="black"/>
<path d="M363.971 308.052C366.749 308.052 369.002 305.799 369.002 303.019C369.002 300.239 366.749 297.985 363.971 297.985C361.192 297.985 358.939 300.239 358.939 303.019C358.939 305.799 361.192 308.052 363.971 308.052Z" fill="black"/>
<path d="M176.375 292.232C179.154 292.232 181.406 289.979 181.406 287.199C181.406 284.419 179.154 282.165 176.375 282.165C173.596 282.165 171.344 284.419 171.344 287.199C171.344 289.979 173.596 292.232 176.375 292.232Z" fill="black"/>
<path d="M192.187 292.232C194.966 292.232 197.218 289.979 197.218 287.199C197.218 284.419 194.966 282.165 192.187 282.165C189.408 282.165 187.156 284.419 187.156 287.199C187.156 289.979 189.408 292.232 192.187 292.232Z" fill="black"/>
<path d="M207.641 292.232C210.42 292.232 212.673 289.979 212.673 287.199C212.673 284.419 210.42 282.165 207.641 282.165C204.863 282.165 202.61 284.419 202.61 287.199C202.61 289.979 204.863 292.232 207.641 292.232Z" fill="black"/>
<path d="M223.094 292.232C225.873 292.232 228.125 289.979 228.125 287.199C228.125 284.419 225.873 282.165 223.094 282.165C220.315 282.165 218.063 284.419 218.063 287.199C218.063 289.979 220.315 292.232 223.094 292.232Z" fill="black"/>
<path d="M238.907 292.232C241.685 292.232 243.938 289.979 243.938 287.199C243.938 284.419 241.685 282.165 238.907 282.165C236.128 282.165 233.875 284.419 233.875 287.199C233.875 289.979 236.128 292.232 238.907 292.232Z" fill="black"/>
<path d="M254.72 292.232C257.498 292.232 259.751 289.979 259.751 287.199C259.751 284.419 257.498 282.165 254.72 282.165C251.941 282.165 249.688 284.419 249.688 287.199C249.688 289.979 251.941 292.232 254.72 292.232Z" fill="black"/>
<path d="M270.173 292.232C272.952 292.232 275.204 289.979 275.204 287.199C275.204 284.419 272.952 282.165 270.173 282.165C267.394 282.165 265.142 284.419 265.142 287.199C265.142 289.979 267.394 292.232 270.173 292.232Z" fill="black"/>
<path d="M285.625 292.232C288.404 292.232 290.657 289.979 290.657 287.199C290.657 284.419 288.404 282.165 285.625 282.165C282.847 282.165 280.594 284.419 280.594 287.199C280.594 289.979 282.847 292.232 285.625 292.232Z" fill="black"/>
<path d="M301.439 292.232C304.218 292.232 306.47 289.979 306.47 287.199C306.47 284.419 304.218 282.165 301.439 282.165C298.66 282.165 296.408 284.419 296.408 287.199C296.408 289.979 298.66 292.232 301.439 292.232Z" fill="black"/>
<path d="M317.251 292.232C320.03 292.232 322.282 289.979 322.282 287.199C322.282 284.419 320.03 282.165 317.251 282.165C314.472 282.165 312.22 284.419 312.22 287.199C312.22 289.979 314.472 292.232 317.251 292.232Z" fill="black"/>
<path d="M363.971 292.232C366.749 292.232 369.002 289.979 369.002 287.199C369.002 284.419 366.749 282.165 363.971 282.165C361.192 282.165 358.939 284.419 358.939 287.199C358.939 289.979 361.192 292.232 363.971 292.232Z" fill="black"/>
<path d="M176.375 276.772C179.154 276.772 181.406 274.519 181.406 271.739C181.406 268.959 179.154 266.705 176.375 266.705C173.596 266.705 171.344 268.959 171.344 271.739C171.344 274.519 173.596 276.772 176.375 276.772Z" fill="black"/>
<path d="M192.187 276.772C194.966 276.772 197.218 274.519 197.218 271.739C197.218 268.959 194.966 266.705 192.187 266.705C189.408 266.705 187.156 268.959 187.156 271.739C187.156 274.519 189.408 276.772 192.187 276.772Z" fill="black"/>
<path d="M207.641 276.772C210.42 276.772 212.673 274.519 212.673 271.739C212.673 268.959 210.42 266.705 207.641 266.705C204.863 266.705 202.61 268.959 202.61 271.739C202.61 274.519 204.863 276.772 207.641 276.772Z" fill="black"/>
<path d="M223.094 276.772C225.873 276.772 228.125 274.519 228.125 271.739C228.125 268.959 225.873 266.705 223.094 266.705C220.315 266.705 218.063 268.959 218.063 271.739C218.063 274.519 220.315 276.772 223.094 276.772Z" fill="black"/>
<path d="M238.907 276.772C241.685 276.772 243.938 274.519 243.938 271.739C243.938 268.959 241.685 266.705 238.907 266.705C236.128 266.705 233.875 268.959 233.875 271.739C233.875 274.519 236.128 276.772 238.907 276.772Z" fill="black"/>
<path d="M254.72 276.772C257.498 276.772 259.751 274.519 259.751 271.739C259.751 268.959 257.498 266.705 254.72 266.705C251.941 266.705 249.688 268.959 249.688 271.739C249.688 274.519 251.941 276.772 254.72 276.772Z" fill="black"/>
<path d="M270.173 276.772C272.952 276.772 275.204 274.519 275.204 271.739C275.204 268.959 272.952 266.705 270.173 266.705C267.394 266.705 265.142 268.959 265.142 271.739C265.142 274.519 267.394 276.772 270.173 276.772Z" fill="black"/>
<path d="M285.625 276.772C288.404 276.772 290.657 274.519 290.657 271.739C290.657 268.959 288.404 266.705 285.625 266.705C282.847 266.705 280.594 268.959 280.594 271.739C280.594 274.519 282.847 276.772 285.625 276.772Z" fill="black"/>
<path d="M301.439 276.772C304.218 276.772 306.47 274.519 306.47 271.739C306.47 268.959 304.218 266.705 301.439 266.705C298.66 266.705 296.408 268.959 296.408 271.739C296.408 274.519 298.66 276.772 301.439 276.772Z" fill="black"/>
<path d="M317.251 276.772C320.03 276.772 322.282 274.519 322.282 271.739C322.282 268.959 320.03 266.705 317.251 266.705C314.472 266.705 312.22 268.959 312.22 271.739C312.22 274.519 314.472 276.772 317.251 276.772Z" fill="black"/>
<path d="M176.375 260.952C179.154 260.952 181.406 258.699 181.406 255.919C181.406 253.139 179.154 250.885 176.375 250.885C173.596 250.885 171.344 253.139 171.344 255.919C171.344 258.699 173.596 260.952 176.375 260.952Z" fill="black"/>
<path d="M192.187 260.952C194.966 260.952 197.218 258.699 197.218 255.919C197.218 253.139 194.966 250.885 192.187 250.885C189.408 250.885 187.156 253.139 187.156 255.919C187.156 258.699 189.408 260.952 192.187 260.952Z" fill="black"/>
<path d="M207.641 260.952C210.42 260.952 212.673 258.699 212.673 255.919C212.673 253.139 210.42 250.885 207.641 250.885C204.863 250.885 202.61 253.139 202.61 255.919C202.61 258.699 204.863 260.952 207.641 260.952Z" fill="black"/>
<path d="M223.094 260.952C225.873 260.952 228.125 258.699 228.125 255.919C228.125 253.139 225.873 250.885 223.094 250.885C220.315 250.885 218.063 253.139 218.063 255.919C218.063 258.699 220.315 260.952 223.094 260.952Z" fill="black"/>
<path d="M238.907 260.952C241.685 260.952 243.938 258.699 243.938 255.919C243.938 253.139 241.685 250.885 238.907 250.885C236.128 250.885 233.875 253.139 233.875 255.919C233.875 258.699 236.128 260.952 238.907 260.952Z" fill="black"/>
<path d="M254.72 260.952C257.498 260.952 259.751 258.699 259.751 255.919C259.751 253.139 257.498 250.885 254.72 250.885C251.941 250.885 249.688 253.139 249.688 255.919C249.688 258.699 251.941 260.952 254.72 260.952Z" fill="black"/>
<path d="M270.173 260.952C272.952 260.952 275.204 258.699 275.204 255.919C275.204 253.139 272.952 250.885 270.173 250.885C267.394 250.885 265.142 253.139 265.142 255.919C265.142 258.699 267.394 260.952 270.173 260.952Z" fill="black"/>
<path d="M285.985 260.952C288.764 260.952 291.016 258.699 291.016 255.919C291.016 253.139 288.764 250.885 285.985 250.885C283.206 250.885 280.954 253.139 280.954 255.919C280.954 258.699 283.206 260.952 285.985 260.952Z" fill="black"/>
<path d="M301.439 260.952C304.218 260.952 306.47 258.699 306.47 255.919C306.47 253.139 304.218 250.885 301.439 250.885C298.66 250.885 296.408 253.139 296.408 255.919C296.408 258.699 298.66 260.952 301.439 260.952Z" fill="black"/>
<path d="M160.562 245.493C163.341 245.493 165.593 243.239 165.593 240.46C165.593 237.68 163.341 235.426 160.562 235.426C157.784 235.426 155.531 237.68 155.531 240.46C155.531 243.239 157.784 245.493 160.562 245.493Z" fill="black"/>
<path d="M176.375 245.493C179.154 245.493 181.406 243.239 181.406 240.46C181.406 237.68 179.154 235.426 176.375 235.426C173.596 235.426 171.344 237.68 171.344 240.46C171.344 243.239 173.596 245.493 176.375 245.493Z" fill="black"/>
<path d="M192.187 245.493C194.966 245.493 197.218 243.239 197.218 240.46C197.218 237.68 194.966 235.426 192.187 235.426C189.408 235.426 187.156 237.68 187.156 240.46C187.156 243.239 189.408 245.493 192.187 245.493Z" fill="black"/>
<path d="M207.641 245.493C210.42 245.493 212.673 243.239 212.673 240.46C212.673 237.68 210.42 235.426 207.641 235.426C204.863 235.426 202.61 237.68 202.61 240.46C202.61 243.239 204.863 245.493 207.641 245.493Z" fill="black"/>
<path d="M223.094 245.493C225.873 245.493 228.125 243.239 228.125 240.46C228.125 237.68 225.873 235.426 223.094 235.426C220.315 235.426 218.063 237.68 218.063 240.46C218.063 243.239 220.315 245.493 223.094 245.493Z" fill="black"/>
<path d="M238.907 245.493C241.685 245.493 243.938 243.239 243.938 240.46C243.938 237.68 241.685 235.426 238.907 235.426C236.128 235.426 233.875 237.68 233.875 240.46C233.875 243.239 236.128 245.493 238.907 245.493Z" fill="black"/>
<path d="M254.72 245.493C257.498 245.493 259.751 243.239 259.751 240.46C259.751 237.68 257.498 235.426 254.72 235.426C251.941 235.426 249.688 237.68 249.688 240.46C249.688 243.239 251.941 245.493 254.72 245.493Z" fill="black"/>
<path d="M270.173 245.493C272.952 245.493 275.204 243.239 275.204 240.46C275.204 237.68 272.952 235.426 270.173 235.426C267.394 235.426 265.142 237.68 265.142 240.46C265.142 243.239 267.394 245.493 270.173 245.493Z" fill="black"/>
<path d="M285.985 245.493C288.764 245.493 291.016 243.239 291.016 240.46C291.016 237.68 288.764 235.426 285.985 235.426C283.206 235.426 280.954 237.68 280.954 240.46C280.954 243.239 283.206 245.493 285.985 245.493Z" fill="black"/>
<path d="M301.439 245.493C304.218 245.493 306.47 243.239 306.47 240.46C306.47 237.68 304.218 235.426 301.439 235.426C298.66 235.426 296.408 237.68 296.408 240.46C296.408 243.239 298.66 245.493 301.439 245.493Z" fill="black"/>
<path d="M160.562 229.673C163.341 229.673 165.593 227.42 165.593 224.64C165.593 221.86 163.341 219.606 160.562 219.606C157.784 219.606 155.531 221.86 155.531 224.64C155.531 227.42 157.784 229.673 160.562 229.673Z" fill="black"/>
<path d="M176.375 229.673C179.154 229.673 181.406 227.42 181.406 224.64C181.406 221.86 179.154 219.606 176.375 219.606C173.596 219.606 171.344 221.86 171.344 224.64C171.344 227.42 173.596 229.673 176.375 229.673Z" fill="black"/>
<path d="M192.187 229.673C194.966 229.673 197.218 227.42 197.218 224.64C197.218 221.86 194.966 219.606 192.187 219.606C189.408 219.606 187.156 221.86 187.156 224.64C187.156 227.42 189.408 229.673 192.187 229.673Z" fill="black"/>
<path d="M207.641 229.673C210.42 229.673 212.673 227.42 212.673 224.64C212.673 221.86 210.42 219.606 207.641 219.606C204.863 219.606 202.61 221.86 202.61 224.64C202.61 227.42 204.863 229.673 207.641 229.673Z" fill="black"/>
<path d="M223.094 229.673C225.873 229.673 228.125 227.42 228.125 224.64C228.125 221.86 225.873 219.606 223.094 219.606C220.315 219.606 218.063 221.86 218.063 224.64C218.063 227.42 220.315 229.673 223.094 229.673Z" fill="black"/>
<path d="M238.907 229.673C241.685 229.673 243.938 227.42 243.938 224.64C243.938 221.86 241.685 219.606 238.907 219.606C236.128 219.606 233.875 221.86 233.875 224.64C233.875 227.42 236.128 229.673 238.907 229.673Z" fill="black"/>
<path d="M254.72 229.673C257.498 229.673 259.751 227.42 259.751 224.64C259.751 221.86 257.498 219.606 254.72 219.606C251.941 219.606 249.688 221.86 249.688 224.64C249.688 227.42 251.941 229.673 254.72 229.673Z" fill="black"/>
<path d="M270.173 229.673C272.952 229.673 275.204 227.42 275.204 224.64C275.204 221.86 272.952 219.606 270.173 219.606C267.394 219.606 265.142 221.86 265.142 224.64C265.142 227.42 267.394 229.673 270.173 229.673Z" fill="black"/>
<path d="M285.985 229.673C288.764 229.673 291.016 227.42 291.016 224.64C291.016 221.86 288.764 219.606 285.985 219.606C283.206 219.606 280.954 221.86 280.954 224.64C280.954 227.42 283.206 229.673 285.985 229.673Z" fill="black"/>
<path d="M301.439 229.673C304.218 229.673 306.47 227.42 306.47 224.64C306.47 221.86 304.218 219.606 301.439 219.606C298.66 219.606 296.408 221.86 296.408 224.64C296.408 227.42 298.66 229.673 301.439 229.673Z" fill="black"/>
<path d="M317.251 229.673C320.03 229.673 322.282 227.42 322.282 224.64C322.282 221.86 320.03 219.606 317.251 219.606C314.472 219.606 312.22 221.86 312.22 224.64C312.22 227.42 314.472 229.673 317.251 229.673Z" fill="black"/>
<path d="M160.562 214.213C163.341 214.213 165.593 211.96 165.593 209.18C165.593 206.4 163.341 204.146 160.562 204.146C157.784 204.146 155.531 206.4 155.531 209.18C155.531 211.96 157.784 214.213 160.562 214.213Z" fill="black"/>
<path d="M176.375 214.213C179.154 214.213 181.406 211.96 181.406 209.18C181.406 206.4 179.154 204.146 176.375 204.146C173.596 204.146 171.344 206.4 171.344 209.18C171.344 211.96 173.596 214.213 176.375 214.213Z" fill="black"/>
<path d="M192.187 214.213C194.966 214.213 197.218 211.96 197.218 209.18C197.218 206.4 194.966 204.146 192.187 204.146C189.408 204.146 187.156 206.4 187.156 209.18C187.156 211.96 189.408 214.213 192.187 214.213Z" fill="black"/>
<path d="M207.641 214.213C210.42 214.213 212.673 211.96 212.673 209.18C212.673 206.4 210.42 204.146 207.641 204.146C204.863 204.146 202.61 206.4 202.61 209.18C202.61 211.96 204.863 214.213 207.641 214.213Z" fill="black"/>
<path d="M223.094 214.213C225.873 214.213 228.125 211.96 228.125 209.18C228.125 206.4 225.873 204.146 223.094 204.146C220.315 204.146 218.063 206.4 218.063 209.18C218.063 211.96 220.315 214.213 223.094 214.213Z" fill="black"/>
<path d="M238.907 214.213C241.685 214.213 243.938 211.96 243.938 209.18C243.938 206.4 241.685 204.146 238.907 204.146C236.128 204.146 233.875 206.4 233.875 209.18C233.875 211.96 236.128 214.213 238.907 214.213Z" fill="black"/>
<path d="M254.72 214.213C257.498 214.213 259.751 211.96 259.751 209.18C259.751 206.4 257.498 204.146 254.72 204.146C251.941 204.146 249.688 206.4 249.688 209.18C249.688 211.96 251.941 214.213 254.72 214.213Z" fill="black"/>
<path d="M270.173 214.213C272.952 214.213 275.204 211.96 275.204 209.18C275.204 206.4 272.952 204.146 270.173 204.146C267.394 204.146 265.142 206.4 265.142 209.18C265.142 211.96 267.394 214.213 270.173 214.213Z" fill="black"/>
<path d="M285.985 214.213C288.764 214.213 291.016 211.96 291.016 209.18C291.016 206.4 288.764 204.146 285.985 204.146C283.206 204.146 280.954 206.4 280.954 209.18C280.954 211.96 283.206 214.213 285.985 214.213Z" fill="black"/>
<path d="M301.439 214.213C304.218 214.213 306.47 211.96 306.47 209.18C306.47 206.4 304.218 204.146 301.439 204.146C298.66 204.146 296.408 206.4 296.408 209.18C296.408 211.96 298.66 214.213 301.439 214.213Z" fill="black"/>
<path d="M317.251 214.213C320.03 214.213 322.282 211.96 322.282 209.18C322.282 206.4 320.03 204.146 317.251 204.146C314.472 204.146 312.22 206.4 312.22 209.18C312.22 211.96 314.472 214.213 317.251 214.213Z" fill="black"/>
<path d="M332.704 214.213C335.483 214.213 337.736 211.96 337.736 209.18C337.736 206.4 335.483 204.146 332.704 204.146C329.926 204.146 327.673 206.4 327.673 209.18C327.673 211.96 329.926 214.213 332.704 214.213Z" fill="black"/>
<path d="M160.562 198.393C163.341 198.393 165.593 196.14 165.593 193.36C165.593 190.58 163.341 188.326 160.562 188.326C157.784 188.326 155.531 190.58 155.531 193.36C155.531 196.14 157.784 198.393 160.562 198.393Z" fill="black"/>
<path d="M176.375 198.393C179.154 198.393 181.406 196.14 181.406 193.36C181.406 190.58 179.154 188.326 176.375 188.326C173.596 188.326 171.344 190.58 171.344 193.36C171.344 196.14 173.596 198.393 176.375 198.393Z" fill="black"/>
<path d="M192.187 198.393C194.966 198.393 197.218 196.14 197.218 193.36C197.218 190.58 194.966 188.326 192.187 188.326C189.408 188.326 187.156 190.58 187.156 193.36C187.156 196.14 189.408 198.393 192.187 198.393Z" fill="black"/>
<path d="M207.641 198.393C210.42 198.393 212.673 196.14 212.673 193.36C212.673 190.58 210.42 188.326 207.641 188.326C204.863 188.326 202.61 190.58 202.61 193.36C202.61 196.14 204.863 198.393 207.641 198.393Z" fill="black"/>
<path d="M223.094 198.393C225.873 198.393 228.125 196.14 228.125 193.36C228.125 190.58 225.873 188.326 223.094 188.326C220.315 188.326 218.063 190.58 218.063 193.36C218.063 196.14 220.315 198.393 223.094 198.393Z" fill="black"/>
<path d="M238.907 198.393C241.685 198.393 243.938 196.14 243.938 193.36C243.938 190.58 241.685 188.326 238.907 188.326C236.128 188.326 233.875 190.58 233.875 193.36C233.875 196.14 236.128 198.393 238.907 198.393Z" fill="black"/>
<path d="M254.72 198.393C257.498 198.393 259.751 196.14 259.751 193.36C259.751 190.58 257.498 188.326 254.72 188.326C251.941 188.326 249.688 190.58 249.688 193.36C249.688 196.14 251.941 198.393 254.72 198.393Z" fill="black"/>
<path d="M270.173 198.393C272.952 198.393 275.204 196.14 275.204 193.36C275.204 190.58 272.952 188.326 270.173 188.326C267.394 188.326 265.142 190.58 265.142 193.36C265.142 196.14 267.394 198.393 270.173 198.393Z" fill="black"/>
<path d="M285.985 198.393C288.764 198.393 291.016 196.14 291.016 193.36C291.016 190.58 288.764 188.326 285.985 188.326C283.206 188.326 280.954 190.58 280.954 193.36C280.954 196.14 283.206 198.393 285.985 198.393Z" fill="black"/>
<path d="M301.439 198.393C304.218 198.393 306.47 196.14 306.47 193.36C306.47 190.58 304.218 188.326 301.439 188.326C298.66 188.326 296.408 190.58 296.408 193.36C296.408 196.14 298.66 198.393 301.439 198.393Z" fill="black"/>
<path d="M317.251 198.393C320.03 198.393 322.282 196.14 322.282 193.36C322.282 190.58 320.03 188.326 317.251 188.326C314.472 188.326 312.22 190.58 312.22 193.36C312.22 196.14 314.472 198.393 317.251 198.393Z" fill="black"/>
<path d="M332.704 198.393C335.483 198.393 337.736 196.14 337.736 193.36C337.736 190.58 335.483 188.326 332.704 188.326C329.926 188.326 327.673 190.58 327.673 193.36C327.673 196.14 329.926 198.393 332.704 198.393Z" fill="black"/>
<path d="M348.517 198.393C351.295 198.393 353.548 196.14 353.548 193.36C353.548 190.58 351.295 188.326 348.517 188.326C345.738 188.326 343.485 190.58 343.485 193.36C343.485 196.14 345.738 198.393 348.517 198.393Z" fill="black"/>
<path d="M160.562 182.933C163.341 182.933 165.593 180.68 165.593 177.9C165.593 175.12 163.341 172.866 160.562 172.866C157.784 172.866 155.531 175.12 155.531 177.9C155.531 180.68 157.784 182.933 160.562 182.933Z" fill="black"/>
<path d="M176.375 182.933C179.154 182.933 181.406 180.68 181.406 177.9C181.406 175.12 179.154 172.866 176.375 172.866C173.596 172.866 171.344 175.12 171.344 177.9C171.344 180.68 173.596 182.933 176.375 182.933Z" fill="black"/>
<path d="M192.187 182.933C194.966 182.933 197.218 180.68 197.218 177.9C197.218 175.12 194.966 172.866 192.187 172.866C189.408 172.866 187.156 175.12 187.156 177.9C187.156 180.68 189.408 182.933 192.187 182.933Z" fill="black"/>
<path d="M207.641 182.933C210.42 182.933 212.673 180.68 212.673 177.9C212.673 175.12 210.42 172.866 207.641 172.866C204.863 172.866 202.61 175.12 202.61 177.9C202.61 180.68 204.863 182.933 207.641 182.933Z" fill="black"/>
<path d="M223.094 182.933C225.873 182.933 228.125 180.68 228.125 177.9C228.125 175.12 225.873 172.866 223.094 172.866C220.315 172.866 218.063 175.12 218.063 177.9C218.063 180.68 220.315 182.933 223.094 182.933Z" fill="black"/>
<path d="M238.907 182.933C241.685 182.933 243.938 180.68 243.938 177.9C243.938 175.12 241.685 172.866 238.907 172.866C236.128 172.866 233.875 175.12 233.875 177.9C233.875 180.68 236.128 182.933 238.907 182.933Z" fill="black"/>
<path d="M254.72 182.933C257.498 182.933 259.751 180.68 259.751 177.9C259.751 175.12 257.498 172.866 254.72 172.866C251.941 172.866 249.688 175.12 249.688 177.9C249.688 180.68 251.941 182.933 254.72 182.933Z" fill="black"/>
<path d="M270.173 182.933C272.952 182.933 275.204 180.68 275.204 177.9C275.204 175.12 272.952 172.866 270.173 172.866C267.394 172.866 265.142 175.12 265.142 177.9C265.142 180.68 267.394 182.933 270.173 182.933Z" fill="black"/>
<path d="M285.985 182.933C288.764 182.933 291.016 180.68 291.016 177.9C291.016 175.12 288.764 172.866 285.985 172.866C283.206 172.866 280.954 175.12 280.954 177.9C280.954 180.68 283.206 182.933 285.985 182.933Z" fill="black"/>
<path d="M301.439 182.933C304.218 182.933 306.47 180.68 306.47 177.9C306.47 175.12 304.218 172.866 301.439 172.866C298.66 172.866 296.408 175.12 296.408 177.9C296.408 180.68 298.66 182.933 301.439 182.933Z" fill="black"/>
<path d="M317.251 182.933C320.03 182.933 322.282 180.68 322.282 177.9C322.282 175.12 320.03 172.866 317.251 172.866C314.472 172.866 312.22 175.12 312.22 177.9C312.22 180.68 314.472 182.933 317.251 182.933Z" fill="black"/>
<path d="M332.704 182.933C335.483 182.933 337.736 180.68 337.736 177.9C337.736 175.12 335.483 172.866 332.704 172.866C329.926 172.866 327.673 175.12 327.673 177.9C327.673 180.68 329.926 182.933 332.704 182.933Z" fill="black"/>
<path d="M348.517 182.933C351.295 182.933 353.548 180.68 353.548 177.9C353.548 175.12 351.295 172.866 348.517 172.866C345.738 172.866 343.485 175.12 343.485 177.9C343.485 180.68 345.738 182.933 348.517 182.933Z" fill="black"/>
<path d="M363.971 182.933C366.749 182.933 369.002 180.68 369.002 177.9C369.002 175.12 366.749 172.866 363.971 172.866C361.192 172.866 358.939 175.12 358.939 177.9C358.939 180.68 361.192 182.933 363.971 182.933Z" fill="black"/>
<path d="M160.562 167.115C163.341 167.115 165.593 164.861 165.593 162.081C165.593 159.301 163.341 157.048 160.562 157.048C157.784 157.048 155.531 159.301 155.531 162.081C155.531 164.861 157.784 167.115 160.562 167.115Z" fill="black"/>
<path d="M176.375 167.115C179.154 167.115 181.406 164.861 181.406 162.081C181.406 159.301 179.154 157.048 176.375 157.048C173.596 157.048 171.344 159.301 171.344 162.081C171.344 164.861 173.596 167.115 176.375 167.115Z" fill="black"/>
<path d="M192.187 167.115C194.966 167.115 197.218 164.861 197.218 162.081C197.218 159.301 194.966 157.048 192.187 157.048C189.408 157.048 187.156 159.301 187.156 162.081C187.156 164.861 189.408 167.115 192.187 167.115Z" fill="black"/>
<path d="M207.641 167.115C210.42 167.115 212.673 164.861 212.673 162.081C212.673 159.301 210.42 157.048 207.641 157.048C204.863 157.048 202.61 159.301 202.61 162.081C202.61 164.861 204.863 167.115 207.641 167.115Z" fill="black"/>
<path d="M223.094 167.115C225.873 167.115 228.125 164.861 228.125 162.081C228.125 159.301 225.873 157.048 223.094 157.048C220.315 157.048 218.063 159.301 218.063 162.081C218.063 164.861 220.315 167.115 223.094 167.115Z" fill="black"/>
<path d="M238.907 167.115C241.685 167.115 243.938 164.861 243.938 162.081C243.938 159.301 241.685 157.048 238.907 157.048C236.128 157.048 233.875 159.301 233.875 162.081C233.875 164.861 236.128 167.115 238.907 167.115Z" fill="black"/>
<path d="M254.72 167.115C257.498 167.115 259.751 164.861 259.751 162.081C259.751 159.301 257.498 157.048 254.72 157.048C251.941 157.048 249.688 159.301 249.688 162.081C249.688 164.861 251.941 167.115 254.72 167.115Z" fill="black"/>
<path d="M270.173 167.115C272.952 167.115 275.204 164.861 275.204 162.081C275.204 159.301 272.952 157.048 270.173 157.048C267.394 157.048 265.142 159.301 265.142 162.081C265.142 164.861 267.394 167.115 270.173 167.115Z" fill="black"/>
<path d="M285.985 167.115C288.764 167.115 291.016 164.861 291.016 162.081C291.016 159.301 288.764 157.048 285.985 157.048C283.206 157.048 280.954 159.301 280.954 162.081C280.954 164.861 283.206 167.115 285.985 167.115Z" fill="black"/>
<path d="M301.439 167.115C304.218 167.115 306.47 164.861 306.47 162.081C306.47 159.301 304.218 157.048 301.439 157.048C298.66 157.048 296.408 159.301 296.408 162.081C296.408 164.861 298.66 167.115 301.439 167.115Z" fill="black"/>
<path d="M317.251 167.115C320.03 167.115 322.282 164.861 322.282 162.081C322.282 159.301 320.03 157.048 317.251 157.048C314.472 157.048 312.22 159.301 312.22 162.081C312.22 164.861 314.472 167.115 317.251 167.115Z" fill="black"/>
<path d="M332.704 167.115C335.483 167.115 337.736 164.861 337.736 162.081C337.736 159.301 335.483 157.048 332.704 157.048C329.926 157.048 327.673 159.301 327.673 162.081C327.673 164.861 329.926 167.115 332.704 167.115Z" fill="black"/>
<path d="M348.517 167.115C351.295 167.115 353.548 164.861 353.548 162.081C353.548 159.301 351.295 157.048 348.517 157.048C345.738 157.048 343.485 159.301 343.485 162.081C343.485 164.861 345.738 167.115 348.517 167.115Z" fill="black"/>
<path d="M363.971 167.115C366.749 167.115 369.002 164.861 369.002 162.081C369.002 159.301 366.749 157.048 363.971 157.048C361.192 157.048 358.939 159.301 358.939 162.081C358.939 164.861 361.192 167.115 363.971 167.115Z" fill="black"/>
<path d="M160.562 151.654C163.341 151.654 165.593 149.401 165.593 146.621C165.593 143.841 163.341 141.587 160.562 141.587C157.784 141.587 155.531 143.841 155.531 146.621C155.531 149.401 157.784 151.654 160.562 151.654Z" fill="black"/>
<path d="M176.375 151.654C179.154 151.654 181.406 149.401 181.406 146.621C181.406 143.841 179.154 141.587 176.375 141.587C173.596 141.587 171.344 143.841 171.344 146.621C171.344 149.401 173.596 151.654 176.375 151.654Z" fill="black"/>
<path d="M192.187 151.654C194.966 151.654 197.218 149.401 197.218 146.621C197.218 143.841 194.966 141.587 192.187 141.587C189.408 141.587 187.156 143.841 187.156 146.621C187.156 149.401 189.408 151.654 192.187 151.654Z" fill="black"/>
<path d="M207.641 151.654C210.42 151.654 212.673 149.401 212.673 146.621C212.673 143.841 210.42 141.587 207.641 141.587C204.863 141.587 202.61 143.841 202.61 146.621C202.61 149.401 204.863 151.654 207.641 151.654Z" fill="black"/>
<path d="M223.094 151.654C225.873 151.654 228.125 149.401 228.125 146.621C228.125 143.841 225.873 141.587 223.094 141.587C220.315 141.587 218.063 143.841 218.063 146.621C218.063 149.401 220.315 151.654 223.094 151.654Z" fill="black"/>
<path d="M238.907 151.654C241.685 151.654 243.938 149.401 243.938 146.621C243.938 143.841 241.685 141.587 238.907 141.587C236.128 141.587 233.875 143.841 233.875 146.621C233.875 149.401 236.128 151.654 238.907 151.654Z" fill="black"/>
<path d="M254.72 151.654C257.498 151.654 259.751 149.401 259.751 146.621C259.751 143.841 257.498 141.587 254.72 141.587C251.941 141.587 249.688 143.841 249.688 146.621C249.688 149.401 251.941 151.654 254.72 151.654Z" fill="black"/>
<path d="M270.173 151.654C272.952 151.654 275.204 149.401 275.204 146.621C275.204 143.841 272.952 141.587 270.173 141.587C267.394 141.587 265.142 143.841 265.142 146.621C265.142 149.401 267.394 151.654 270.173 151.654Z" fill="black"/>
<path d="M285.985 151.654C288.764 151.654 291.016 149.401 291.016 146.621C291.016 143.841 288.764 141.587 285.985 141.587C283.206 141.587 280.954 143.841 280.954 146.621C280.954 149.401 283.206 151.654 285.985 151.654Z" fill="black"/>
<path d="M301.439 151.654C304.218 151.654 306.47 149.401 306.47 146.621C306.47 143.841 304.218 141.587 301.439 141.587C298.66 141.587 296.408 143.841 296.408 146.621C296.408 149.401 298.66 151.654 301.439 151.654Z" fill="black"/>
<path d="M317.251 151.654C320.03 151.654 322.282 149.401 322.282 146.621C322.282 143.841 320.03 141.587 317.251 141.587C314.472 141.587 312.22 143.841 312.22 146.621C312.22 149.401 314.472 151.654 317.251 151.654Z" fill="black"/>
<path d="M160.922 135.835C163.7 135.835 165.953 133.581 165.953 130.801C165.953 128.021 163.7 125.768 160.922 125.768C158.143 125.768 155.89 128.021 155.89 130.801C155.89 133.581 158.143 135.835 160.922 135.835Z" fill="black"/>
<path d="M176.375 135.835C179.154 135.835 181.406 133.581 181.406 130.801C181.406 128.021 179.154 125.768 176.375 125.768C173.596 125.768 171.344 128.021 171.344 130.801C171.344 133.581 173.596 135.835 176.375 135.835Z" fill="black"/>
<path d="M192.187 135.835C194.966 135.835 197.218 133.581 197.218 130.801C197.218 128.021 194.966 125.768 192.187 125.768C189.408 125.768 187.156 128.021 187.156 130.801C187.156 133.581 189.408 135.835 192.187 135.835Z" fill="black"/>
<path d="M207.641 135.835C210.42 135.835 212.673 133.581 212.673 130.801C212.673 128.021 210.42 125.768 207.641 125.768C204.863 125.768 202.61 128.021 202.61 130.801C202.61 133.581 204.863 135.835 207.641 135.835Z" fill="black"/>
<path d="M223.094 135.835C225.873 135.835 228.125 133.581 228.125 130.801C228.125 128.021 225.873 125.768 223.094 125.768C220.315 125.768 218.063 128.021 218.063 130.801C218.063 133.581 220.315 135.835 223.094 135.835Z" fill="black"/>
<path d="M238.907 135.835C241.685 135.835 243.938 133.581 243.938 130.801C243.938 128.021 241.685 125.768 238.907 125.768C236.128 125.768 233.875 128.021 233.875 130.801C233.875 133.581 236.128 135.835 238.907 135.835Z" fill="black"/>
<path d="M254.72 135.835C257.498 135.835 259.751 133.581 259.751 130.801C259.751 128.021 257.498 125.768 254.72 125.768C251.941 125.768 249.688 128.021 249.688 130.801C249.688 133.581 251.941 135.835 254.72 135.835Z" fill="black"/>
<path d="M270.173 135.835C272.952 135.835 275.204 133.581 275.204 130.801C275.204 128.021 272.952 125.768 270.173 125.768C267.394 125.768 265.142 128.021 265.142 130.801C265.142 133.581 267.394 135.835 270.173 135.835Z" fill="black"/>
<path d="M285.985 135.835C288.764 135.835 291.016 133.581 291.016 130.801C291.016 128.021 288.764 125.768 285.985 125.768C283.206 125.768 280.954 128.021 280.954 130.801C280.954 133.581 283.206 135.835 285.985 135.835Z" fill="black"/>
<path d="M301.439 135.835C304.218 135.835 306.47 133.581 306.47 130.801C306.47 128.021 304.218 125.768 301.439 125.768C298.66 125.768 296.408 128.021 296.408 130.801C296.408 133.581 298.66 135.835 301.439 135.835Z" fill="black"/>
<path d="M160.922 120.375C163.7 120.375 165.953 118.122 165.953 115.342C165.953 112.562 163.7 110.308 160.922 110.308C158.143 110.308 155.89 112.562 155.89 115.342C155.89 118.122 158.143 120.375 160.922 120.375Z" fill="black"/>
<path d="M176.375 120.375C179.154 120.375 181.406 118.122 181.406 115.342C181.406 112.562 179.154 110.308 176.375 110.308C173.596 110.308 171.344 112.562 171.344 115.342C171.344 118.122 173.596 120.375 176.375 120.375Z" fill="black"/>
<path d="M192.187 120.375C194.966 120.375 197.218 118.122 197.218 115.342C197.218 112.562 194.966 110.308 192.187 110.308C189.408 110.308 187.156 112.562 187.156 115.342C187.156 118.122 189.408 120.375 192.187 120.375Z" fill="black"/>
<path d="M207.641 120.375C210.42 120.375 212.673 118.122 212.673 115.342C212.673 112.562 210.42 110.308 207.641 110.308C204.863 110.308 202.61 112.562 202.61 115.342C202.61 118.122 204.863 120.375 207.641 120.375Z" fill="black"/>
<path d="M223.094 120.375C225.873 120.375 228.125 118.122 228.125 115.342C228.125 112.562 225.873 110.308 223.094 110.308C220.315 110.308 218.063 112.562 218.063 115.342C218.063 118.122 220.315 120.375 223.094 120.375Z" fill="black"/>
<path d="M238.907 120.375C241.685 120.375 243.938 118.122 243.938 115.342C243.938 112.562 241.685 110.308 238.907 110.308C236.128 110.308 233.875 112.562 233.875 115.342C233.875 118.122 236.128 120.375 238.907 120.375Z" fill="black"/>
<path d="M254.72 120.375C257.498 120.375 259.751 118.122 259.751 115.342C259.751 112.562 257.498 110.308 254.72 110.308C251.941 110.308 249.688 112.562 249.688 115.342C249.688 118.122 251.941 120.375 254.72 120.375Z" fill="black"/>
<path d="M270.173 120.375C272.952 120.375 275.204 118.122 275.204 115.342C275.204 112.562 272.952 110.308 270.173 110.308C267.394 110.308 265.142 112.562 265.142 115.342C265.142 118.122 267.394 120.375 270.173 120.375Z" fill="black"/>
<path d="M285.985 120.375C288.764 120.375 291.016 118.122 291.016 115.342C291.016 112.562 288.764 110.308 285.985 110.308C283.206 110.308 280.954 112.562 280.954 115.342C280.954 118.122 283.206 120.375 285.985 120.375Z" fill="black"/>
<path d="M301.439 120.375C304.218 120.375 306.47 118.122 306.47 115.342C306.47 112.562 304.218 110.308 301.439 110.308C298.66 110.308 296.408 112.562 296.408 115.342C296.408 118.122 298.66 120.375 301.439 120.375Z" fill="black"/>
<path d="M160.922 104.555C163.7 104.555 165.953 102.302 165.953 99.522C165.953 96.7421 163.7 94.4885 160.922 94.4885C158.143 94.4885 155.89 96.7421 155.89 99.522C155.89 102.302 158.143 104.555 160.922 104.555Z" fill="black"/>
<path d="M176.375 104.555C179.154 104.555 181.406 102.302 181.406 99.522C181.406 96.7421 179.154 94.4885 176.375 94.4885C173.596 94.4885 171.344 96.7421 171.344 99.522C171.344 102.302 173.596 104.555 176.375 104.555Z" fill="black"/>
<path d="M192.187 104.555C194.966 104.555 197.218 102.302 197.218 99.522C197.218 96.7421 194.966 94.4885 192.187 94.4885C189.408 94.4885 187.156 96.7421 187.156 99.522C187.156 102.302 189.408 104.555 192.187 104.555Z" fill="black"/>
<path d="M207.641 104.555C210.42 104.555 212.673 102.302 212.673 99.522C212.673 96.7421 210.42 94.4885 207.641 94.4885C204.863 94.4885 202.61 96.7421 202.61 99.522C202.61 102.302 204.863 104.555 207.641 104.555Z" fill="black"/>
<path d="M223.094 104.555C225.873 104.555 228.125 102.302 228.125 99.522C228.125 96.7421 225.873 94.4885 223.094 94.4885C220.315 94.4885 218.063 96.7421 218.063 99.522C218.063 102.302 220.315 104.555 223.094 104.555Z" fill="black"/>
<path d="M238.907 104.555C241.685 104.555 243.938 102.302 243.938 99.522C243.938 96.7421 241.685 94.4885 238.907 94.4885C236.128 94.4885 233.875 96.7421 233.875 99.522C233.875 102.302 236.128 104.555 238.907 104.555Z" fill="black"/>
<path d="M254.72 104.555C257.498 104.555 259.751 102.302 259.751 99.522C259.751 96.7421 257.498 94.4885 254.72 94.4885C251.941 94.4885 249.688 96.7421 249.688 99.522C249.688 102.302 251.941 104.555 254.72 104.555Z" fill="black"/>
<path d="M270.173 104.555C272.952 104.555 275.204 102.302 275.204 99.522C275.204 96.7421 272.952 94.4885 270.173 94.4885C267.394 94.4885 265.142 96.7421 265.142 99.522C265.142 102.302 267.394 104.555 270.173 104.555Z" fill="black"/>
<path d="M285.985 104.555C288.764 104.555 291.016 102.302 291.016 99.522C291.016 96.7421 288.764 94.4885 285.985 94.4885C283.206 94.4885 280.954 96.7421 280.954 99.522C280.954 102.302 283.206 104.555 285.985 104.555Z" fill="black"/>
<path d="M160.922 89.0953C163.7 89.0953 165.953 86.8417 165.953 84.0618C165.953 81.2819 163.7 79.0284 160.922 79.0284C158.143 79.0284 155.89 81.2819 155.89 84.0618C155.89 86.8417 158.143 89.0953 160.922 89.0953Z" fill="black"/>
<path d="M176.375 89.0953C179.154 89.0953 181.406 86.8417 181.406 84.0618C181.406 81.2819 179.154 79.0284 176.375 79.0284C173.596 79.0284 171.344 81.2819 171.344 84.0618C171.344 86.8417 173.596 89.0953 176.375 89.0953Z" fill="black"/>
<path d="M192.187 89.0953C194.966 89.0953 197.218 86.8417 197.218 84.0618C197.218 81.2819 194.966 79.0284 192.187 79.0284C189.408 79.0284 187.156 81.2819 187.156 84.0618C187.156 86.8417 189.408 89.0953 192.187 89.0953Z" fill="black"/>
<path d="M207.641 89.0953C210.42 89.0953 212.673 86.8417 212.673 84.0618C212.673 81.2819 210.42 79.0284 207.641 79.0284C204.863 79.0284 202.61 81.2819 202.61 84.0618C202.61 86.8417 204.863 89.0953 207.641 89.0953Z" fill="black"/>
<path d="M223.094 89.0953C225.873 89.0953 228.125 86.8417 228.125 84.0618C228.125 81.2819 225.873 79.0284 223.094 79.0284C220.315 79.0284 218.063 81.2819 218.063 84.0618C218.063 86.8417 220.315 89.0953 223.094 89.0953Z" fill="black"/>
<path d="M238.907 89.0953C241.685 89.0953 243.938 86.8417 243.938 84.0618C243.938 81.2819 241.685 79.0284 238.907 79.0284C236.128 79.0284 233.875 81.2819 233.875 84.0618C233.875 86.8417 236.128 89.0953 238.907 89.0953Z" fill="black"/>
<path d="M254.72 89.0953C257.498 89.0953 259.751 86.8417 259.751 84.0618C259.751 81.2819 257.498 79.0284 254.72 79.0284C251.941 79.0284 249.688 81.2819 249.688 84.0618C249.688 86.8417 251.941 89.0953 254.72 89.0953Z" fill="black"/>
<path d="M270.173 89.0953C272.952 89.0953 275.204 86.8417 275.204 84.0618C275.204 81.2819 272.952 79.0284 270.173 79.0284C267.394 79.0284 265.142 81.2819 265.142 84.0618C265.142 86.8417 267.394 89.0953 270.173 89.0953Z" fill="black"/>
<path d="M285.985 89.0953C288.764 89.0953 291.016 86.8417 291.016 84.0618C291.016 81.2819 288.764 79.0284 285.985 79.0284C283.206 79.0284 280.954 81.2819 280.954 84.0618C280.954 86.8417 283.206 89.0953 285.985 89.0953Z" fill="black"/>
<path d="M160.922 73.2755C163.7 73.2755 165.953 71.0219 165.953 68.242C165.953 65.462 163.7 63.2085 160.922 63.2085C158.143 63.2085 155.89 65.462 155.89 68.242C155.89 71.0219 158.143 73.2755 160.922 73.2755Z" fill="black"/>
<path d="M176.375 73.2755C179.154 73.2755 181.406 71.0219 181.406 68.242C181.406 65.462 179.154 63.2085 176.375 63.2085C173.596 63.2085 171.344 65.462 171.344 68.242C171.344 71.0219 173.596 73.2755 176.375 73.2755Z" fill="black"/>
<path d="M192.187 73.2755C194.966 73.2755 197.218 71.0219 197.218 68.242C197.218 65.462 194.966 63.2085 192.187 63.2085C189.408 63.2085 187.156 65.462 187.156 68.242C187.156 71.0219 189.408 73.2755 192.187 73.2755Z" fill="black"/>
<path d="M207.641 73.2755C210.42 73.2755 212.673 71.0219 212.673 68.242C212.673 65.462 210.42 63.2085 207.641 63.2085C204.863 63.2085 202.61 65.462 202.61 68.242C202.61 71.0219 204.863 73.2755 207.641 73.2755Z" fill="black"/>
<path d="M223.094 73.2755C225.873 73.2755 228.125 71.0219 228.125 68.242C228.125 65.462 225.873 63.2085 223.094 63.2085C220.315 63.2085 218.063 65.462 218.063 68.242C218.063 71.0219 220.315 73.2755 223.094 73.2755Z" fill="black"/>
<path d="M238.907 73.2755C241.685 73.2755 243.938 71.0219 243.938 68.242C243.938 65.462 241.685 63.2085 238.907 63.2085C236.128 63.2085 233.875 65.462 233.875 68.242C233.875 71.0219 236.128 73.2755 238.907 73.2755Z" fill="black"/>
<path d="M254.72 73.2755C257.498 73.2755 259.751 71.0219 259.751 68.242C259.751 65.462 257.498 63.2085 254.72 63.2085C251.941 63.2085 249.688 65.462 249.688 68.242C249.688 71.0219 251.941 73.2755 254.72 73.2755Z" fill="black"/>
<path d="M270.173 73.2755C272.952 73.2755 275.204 71.0219 275.204 68.242C275.204 65.462 272.952 63.2085 270.173 63.2085C267.394 63.2085 265.142 65.462 265.142 68.242C265.142 71.0219 267.394 73.2755 270.173 73.2755Z" fill="black"/>
<path d="M160.922 57.816C163.7 57.816 165.953 55.5625 165.953 52.7826C165.953 50.0027 163.7 47.7492 160.922 47.7492C158.143 47.7492 155.89 50.0027 155.89 52.7826C155.89 55.5625 158.143 57.816 160.922 57.816Z" fill="black"/>
<path d="M176.375 57.816C179.154 57.816 181.406 55.5625 181.406 52.7826C181.406 50.0027 179.154 47.7492 176.375 47.7492C173.596 47.7492 171.344 50.0027 171.344 52.7826C171.344 55.5625 173.596 57.816 176.375 57.816Z" fill="black"/>
<path d="M192.187 57.816C194.966 57.816 197.218 55.5625 197.218 52.7826C197.218 50.0027 194.966 47.7492 192.187 47.7492C189.408 47.7492 187.156 50.0027 187.156 52.7826C187.156 55.5625 189.408 57.816 192.187 57.816Z" fill="black"/>
<path d="M207.641 57.816C210.42 57.816 212.673 55.5625 212.673 52.7826C212.673 50.0027 210.42 47.7492 207.641 47.7492C204.863 47.7492 202.61 50.0027 202.61 52.7826C202.61 55.5625 204.863 57.816 207.641 57.816Z" fill="black"/>
<path d="M223.094 57.816C225.873 57.816 228.125 55.5625 228.125 52.7826C228.125 50.0027 225.873 47.7492 223.094 47.7492C220.315 47.7492 218.063 50.0027 218.063 52.7826C218.063 55.5625 220.315 57.816 223.094 57.816Z" fill="black"/>
<path d="M238.907 57.816C241.685 57.816 243.938 55.5625 243.938 52.7826C243.938 50.0027 241.685 47.7492 238.907 47.7492C236.128 47.7492 233.875 50.0027 233.875 52.7826C233.875 55.5625 236.128 57.816 238.907 57.816Z" fill="black"/>
<path d="M254.72 57.816C257.498 57.816 259.751 55.5625 259.751 52.7826C259.751 50.0027 257.498 47.7492 254.72 47.7492C251.941 47.7492 249.688 50.0027 249.688 52.7826C249.688 55.5625 251.941 57.816 254.72 57.816Z" fill="black"/>
<path d="M270.173 57.816C272.952 57.816 275.204 55.5625 275.204 52.7826C275.204 50.0027 272.952 47.7492 270.173 47.7492C267.394 47.7492 265.142 50.0027 265.142 52.7826C265.142 55.5625 267.394 57.816 270.173 57.816Z" fill="black"/>
<path d="M160.922 41.9962C163.7 41.9962 165.953 39.7426 165.953 36.9627C165.953 34.1828 163.7 31.9292 160.922 31.9292C158.143 31.9292 155.89 34.1828 155.89 36.9627C155.89 39.7426 158.143 41.9962 160.922 41.9962Z" fill="black"/>
<path d="M176.375 41.9962C179.154 41.9962 181.406 39.7426 181.406 36.9627C181.406 34.1828 179.154 31.9292 176.375 31.9292C173.596 31.9292 171.344 34.1828 171.344 36.9627C171.344 39.7426 173.596 41.9962 176.375 41.9962Z" fill="black"/>
<path d="M207.641 41.9962C210.42 41.9962 212.673 39.7426 212.673 36.9627C212.673 34.1828 210.42 31.9292 207.641 31.9292C204.863 31.9292 202.61 34.1828 202.61 36.9627C202.61 39.7426 204.863 41.9962 207.641 41.9962Z" fill="black"/>
<path d="M223.094 41.9962C225.873 41.9962 228.125 39.7426 228.125 36.9627C228.125 34.1828 225.873 31.9292 223.094 31.9292C220.315 31.9292 218.063 34.1828 218.063 36.9627C218.063 39.7426 220.315 41.9962 223.094 41.9962Z" fill="black"/>
</svg>
