<svg width="366" height="270" viewBox="0 0 366 270" fill="none" xmlns="http://www.w3.org/2000/svg">
<path d="M312.186 269.249C315.052 269.249 317.376 266.924 317.376 264.057C317.376 261.189 315.052 258.865 312.186 258.865C309.32 258.865 306.997 261.189 306.997 264.057C306.997 266.924 309.32 269.249 312.186 269.249Z" fill="black"/>
<path d="M328.126 269.249C330.992 269.249 333.316 266.924 333.316 264.057C333.316 261.189 330.992 258.865 328.126 258.865C325.26 258.865 322.936 261.189 322.936 264.057C322.936 266.924 325.26 269.249 328.126 269.249Z" fill="black"/>
<path d="M199.125 252.931C201.992 252.931 204.315 250.607 204.315 247.739C204.315 244.872 201.992 242.547 199.125 242.547C196.259 242.547 193.936 244.872 193.936 247.739C193.936 250.607 196.259 252.931 199.125 252.931Z" fill="black"/>
<path d="M328.126 252.931C330.992 252.931 333.316 250.607 333.316 247.739C333.316 244.872 330.992 242.547 328.126 242.547C325.26 242.547 322.936 244.872 322.936 247.739C322.936 250.607 325.26 252.931 328.126 252.931Z" fill="black"/>
<path d="M183.185 236.984C186.051 236.984 188.374 234.66 188.374 231.792C188.374 228.925 186.051 226.6 183.185 226.6C180.319 226.6 177.995 228.925 177.995 231.792C177.995 234.66 180.319 236.984 183.185 236.984Z" fill="black"/>
<path d="M199.125 236.984C201.992 236.984 204.315 234.66 204.315 231.792C204.315 228.925 201.992 226.6 199.125 226.6C196.259 226.6 193.936 228.925 193.936 231.792C193.936 234.66 196.259 236.984 199.125 236.984Z" fill="black"/>
<path d="M360.376 236.984C363.242 236.984 365.566 234.66 365.566 231.792C365.566 228.925 363.242 226.6 360.376 226.6C357.51 226.6 355.187 228.925 355.187 231.792C355.187 234.66 357.51 236.984 360.376 236.984Z" fill="black"/>
<path d="M166.875 220.667C169.741 220.667 172.064 218.343 172.064 215.475C172.064 212.608 169.741 210.283 166.875 210.283C164.008 210.283 161.685 212.608 161.685 215.475C161.685 218.343 164.008 220.667 166.875 220.667Z" fill="black"/>
<path d="M360.376 220.667C363.242 220.667 365.566 218.343 365.566 215.475C365.566 212.608 363.242 210.283 360.376 210.283C357.51 210.283 355.187 212.608 355.187 215.475C355.187 218.343 357.51 220.667 360.376 220.667Z" fill="black"/>
<path d="M166.875 204.72C169.741 204.72 172.064 202.396 172.064 199.528C172.064 196.661 169.741 194.336 166.875 194.336C164.008 194.336 161.685 196.661 161.685 199.528C161.685 202.396 164.008 204.72 166.875 204.72Z" fill="black"/>
<path d="M183.185 204.72C186.051 204.72 188.374 202.396 188.374 199.528C188.374 196.661 186.051 194.336 183.185 194.336C180.319 194.336 177.995 196.661 177.995 199.528C177.995 202.396 180.319 204.72 183.185 204.72Z" fill="black"/>
<path d="M199.125 204.72C201.992 204.72 204.315 202.396 204.315 199.528C204.315 196.661 201.992 194.336 199.125 194.336C196.259 194.336 193.936 196.661 193.936 199.528C193.936 202.396 196.259 204.72 199.125 204.72Z" fill="black"/>
<path d="M215.435 204.72C218.302 204.72 220.625 202.396 220.625 199.528C220.625 196.661 218.302 194.336 215.435 194.336C212.569 194.336 210.246 196.661 210.246 199.528C210.246 202.396 212.569 204.72 215.435 204.72Z" fill="black"/>
<path d="M344.436 204.72C347.302 204.72 349.626 202.396 349.626 199.528C349.626 196.661 347.302 194.336 344.436 194.336C341.57 194.336 339.246 196.661 339.246 199.528C339.246 202.396 341.57 204.72 344.436 204.72Z" fill="black"/>
<path d="M21.9338 188.403C24.8 188.403 27.1236 186.079 27.1236 183.211C27.1236 180.344 24.8 178.019 21.9338 178.019C19.0676 178.019 16.7441 180.344 16.7441 183.211C16.7441 186.079 19.0676 188.403 21.9338 188.403Z" fill="black"/>
<path d="M37.874 188.403C40.7402 188.403 43.0637 186.079 43.0637 183.211C43.0637 180.344 40.7402 178.019 37.874 178.019C35.0078 178.019 32.6843 180.344 32.6843 183.211C32.6843 186.079 35.0078 188.403 37.874 188.403Z" fill="black"/>
<path d="M70.1233 188.403C72.9895 188.403 75.3131 186.079 75.3131 183.211C75.3131 180.344 72.9895 178.019 70.1233 178.019C67.2571 178.019 64.9336 180.344 64.9336 183.211C64.9336 186.079 67.2571 188.403 70.1233 188.403Z" fill="black"/>
<path d="M134.624 188.403C137.49 188.403 139.814 186.079 139.814 183.211C139.814 180.344 137.49 178.019 134.624 178.019C131.758 178.019 129.434 180.344 129.434 183.211C129.434 186.079 131.758 188.403 134.624 188.403Z" fill="black"/>
<path d="M150.935 188.403C153.802 188.403 156.125 186.079 156.125 183.211C156.125 180.344 153.802 178.019 150.935 178.019C148.069 178.019 145.746 180.344 145.746 183.211C145.746 186.079 148.069 188.403 150.935 188.403Z" fill="black"/>
<path d="M166.875 188.403C169.741 188.403 172.064 186.079 172.064 183.211C172.064 180.344 169.741 178.019 166.875 178.019C164.008 178.019 161.685 180.344 161.685 183.211C161.685 186.079 164.008 188.403 166.875 188.403Z" fill="black"/>
<path d="M183.185 188.403C186.051 188.403 188.374 186.079 188.374 183.211C188.374 180.344 186.051 178.019 183.185 178.019C180.319 178.019 177.995 180.344 177.995 183.211C177.995 186.079 180.319 188.403 183.185 188.403Z" fill="black"/>
<path d="M199.125 188.403C201.992 188.403 204.315 186.079 204.315 183.211C204.315 180.344 201.992 178.019 199.125 178.019C196.259 178.019 193.936 180.344 193.936 183.211C193.936 186.079 196.259 188.403 199.125 188.403Z" fill="black"/>
<path d="M215.435 188.403C218.302 188.403 220.625 186.079 220.625 183.211C220.625 180.344 218.302 178.019 215.435 178.019C212.569 178.019 210.246 180.344 210.246 183.211C210.246 186.079 212.569 188.403 215.435 188.403Z" fill="black"/>
<path d="M37.874 172.456C40.7402 172.456 43.0637 170.132 43.0637 167.264C43.0637 164.397 40.7402 162.072 37.874 162.072C35.0078 162.072 32.6843 164.397 32.6843 167.264C32.6843 170.132 35.0078 172.456 37.874 172.456Z" fill="black"/>
<path d="M54.1842 172.456C57.0504 172.456 59.3739 170.132 59.3739 167.264C59.3739 164.397 57.0504 162.072 54.1842 162.072C51.3181 162.072 48.9946 164.397 48.9946 167.264C48.9946 170.132 51.3181 172.456 54.1842 172.456Z" fill="black"/>
<path d="M70.1233 172.456C72.9895 172.456 75.3131 170.132 75.3131 167.264C75.3131 164.397 72.9895 162.072 70.1233 162.072C67.2571 162.072 64.9336 164.397 64.9336 167.264C64.9336 170.132 67.2571 172.456 70.1233 172.456Z" fill="black"/>
<path d="M86.4342 172.456C89.3004 172.456 91.6239 170.132 91.6239 167.264C91.6239 164.397 89.3004 162.072 86.4342 162.072C83.568 162.072 81.2444 164.397 81.2444 167.264C81.2444 170.132 83.568 172.456 86.4342 172.456Z" fill="black"/>
<path d="M118.684 172.456C121.551 172.456 123.874 170.132 123.874 167.264C123.874 164.397 121.551 162.072 118.684 162.072C115.818 162.072 113.495 164.397 113.495 167.264C113.495 170.132 115.818 172.456 118.684 172.456Z" fill="black"/>
<path d="M134.624 172.456C137.49 172.456 139.814 170.132 139.814 167.264C139.814 164.397 137.49 162.072 134.624 162.072C131.758 162.072 129.434 164.397 129.434 167.264C129.434 170.132 131.758 172.456 134.624 172.456Z" fill="black"/>
<path d="M150.935 172.456C153.802 172.456 156.125 170.132 156.125 167.264C156.125 164.397 153.802 162.072 150.935 162.072C148.069 162.072 145.746 164.397 145.746 167.264C145.746 170.132 148.069 172.456 150.935 172.456Z" fill="black"/>
<path d="M166.875 172.456C169.741 172.456 172.064 170.132 172.064 167.264C172.064 164.397 169.741 162.072 166.875 162.072C164.008 162.072 161.685 164.397 161.685 167.264C161.685 170.132 164.008 172.456 166.875 172.456Z" fill="black"/>
<path d="M183.185 172.456C186.051 172.456 188.374 170.132 188.374 167.264C188.374 164.397 186.051 162.072 183.185 162.072C180.319 162.072 177.995 164.397 177.995 167.264C177.995 170.132 180.319 172.456 183.185 172.456Z" fill="black"/>
<path d="M199.125 172.456C201.992 172.456 204.315 170.132 204.315 167.264C204.315 164.397 201.992 162.072 199.125 162.072C196.259 162.072 193.936 164.397 193.936 167.264C193.936 170.132 196.259 172.456 199.125 172.456Z" fill="black"/>
<path d="M215.435 172.456C218.302 172.456 220.625 170.132 220.625 167.264C220.625 164.397 218.302 162.072 215.435 162.072C212.569 162.072 210.246 164.397 210.246 167.264C210.246 170.132 212.569 172.456 215.435 172.456Z" fill="black"/>
<path d="M231.375 172.456C234.241 172.456 236.565 170.132 236.565 167.264C236.565 164.397 234.241 162.072 231.375 162.072C228.509 162.072 226.185 164.397 226.185 167.264C226.185 170.132 228.509 172.456 231.375 172.456Z" fill="black"/>
<path d="M21.5631 156.509C24.4294 156.509 26.7529 154.185 26.7529 151.317C26.7529 148.45 24.4294 146.125 21.5631 146.125C18.6969 146.125 16.3733 148.45 16.3733 151.317C16.3733 154.185 18.6969 156.509 21.5631 156.509Z" fill="black"/>
<path d="M37.874 156.509C40.7402 156.509 43.0637 154.185 43.0637 151.317C43.0637 148.45 40.7402 146.125 37.874 146.125C35.0078 146.125 32.6843 148.45 32.6843 151.317C32.6843 154.185 35.0078 156.509 37.874 156.509Z" fill="black"/>
<path d="M54.1842 156.509C57.0504 156.509 59.3739 154.185 59.3739 151.317C59.3739 148.45 57.0504 146.125 54.1842 146.125C51.3181 146.125 48.9946 148.45 48.9946 151.317C48.9946 154.185 51.3181 156.509 54.1842 156.509Z" fill="black"/>
<path d="M70.1233 156.509C72.9895 156.509 75.3131 154.185 75.3131 151.317C75.3131 148.45 72.9895 146.125 70.1233 146.125C67.2571 146.125 64.9336 148.45 64.9336 151.317C64.9336 154.185 67.2571 156.509 70.1233 156.509Z" fill="black"/>
<path d="M86.4342 156.509C89.3004 156.509 91.6239 154.185 91.6239 151.317C91.6239 148.45 89.3004 146.125 86.4342 146.125C83.568 146.125 81.2444 148.45 81.2444 151.317C81.2444 154.185 83.568 156.509 86.4342 156.509Z" fill="black"/>
<path d="M102.374 156.509C105.24 156.509 107.564 154.185 107.564 151.317C107.564 148.45 105.24 146.125 102.374 146.125C99.5078 146.125 97.1843 148.45 97.1843 151.317C97.1843 154.185 99.5078 156.509 102.374 156.509Z" fill="black"/>
<path d="M118.684 156.509C121.551 156.509 123.874 154.185 123.874 151.317C123.874 148.45 121.551 146.125 118.684 146.125C115.818 146.125 113.495 148.45 113.495 151.317C113.495 154.185 115.818 156.509 118.684 156.509Z" fill="black"/>
<path d="M134.624 156.509C137.49 156.509 139.814 154.185 139.814 151.317C139.814 148.45 137.49 146.125 134.624 146.125C131.758 146.125 129.434 148.45 129.434 151.317C129.434 154.185 131.758 156.509 134.624 156.509Z" fill="black"/>
<path d="M150.935 156.509C153.802 156.509 156.125 154.185 156.125 151.317C156.125 148.45 153.802 146.125 150.935 146.125C148.069 146.125 145.746 148.45 145.746 151.317C145.746 154.185 148.069 156.509 150.935 156.509Z" fill="black"/>
<path d="M166.875 156.509C169.741 156.509 172.064 154.185 172.064 151.317C172.064 148.45 169.741 146.125 166.875 146.125C164.008 146.125 161.685 148.45 161.685 151.317C161.685 154.185 164.008 156.509 166.875 156.509Z" fill="black"/>
<path d="M183.185 156.509C186.051 156.509 188.374 154.185 188.374 151.317C188.374 148.45 186.051 146.125 183.185 146.125C180.319 146.125 177.995 148.45 177.995 151.317C177.995 154.185 180.319 156.509 183.185 156.509Z" fill="black"/>
<path d="M199.125 156.509C201.992 156.509 204.315 154.185 204.315 151.317C204.315 148.45 201.992 146.125 199.125 146.125C196.259 146.125 193.936 148.45 193.936 151.317C193.936 154.185 196.259 156.509 199.125 156.509Z" fill="black"/>
<path d="M215.435 156.509C218.302 156.509 220.625 154.185 220.625 151.317C220.625 148.45 218.302 146.125 215.435 146.125C212.569 146.125 210.246 148.45 210.246 151.317C210.246 154.185 212.569 156.509 215.435 156.509Z" fill="black"/>
<path d="M5.62333 140.192C8.48955 140.192 10.8131 137.868 10.8131 135C10.8131 132.133 8.48955 129.808 5.62333 129.808C2.7571 129.808 0.433594 132.133 0.433594 135C0.433594 137.868 2.7571 140.192 5.62333 140.192Z" fill="black"/>
<path d="M21.5631 140.192C24.4294 140.192 26.7529 137.868 26.7529 135C26.7529 132.133 24.4294 129.808 21.5631 129.808C18.6969 129.808 16.3733 132.133 16.3733 135C16.3733 137.868 18.6969 140.192 21.5631 140.192Z" fill="black"/>
<path d="M37.874 140.192C40.7402 140.192 43.0637 137.868 43.0637 135C43.0637 132.133 40.7402 129.808 37.874 129.808C35.0078 129.808 32.6843 132.133 32.6843 135C32.6843 137.868 35.0078 140.192 37.874 140.192Z" fill="black"/>
<path d="M54.1842 140.192C57.0504 140.192 59.3739 137.868 59.3739 135C59.3739 132.133 57.0504 129.808 54.1842 129.808C51.3181 129.808 48.9946 132.133 48.9946 135C48.9946 137.868 51.3181 140.192 54.1842 140.192Z" fill="black"/>
<path d="M70.1233 140.192C72.9895 140.192 75.3131 137.868 75.3131 135C75.3131 132.133 72.9895 129.808 70.1233 129.808C67.2571 129.808 64.9336 132.133 64.9336 135C64.9336 137.868 67.2571 140.192 70.1233 140.192Z" fill="black"/>
<path d="M86.4342 140.192C89.3004 140.192 91.6239 137.868 91.6239 135C91.6239 132.133 89.3004 129.808 86.4342 129.808C83.568 129.808 81.2444 132.133 81.2444 135C81.2444 137.868 83.568 140.192 86.4342 140.192Z" fill="black"/>
<path d="M102.374 140.192C105.24 140.192 107.564 137.868 107.564 135C107.564 132.133 105.24 129.808 102.374 129.808C99.5078 129.808 97.1843 132.133 97.1843 135C97.1843 137.868 99.5078 140.192 102.374 140.192Z" fill="black"/>
<path d="M118.684 140.192C121.551 140.192 123.874 137.868 123.874 135C123.874 132.133 121.551 129.808 118.684 129.808C115.818 129.808 113.495 132.133 113.495 135C113.495 137.868 115.818 140.192 118.684 140.192Z" fill="black"/>
<path d="M134.624 140.192C137.49 140.192 139.814 137.868 139.814 135C139.814 132.133 137.49 129.808 134.624 129.808C131.758 129.808 129.434 132.133 129.434 135C129.434 137.868 131.758 140.192 134.624 140.192Z" fill="black"/>
<path d="M150.935 140.192C153.802 140.192 156.125 137.868 156.125 135C156.125 132.133 153.802 129.808 150.935 129.808C148.069 129.808 145.746 132.133 145.746 135C145.746 137.868 148.069 140.192 150.935 140.192Z" fill="black"/>
<path d="M166.875 140.192C169.741 140.192 172.064 137.868 172.064 135C172.064 132.133 169.741 129.808 166.875 129.808C164.008 129.808 161.685 132.133 161.685 135C161.685 137.868 164.008 140.192 166.875 140.192Z" fill="black"/>
<path d="M183.185 140.192C186.051 140.192 188.374 137.868 188.374 135C188.374 132.133 186.051 129.808 183.185 129.808C180.319 129.808 177.995 132.133 177.995 135C177.995 137.868 180.319 140.192 183.185 140.192Z" fill="black"/>
<path d="M199.125 140.192C201.992 140.192 204.315 137.868 204.315 135C204.315 132.133 201.992 129.808 199.125 129.808C196.259 129.808 193.936 132.133 193.936 135C193.936 137.868 196.259 140.192 199.125 140.192Z" fill="black"/>
<path d="M215.435 140.192C218.302 140.192 220.625 137.868 220.625 135C220.625 132.133 218.302 129.808 215.435 129.808C212.569 129.808 210.246 132.133 210.246 135C210.246 137.868 212.569 140.192 215.435 140.192Z" fill="black"/>
<path d="M21.5631 123.874C24.4294 123.874 26.7529 121.55 26.7529 118.682C26.7529 115.815 24.4294 113.49 21.5631 113.49C18.6969 113.49 16.3733 115.815 16.3733 118.682C16.3733 121.55 18.6969 123.874 21.5631 123.874Z" fill="black"/>
<path d="M37.874 123.874C40.7402 123.874 43.0637 121.55 43.0637 118.682C43.0637 115.815 40.7402 113.49 37.874 113.49C35.0078 113.49 32.6843 115.815 32.6843 118.682C32.6843 121.55 35.0078 123.874 37.874 123.874Z" fill="black"/>
<path d="M54.1842 123.874C57.0504 123.874 59.3739 121.55 59.3739 118.682C59.3739 115.815 57.0504 113.49 54.1842 113.49C51.3181 113.49 48.9946 115.815 48.9946 118.682C48.9946 121.55 51.3181 123.874 54.1842 123.874Z" fill="black"/>
<path d="M70.1233 123.874C72.9895 123.874 75.3131 121.55 75.3131 118.682C75.3131 115.815 72.9895 113.49 70.1233 113.49C67.2571 113.49 64.9336 115.815 64.9336 118.682C64.9336 121.55 67.2571 123.874 70.1233 123.874Z" fill="black"/>
<path d="M86.4342 123.874C89.3004 123.874 91.6239 121.55 91.6239 118.682C91.6239 115.815 89.3004 113.49 86.4342 113.49C83.568 113.49 81.2444 115.815 81.2444 118.682C81.2444 121.55 83.568 123.874 86.4342 123.874Z" fill="black"/>
<path d="M102.374 123.874C105.24 123.874 107.564 121.55 107.564 118.682C107.564 115.815 105.24 113.49 102.374 113.49C99.5078 113.49 97.1843 115.815 97.1843 118.682C97.1843 121.55 99.5078 123.874 102.374 123.874Z" fill="black"/>
<path d="M118.684 123.874C121.551 123.874 123.874 121.55 123.874 118.682C123.874 115.815 121.551 113.49 118.684 113.49C115.818 113.49 113.495 115.815 113.495 118.682C113.495 121.55 115.818 123.874 118.684 123.874Z" fill="black"/>
<path d="M134.624 123.874C137.49 123.874 139.814 121.55 139.814 118.682C139.814 115.815 137.49 113.49 134.624 113.49C131.758 113.49 129.434 115.815 129.434 118.682C129.434 121.55 131.758 123.874 134.624 123.874Z" fill="black"/>
<path d="M150.935 123.874C153.802 123.874 156.125 121.55 156.125 118.682C156.125 115.815 153.802 113.49 150.935 113.49C148.069 113.49 145.746 115.815 145.746 118.682C145.746 121.55 148.069 123.874 150.935 123.874Z" fill="black"/>
<path d="M166.875 123.874C169.741 123.874 172.064 121.55 172.064 118.682C172.064 115.815 169.741 113.49 166.875 113.49C164.008 113.49 161.685 115.815 161.685 118.682C161.685 121.55 164.008 123.874 166.875 123.874Z" fill="black"/>
<path d="M183.185 123.874C186.051 123.874 188.374 121.55 188.374 118.682C188.374 115.815 186.051 113.49 183.185 113.49C180.319 113.49 177.995 115.815 177.995 118.682C177.995 121.55 180.319 123.874 183.185 123.874Z" fill="black"/>
<path d="M199.125 123.874C201.992 123.874 204.315 121.55 204.315 118.682C204.315 115.815 201.992 113.49 199.125 113.49C196.259 113.49 193.936 115.815 193.936 118.682C193.936 121.55 196.259 123.874 199.125 123.874Z" fill="black"/>
<path d="M215.435 123.874C218.302 123.874 220.625 121.55 220.625 118.682C220.625 115.815 218.302 113.49 215.435 113.49C212.569 113.49 210.246 115.815 210.246 118.682C210.246 121.55 212.569 123.874 215.435 123.874Z" fill="black"/>
<path d="M21.5631 107.927C24.4294 107.927 26.7529 105.603 26.7529 102.736C26.7529 99.8682 24.4294 97.5437 21.5631 97.5437C18.6969 97.5437 16.3733 99.8682 16.3733 102.736C16.3733 105.603 18.6969 107.927 21.5631 107.927Z" fill="black"/>
<path d="M37.874 107.927C40.7402 107.927 43.0637 105.603 43.0637 102.736C43.0637 99.8682 40.7402 97.5437 37.874 97.5437C35.0078 97.5437 32.6843 99.8682 32.6843 102.736C32.6843 105.603 35.0078 107.927 37.874 107.927Z" fill="black"/>
<path d="M54.1842 107.927C57.0504 107.927 59.3739 105.603 59.3739 102.736C59.3739 99.8682 57.0504 97.5437 54.1842 97.5437C51.3181 97.5437 48.9946 99.8682 48.9946 102.736C48.9946 105.603 51.3181 107.927 54.1842 107.927Z" fill="black"/>
<path d="M70.1233 107.927C72.9895 107.927 75.3131 105.603 75.3131 102.736C75.3131 99.8682 72.9895 97.5437 70.1233 97.5437C67.2571 97.5437 64.9336 99.8682 64.9336 102.736C64.9336 105.603 67.2571 107.927 70.1233 107.927Z" fill="black"/>
<path d="M86.4342 107.927C89.3004 107.927 91.6239 105.603 91.6239 102.736C91.6239 99.8682 89.3004 97.5437 86.4342 97.5437C83.568 97.5437 81.2444 99.8682 81.2444 102.736C81.2444 105.603 83.568 107.927 86.4342 107.927Z" fill="black"/>
<path d="M102.374 107.927C105.24 107.927 107.564 105.603 107.564 102.736C107.564 99.8682 105.24 97.5437 102.374 97.5437C99.5078 97.5437 97.1843 99.8682 97.1843 102.736C97.1843 105.603 99.5078 107.927 102.374 107.927Z" fill="black"/>
<path d="M118.684 107.927C121.551 107.927 123.874 105.603 123.874 102.736C123.874 99.8682 121.551 97.5437 118.684 97.5437C115.818 97.5437 113.495 99.8682 113.495 102.736C113.495 105.603 115.818 107.927 118.684 107.927Z" fill="black"/>
<path d="M134.624 107.927C137.49 107.927 139.814 105.603 139.814 102.736C139.814 99.8682 137.49 97.5437 134.624 97.5437C131.758 97.5437 129.434 99.8682 129.434 102.736C129.434 105.603 131.758 107.927 134.624 107.927Z" fill="black"/>
<path d="M150.935 107.927C153.802 107.927 156.125 105.603 156.125 102.736C156.125 99.8682 153.802 97.5437 150.935 97.5437C148.069 97.5437 145.746 99.8682 145.746 102.736C145.746 105.603 148.069 107.927 150.935 107.927Z" fill="black"/>
<path d="M166.875 107.927C169.741 107.927 172.064 105.603 172.064 102.736C172.064 99.8682 169.741 97.5437 166.875 97.5437C164.008 97.5437 161.685 99.8682 161.685 102.736C161.685 105.603 164.008 107.927 166.875 107.927Z" fill="black"/>
<path d="M183.185 107.927C186.051 107.927 188.374 105.603 188.374 102.736C188.374 99.8682 186.051 97.5437 183.185 97.5437C180.319 97.5437 177.995 99.8682 177.995 102.736C177.995 105.603 180.319 107.927 183.185 107.927Z" fill="black"/>
<path d="M199.125 107.927C201.992 107.927 204.315 105.603 204.315 102.736C204.315 99.8682 201.992 97.5437 199.125 97.5437C196.259 97.5437 193.936 99.8682 193.936 102.736C193.936 105.603 196.259 107.927 199.125 107.927Z" fill="black"/>
<path d="M54.1842 91.6099C57.0504 91.6099 59.3739 89.2854 59.3739 86.418C59.3739 83.5506 57.0504 81.2262 54.1842 81.2262C51.3181 81.2262 48.9946 83.5506 48.9946 86.418C48.9946 89.2854 51.3181 91.6099 54.1842 91.6099Z" fill="black"/>
<path d="M70.1233 91.6099C72.9895 91.6099 75.3131 89.2854 75.3131 86.418C75.3131 83.5506 72.9895 81.2262 70.1233 81.2262C67.2571 81.2262 64.9336 83.5506 64.9336 86.418C64.9336 89.2854 67.2571 91.6099 70.1233 91.6099Z" fill="black"/>
<path d="M86.4342 91.6099C89.3004 91.6099 91.6239 89.2854 91.6239 86.418C91.6239 83.5506 89.3004 81.2262 86.4342 81.2262C83.568 81.2262 81.2444 83.5506 81.2444 86.418C81.2444 89.2854 83.568 91.6099 86.4342 91.6099Z" fill="black"/>
<path d="M102.374 91.6099C105.24 91.6099 107.564 89.2854 107.564 86.418C107.564 83.5506 105.24 81.2262 102.374 81.2262C99.5078 81.2262 97.1843 83.5506 97.1843 86.418C97.1843 89.2854 99.5078 91.6099 102.374 91.6099Z" fill="black"/>
<path d="M118.684 91.6099C121.551 91.6099 123.874 89.2854 123.874 86.418C123.874 83.5506 121.551 81.2262 118.684 81.2262C115.818 81.2262 113.495 83.5506 113.495 86.418C113.495 89.2854 115.818 91.6099 118.684 91.6099Z" fill="black"/>
<path d="M134.624 91.6099C137.49 91.6099 139.814 89.2855 139.814 86.4181C139.814 83.5507 137.49 81.2263 134.624 81.2263C131.758 81.2263 129.434 83.5507 129.434 86.4181C129.434 89.2855 131.758 91.6099 134.624 91.6099Z" fill="black"/>
<path d="M150.935 91.6099C153.802 91.6099 156.125 89.2855 156.125 86.4181C156.125 83.5507 153.802 81.2263 150.935 81.2263C148.069 81.2263 145.746 83.5507 145.746 86.4181C145.746 89.2855 148.069 91.6099 150.935 91.6099Z" fill="black"/>
<path d="M166.875 91.6099C169.741 91.6099 172.064 89.2855 172.064 86.4181C172.064 83.5507 169.741 81.2263 166.875 81.2263C164.008 81.2263 161.685 83.5507 161.685 86.4181C161.685 89.2855 164.008 91.6099 166.875 91.6099Z" fill="black"/>
<path d="M183.185 91.6099C186.051 91.6099 188.374 89.2855 188.374 86.4181C188.374 83.5507 186.051 81.2263 183.185 81.2263C180.319 81.2263 177.995 83.5507 177.995 86.4181C177.995 89.2855 180.319 91.6099 183.185 91.6099Z" fill="black"/>
<path d="M70.1233 75.6632C72.9895 75.6632 75.3131 73.3387 75.3131 70.4713C75.3131 67.6039 72.9895 65.2793 70.1233 65.2793C67.2571 65.2793 64.9336 67.6039 64.9336 70.4713C64.9336 73.3387 67.2571 75.6632 70.1233 75.6632Z" fill="black"/>
<path d="M86.4342 75.6632C89.3004 75.6632 91.6239 73.3387 91.6239 70.4713C91.6239 67.6039 89.3004 65.2793 86.4342 65.2793C83.568 65.2793 81.2444 67.6039 81.2444 70.4713C81.2444 73.3387 83.568 75.6632 86.4342 75.6632Z" fill="black"/>
<path d="M102.374 75.6632C105.24 75.6632 107.564 73.3387 107.564 70.4713C107.564 67.6039 105.24 65.2793 102.374 65.2793C99.5078 65.2793 97.1843 67.6039 97.1843 70.4713C97.1843 73.3387 99.5078 75.6632 102.374 75.6632Z" fill="black"/>
<path d="M118.684 75.6632C121.551 75.6632 123.874 73.3387 123.874 70.4713C123.874 67.6039 121.551 65.2793 118.684 65.2793C115.818 65.2793 113.495 67.6039 113.495 70.4713C113.495 73.3387 115.818 75.6632 118.684 75.6632Z" fill="black"/>
<path d="M134.624 75.6632C137.49 75.6632 139.814 73.3387 139.814 70.4713C139.814 67.6039 137.49 65.2793 134.624 65.2793C131.758 65.2793 129.434 67.6039 129.434 70.4713C129.434 73.3387 131.758 75.6632 134.624 75.6632Z" fill="black"/>
<path d="M166.875 75.6632C169.741 75.6632 172.064 73.3387 172.064 70.4713C172.064 67.6039 169.741 65.2793 166.875 65.2793C164.008 65.2793 161.685 67.6039 161.685 70.4713C161.685 73.3387 164.008 75.6632 166.875 75.6632Z" fill="black"/>
<path d="M183.185 75.6632C186.051 75.6632 188.374 73.3387 188.374 70.4713C188.374 67.6039 186.051 65.2793 183.185 65.2793C180.319 65.2793 177.995 67.6039 177.995 70.4713C177.995 73.3387 180.319 75.6632 183.185 75.6632Z" fill="black"/>
<path d="M102.374 59.346C105.24 59.346 107.564 57.0213 107.564 54.1539C107.564 51.2864 105.24 48.9619 102.374 48.9619C99.5078 48.9619 97.1843 51.2864 97.1843 54.1539C97.1843 57.0213 99.5078 59.346 102.374 59.346Z" fill="black"/>
<path d="M118.684 59.346C121.551 59.346 123.874 57.0213 123.874 54.1539C123.874 51.2864 121.551 48.9619 118.684 48.9619C115.818 48.9619 113.495 51.2864 113.495 54.1539C113.495 57.0213 115.818 59.346 118.684 59.346Z" fill="black"/>
<path d="M134.624 59.346C137.49 59.346 139.814 57.0214 139.814 54.1539C139.814 51.2864 137.49 48.9619 134.624 48.9619C131.758 48.9619 129.434 51.2864 129.434 54.1539C129.434 57.0214 131.758 59.346 134.624 59.346Z" fill="black"/>
<path d="M166.875 59.346C169.741 59.346 172.064 57.0214 172.064 54.1539C172.064 51.2864 169.741 48.9619 166.875 48.9619C164.008 48.9619 161.685 51.2864 161.685 54.1539C161.685 57.0214 164.008 59.346 166.875 59.346Z" fill="black"/>
<path d="M199.125 43.3986C201.992 43.3986 204.315 41.0741 204.315 38.2067C204.315 35.3392 201.992 33.0147 199.125 33.0147C196.259 33.0147 193.936 35.3392 193.936 38.2067C193.936 41.0741 196.259 43.3986 199.125 43.3986Z" fill="black"/>
<path d="M215.435 43.3986C218.302 43.3986 220.625 41.0741 220.625 38.2067C220.625 35.3392 218.302 33.0147 215.435 33.0147C212.569 33.0147 210.246 35.3392 210.246 38.2067C210.246 41.0741 212.569 43.3986 215.435 43.3986Z" fill="black"/>
<path d="M183.185 27.0815C186.051 27.0815 188.374 24.757 188.374 21.8896C188.374 19.0221 186.051 16.6976 183.185 16.6976C180.319 16.6976 177.995 19.0221 177.995 21.8896C177.995 24.757 180.319 27.0815 183.185 27.0815Z" fill="black"/>
<path d="M183.185 11.1349C186.051 11.1349 188.374 8.81028 188.374 5.94287C188.374 3.07545 186.051 0.750977 183.185 0.750977C180.319 0.750977 177.995 3.07545 177.995 5.94287C177.995 8.81028 180.319 11.1349 183.185 11.1349Z" fill="black"/>
<path d="M215.435 11.1349C218.302 11.1349 220.625 8.81028 220.625 5.94287C220.625 3.07545 218.302 0.750977 215.435 0.750977C212.569 0.750977 210.246 3.07545 210.246 5.94287C210.246 8.81028 212.569 11.1349 215.435 11.1349Z" fill="black"/>
</svg>
