<svg width="370" height="490" viewBox="0 0 370 490" fill="none" xmlns="http://www.w3.org/2000/svg">
<path d="M5.03781 475.931C7.41435 475.931 9.3409 474.004 9.3409 471.626C9.3409 469.249 7.41435 467.321 5.03781 467.321C2.66126 467.321 0.734619 469.249 0.734619 471.626C0.734619 474.004 2.66126 475.931 5.03781 475.931Z" fill="#FFD700"/>
<path d="M18.5616 475.931C20.9382 475.931 22.8647 474.004 22.8647 471.626C22.8647 469.249 20.9382 467.321 18.5616 467.321C16.1851 467.321 14.2585 469.249 14.2585 471.626C14.2585 474.004 16.1851 475.931 18.5616 475.931Z" fill="#FFD700"/>
<path d="M31.7786 475.931C34.1552 475.931 36.0817 474.004 36.0817 471.626C36.0817 469.249 34.1552 467.321 31.7786 467.321C29.4021 467.321 27.4755 469.249 27.4755 471.626C27.4755 474.004 29.4021 475.931 31.7786 475.931Z" fill="#FFD700"/>
<path d="M5.03781 462.709C7.41435 462.709 9.3409 460.781 9.3409 458.404C9.3409 456.026 7.41435 454.099 5.03781 454.099C2.66126 454.099 0.734619 456.026 0.734619 458.404C0.734619 460.781 2.66126 462.709 5.03781 462.709Z" fill="#FFD700"/>
<path d="M18.5616 462.709C20.9382 462.709 22.8647 460.781 22.8647 458.404C22.8647 456.026 20.9382 454.099 18.5616 454.099C16.1851 454.099 14.2585 456.026 14.2585 458.404C14.2585 460.781 16.1851 462.709 18.5616 462.709Z" fill="#FFD700"/>
<path d="M31.7786 462.709C34.1552 462.709 36.0817 460.781 36.0817 458.404C36.0817 456.026 34.1552 454.099 31.7786 454.099C29.4021 454.099 27.4755 456.026 27.4755 458.404C27.4755 460.781 29.4021 462.709 31.7786 462.709Z" fill="#FFD700"/>
<path d="M45.3025 462.709C47.6791 462.709 49.6057 460.781 49.6057 458.404C49.6057 456.026 47.6791 454.099 45.3025 454.099C42.926 454.099 40.9995 456.026 40.9995 458.404C40.9995 460.781 42.926 462.709 45.3025 462.709Z" fill="#FFD700"/>
<path d="M85.2599 462.709C87.6365 462.709 89.5631 460.781 89.5631 458.404C89.5631 456.026 87.6365 454.099 85.2599 454.099C82.8834 454.099 80.9568 456.026 80.9568 458.404C80.9568 460.781 82.8834 462.709 85.2599 462.709Z" fill="#FFD700"/>
<path d="M5.03781 449.179C7.41435 449.179 9.3409 447.251 9.3409 444.874C9.3409 442.496 7.41435 440.569 5.03781 440.569C2.66126 440.569 0.734619 442.496 0.734619 444.874C0.734619 447.251 2.66126 449.179 5.03781 449.179Z" fill="#FFD700"/>
<path d="M18.5616 449.179C20.9382 449.179 22.8647 447.251 22.8647 444.874C22.8647 442.496 20.9382 440.569 18.5616 440.569C16.1851 440.569 14.2585 442.496 14.2585 444.874C14.2585 447.251 16.1851 449.179 18.5616 449.179Z" fill="#FFD700"/>
<path d="M31.7786 449.179C34.1552 449.179 36.0817 447.251 36.0817 444.874C36.0817 442.496 34.1552 440.569 31.7786 440.569C29.4021 440.569 27.4755 442.496 27.4755 444.874C27.4755 447.251 29.4021 449.179 31.7786 449.179Z" fill="#FFD700"/>
<path d="M45.3025 449.179C47.6791 449.179 49.6057 447.251 49.6057 444.874C49.6057 442.496 47.6791 440.569 45.3025 440.569C42.926 440.569 40.9995 442.496 40.9995 444.874C40.9995 447.251 42.926 449.179 45.3025 449.179Z" fill="#FFD700"/>
<path d="M58.519 449.179C60.8956 449.179 62.8221 447.251 62.8221 444.874C62.8221 442.496 60.8956 440.569 58.519 440.569C56.1425 440.569 54.2159 442.496 54.2159 444.874C54.2159 447.251 56.1425 449.179 58.519 449.179Z" fill="#FFD700"/>
<path d="M72.043 449.179C74.4196 449.179 76.3461 447.251 76.3461 444.874C76.3461 442.496 74.4196 440.569 72.043 440.569C69.6665 440.569 67.74 442.496 67.74 444.874C67.74 447.251 69.6665 449.179 72.043 449.179Z" fill="#FFD700"/>
<path d="M45.3025 435.957C47.6791 435.957 49.6057 434.029 49.6057 431.652C49.6057 429.274 47.6791 427.347 45.3025 427.347C42.926 427.347 40.9995 429.274 40.9995 431.652C40.9995 434.029 42.926 435.957 45.3025 435.957Z" fill="#FFD700"/>
<path d="M58.519 435.957C60.8956 435.957 62.8221 434.029 62.8221 431.652C62.8221 429.274 60.8956 427.347 58.519 427.347C56.1425 427.347 54.2159 429.274 54.2159 431.652C54.2159 434.029 56.1425 435.957 58.519 435.957Z" fill="#FFD700"/>
<path d="M72.043 435.957C74.4196 435.957 76.3461 434.029 76.3461 431.652C76.3461 429.274 74.4196 427.347 72.043 427.347C69.6665 427.347 67.74 429.274 67.74 431.652C67.74 434.029 69.6665 435.957 72.043 435.957Z" fill="#FFD700"/>
<path d="M85.2599 435.957C87.6365 435.957 89.5631 434.029 89.5631 431.652C89.5631 429.274 87.6365 427.347 85.2599 427.347C82.8834 427.347 80.9568 429.274 80.9568 431.652C80.9568 434.029 82.8834 435.957 85.2599 435.957Z" fill="#FFD700"/>
<path d="M31.7786 422.426C34.1552 422.426 36.0817 420.499 36.0817 418.121C36.0817 415.744 34.1552 413.816 31.7786 413.816C29.4021 413.816 27.4755 415.744 27.4755 418.121C27.4755 420.499 29.4021 422.426 31.7786 422.426Z" fill="#FFD700"/>
<path d="M45.3025 422.426C47.6791 422.426 49.6057 420.499 49.6057 418.121C49.6057 415.744 47.6791 413.816 45.3025 413.816C42.926 413.816 40.9995 415.744 40.9995 418.121C40.9995 420.499 42.926 422.426 45.3025 422.426Z" fill="#FFD700"/>
<path d="M58.519 422.426C60.8956 422.426 62.8221 420.499 62.8221 418.121C62.8221 415.744 60.8956 413.816 58.519 413.816C56.1425 413.816 54.2159 415.744 54.2159 418.121C54.2159 420.499 56.1425 422.426 58.519 422.426Z" fill="#FFD700"/>
<path d="M72.043 422.426C74.4196 422.426 76.3461 420.499 76.3461 418.121C76.3461 415.744 74.4196 413.816 72.043 413.816C69.6665 413.816 67.74 415.744 67.74 418.121C67.74 420.499 69.6665 422.426 72.043 422.426Z" fill="#FFD700"/>
<path d="M85.2599 422.426C87.6365 422.426 89.5631 420.499 89.5631 418.121C89.5631 415.744 87.6365 413.816 85.2599 413.816C82.8834 413.816 80.9568 415.744 80.9568 418.121C80.9568 420.499 82.8834 422.426 85.2599 422.426Z" fill="#FFD700"/>
<path d="M45.3025 409.204C47.6791 409.204 49.6057 407.277 49.6057 404.899C49.6057 402.522 47.6791 400.594 45.3025 400.594C42.926 400.594 40.9995 402.522 40.9995 404.899C40.9995 407.277 42.926 409.204 45.3025 409.204Z" fill="#FFD700"/>
<path d="M58.519 409.204C60.8956 409.204 62.8221 407.277 62.8221 404.899C62.8221 402.522 60.8956 400.594 58.519 400.594C56.1425 400.594 54.2159 402.522 54.2159 404.899C54.2159 407.277 56.1425 409.204 58.519 409.204Z" fill="#FFD700"/>
<path d="M72.043 409.204C74.4196 409.204 76.3461 407.277 76.3461 404.899C76.3461 402.522 74.4196 400.594 72.043 400.594C69.6665 400.594 67.74 402.522 67.74 404.899C67.74 407.277 69.6665 409.204 72.043 409.204Z" fill="#FFD700"/>
<path d="M85.2599 409.204C87.6365 409.204 89.5631 407.277 89.5631 404.899C89.5631 402.522 87.6365 400.594 85.2599 400.594C82.8834 400.594 80.9568 402.522 80.9568 404.899C80.9568 407.277 82.8834 409.204 85.2599 409.204Z" fill="#FFD700"/>
<path d="M5.03781 395.674C7.41435 395.674 9.3409 393.746 9.3409 391.369C9.3409 388.991 7.41435 387.064 5.03781 387.064C2.66126 387.064 0.734619 388.991 0.734619 391.369C0.734619 393.746 2.66126 395.674 5.03781 395.674Z" fill="#FFD700"/>
<path d="M31.7786 395.674C34.1552 395.674 36.0817 393.746 36.0817 391.369C36.0817 388.991 34.1552 387.064 31.7786 387.064C29.4021 387.064 27.4755 388.991 27.4755 391.369C27.4755 393.746 29.4021 395.674 31.7786 395.674Z" fill="#FFD700"/>
<path d="M58.519 395.674C60.8956 395.674 62.8221 393.746 62.8221 391.369C62.8221 388.991 60.8956 387.064 58.519 387.064C56.1425 387.064 54.2159 388.991 54.2159 391.369C54.2159 393.746 56.1425 395.674 58.519 395.674Z" fill="#FFD700"/>
<path d="M72.043 395.674C74.4196 395.674 76.3461 393.746 76.3461 391.369C76.3461 388.991 74.4196 387.064 72.043 387.064C69.6665 387.064 67.74 388.991 67.74 391.369C67.74 393.746 69.6665 395.674 72.043 395.674Z" fill="#FFD700"/>
<path d="M85.2599 395.674C87.6365 395.674 89.5631 393.746 89.5631 391.369C89.5631 388.991 87.6365 387.064 85.2599 387.064C82.8834 387.064 80.9568 388.991 80.9568 391.369C80.9568 393.746 82.8834 395.674 85.2599 395.674Z" fill="#FFD700"/>
<path d="M5.03781 383.682C7.41435 383.682 9.3409 381.754 9.3409 379.377C9.3409 376.999 7.41435 375.072 5.03781 375.072C2.66126 375.072 0.734619 376.999 0.734619 379.377C0.734619 381.754 2.66126 383.682 5.03781 383.682Z" fill="#FFD700"/>
<path d="M18.5616 383.682C20.9382 383.682 22.8647 381.754 22.8647 379.377C22.8647 376.999 20.9382 375.072 18.5616 375.072C16.1851 375.072 14.2585 376.999 14.2585 379.377C14.2585 381.754 16.1851 383.682 18.5616 383.682Z" fill="#FFD700"/>
<path d="M31.7786 383.682C34.1552 383.682 36.0817 381.754 36.0817 379.377C36.0817 376.999 34.1552 375.072 31.7786 375.072C29.4021 375.072 27.4755 376.999 27.4755 379.377C27.4755 381.754 29.4021 383.682 31.7786 383.682Z" fill="#FFD700"/>
<path d="M45.3025 383.682C47.6791 383.682 49.6057 381.754 49.6057 379.377C49.6057 376.999 47.6791 375.072 45.3025 375.072C42.926 375.072 40.9995 376.999 40.9995 379.377C40.9995 381.754 42.926 383.682 45.3025 383.682Z" fill="#FFD700"/>
<path d="M72.043 383.682C74.4196 383.682 76.3461 381.754 76.3461 379.377C76.3461 376.999 74.4196 375.072 72.043 375.072C69.6665 375.072 67.74 376.999 67.74 379.377C67.74 381.754 69.6665 383.682 72.043 383.682Z" fill="#FFD700"/>
<path d="M85.2599 383.682C87.6365 383.682 89.5631 381.754 89.5631 379.377C89.5631 376.999 87.6365 375.072 85.2599 375.072C82.8834 375.072 80.9568 376.999 80.9568 379.377C80.9568 381.754 82.8834 383.682 85.2599 383.682Z" fill="#FFD700"/>
<path d="M5.03781 370.459C7.41435 370.459 9.3409 368.532 9.3409 366.154C9.3409 363.777 7.41435 361.849 5.03781 361.849C2.66126 361.849 0.734619 363.777 0.734619 366.154C0.734619 368.532 2.66126 370.459 5.03781 370.459Z" fill="#FFD700"/>
<path d="M18.5616 370.459C20.9382 370.459 22.8647 368.532 22.8647 366.154C22.8647 363.777 20.9382 361.849 18.5616 361.849C16.1851 361.849 14.2585 363.777 14.2585 366.154C14.2585 368.532 16.1851 370.459 18.5616 370.459Z" fill="#FFD700"/>
<path d="M31.7786 370.459C34.1552 370.459 36.0817 368.532 36.0817 366.154C36.0817 363.777 34.1552 361.849 31.7786 361.849C29.4021 361.849 27.4755 363.777 27.4755 366.154C27.4755 368.532 29.4021 370.459 31.7786 370.459Z" fill="#FFD700"/>
<path d="M85.2599 370.459C87.6365 370.459 89.5631 368.532 89.5631 366.154C89.5631 363.777 87.6365 361.849 85.2599 361.849C82.8834 361.849 80.9568 363.777 80.9568 366.154C80.9568 368.532 82.8834 370.459 85.2599 370.459Z" fill="#FFD700"/>
<path d="M18.5616 356.93C20.9382 356.93 22.8647 355.002 22.8647 352.625C22.8647 350.247 20.9382 348.32 18.5616 348.32C16.1851 348.32 14.2585 350.247 14.2585 352.625C14.2585 355.002 16.1851 356.93 18.5616 356.93Z" fill="#FFD700"/>
<path d="M31.7786 356.93C34.1552 356.93 36.0817 355.002 36.0817 352.625C36.0817 350.247 34.1552 348.32 31.7786 348.32C29.4021 348.32 27.4755 350.247 27.4755 352.625C27.4755 355.002 29.4021 356.93 31.7786 356.93Z" fill="#FFD700"/>
<path d="M85.2599 356.93C87.6365 356.93 89.5631 355.002 89.5631 352.625C89.5631 350.247 87.6365 348.32 85.2599 348.32C82.8834 348.32 80.9568 350.247 80.9568 352.625C80.9568 355.002 82.8834 356.93 85.2599 356.93Z" fill="#FFD700"/>
<path d="M18.5616 343.707C20.9382 343.707 22.8647 341.78 22.8647 339.402C22.8647 337.024 20.9382 335.097 18.5616 335.097C16.1851 335.097 14.2585 337.024 14.2585 339.402C14.2585 341.78 16.1851 343.707 18.5616 343.707Z" fill="#FFD700"/>
<path d="M31.7786 343.707C34.1552 343.707 36.0817 341.78 36.0817 339.402C36.0817 337.024 34.1552 335.097 31.7786 335.097C29.4021 335.097 27.4755 337.024 27.4755 339.402C27.4755 341.78 29.4021 343.707 31.7786 343.707Z" fill="#FFD700"/>
<path d="M72.043 330.177C74.4196 330.177 76.3461 328.249 76.3461 325.872C76.3461 323.494 74.4196 321.567 72.043 321.567C69.6665 321.567 67.74 323.494 67.74 325.872C67.74 328.249 69.6665 330.177 72.043 330.177Z" fill="#FFD700"/>
<path d="M85.2599 330.177C87.6365 330.177 89.5631 328.249 89.5631 325.872C89.5631 323.494 87.6365 321.567 85.2599 321.567C82.8834 321.567 80.9568 323.494 80.9568 325.872C80.9568 328.249 82.8834 330.177 85.2599 330.177Z" fill="#FFD700"/>
<path d="M72.043 316.955C74.4196 316.955 76.3461 315.027 76.3461 312.65C76.3461 310.272 74.4196 308.345 72.043 308.345C69.6665 308.345 67.74 310.272 67.74 312.65C67.74 315.027 69.6665 316.955 72.043 316.955Z" fill="#FFD700"/>
<path d="M85.2599 316.955C87.6365 316.955 89.5631 315.027 89.5631 312.65C89.5631 310.272 87.6365 308.345 85.2599 308.345C82.8834 308.345 80.9568 310.272 80.9568 312.65C80.9568 315.027 82.8834 316.955 85.2599 316.955Z" fill="#FFD700"/>
<path d="M72.043 303.425C74.4196 303.425 76.3461 301.497 76.3461 299.12C76.3461 296.742 74.4196 294.815 72.043 294.815C69.6665 294.815 67.74 296.742 67.74 299.12C67.74 301.497 69.6665 303.425 72.043 303.425Z" fill="#FFD700"/>
<path d="M85.2599 303.425C87.6365 303.425 89.5631 301.497 89.5631 299.12C89.5631 296.742 87.6365 294.815 85.2599 294.815C82.8834 294.815 80.9568 296.742 80.9568 299.12C80.9568 301.497 82.8834 303.425 85.2599 303.425Z" fill="#FFD700"/>
<path d="M85.2599 290.202C87.6365 290.202 89.5631 288.275 89.5631 285.897C89.5631 283.519 87.6365 281.592 85.2599 281.592C82.8834 281.592 80.9568 283.519 80.9568 285.897C80.9568 288.275 82.8834 290.202 85.2599 290.202Z" fill="#FFD700"/>
<path d="M110.464 489.461C112.84 489.461 114.767 487.534 114.767 485.156C114.767 482.779 112.84 480.851 110.464 480.851C108.087 480.851 106.161 482.779 106.161 485.156C106.161 487.534 108.087 489.461 110.464 489.461Z" fill="#FFD700"/>
<path d="M150.729 489.461C153.105 489.461 155.032 487.534 155.032 485.156C155.032 482.779 153.105 480.851 150.729 480.851C148.352 480.851 146.425 482.779 146.425 485.156C146.425 487.534 148.352 489.461 150.729 489.461Z" fill="#FFD700"/>
<path d="M150.729 476.239C153.105 476.239 155.032 474.311 155.032 471.934C155.032 469.556 153.105 467.629 150.729 467.629C148.352 467.629 146.425 469.556 146.425 471.934C146.425 474.311 148.352 476.239 150.729 476.239Z" fill="#FFD700"/>
<path d="M110.464 462.709C112.84 462.709 114.767 460.781 114.767 458.404C114.767 456.026 112.84 454.099 110.464 454.099C108.087 454.099 106.161 456.026 106.161 458.404C106.161 460.781 108.087 462.709 110.464 462.709Z" fill="#FFD700"/>
<path d="M137.512 462.709C139.889 462.709 141.815 460.781 141.815 458.404C141.815 456.026 139.889 454.099 137.512 454.099C135.136 454.099 133.209 456.026 133.209 458.404C133.209 460.781 135.136 462.709 137.512 462.709Z" fill="#FFD700"/>
<path d="M150.729 462.709C153.105 462.709 155.032 460.781 155.032 458.404C155.032 456.026 153.105 454.099 150.729 454.099C148.352 454.099 146.425 456.026 146.425 458.404C146.425 460.781 148.352 462.709 150.729 462.709Z" fill="#FFD700"/>
<path d="M163.946 462.709C166.322 462.709 168.249 460.781 168.249 458.404C168.249 456.026 166.322 454.099 163.946 454.099C161.569 454.099 159.643 456.026 159.643 458.404C159.643 460.781 161.569 462.709 163.946 462.709Z" fill="#FFD700"/>
<path d="M97.2473 449.486C99.6239 449.486 101.55 447.559 101.55 445.181C101.55 442.804 99.6239 440.876 97.2473 440.876C94.8708 440.876 92.9441 442.804 92.9441 445.181C92.9441 447.559 94.8708 449.486 97.2473 449.486Z" fill="#FFD700"/>
<path d="M123.988 449.486C126.365 449.486 128.291 447.559 128.291 445.181C128.291 442.804 126.365 440.876 123.988 440.876C121.611 440.876 119.685 442.804 119.685 445.181C119.685 447.559 121.611 449.486 123.988 449.486Z" fill="#FFD700"/>
<path d="M137.512 449.486C139.889 449.486 141.815 447.559 141.815 445.181C141.815 442.804 139.889 440.876 137.512 440.876C135.136 440.876 133.209 442.804 133.209 445.181C133.209 447.559 135.136 449.486 137.512 449.486Z" fill="#FFD700"/>
<path d="M150.729 449.486C153.105 449.486 155.032 447.559 155.032 445.181C155.032 442.804 153.105 440.876 150.729 440.876C148.352 440.876 146.425 442.804 146.425 445.181C146.425 447.559 148.352 449.486 150.729 449.486Z" fill="#FFD700"/>
<path d="M163.946 449.486C166.322 449.486 168.249 447.559 168.249 445.181C168.249 442.804 166.322 440.876 163.946 440.876C161.569 440.876 159.643 442.804 159.643 445.181C159.643 447.559 161.569 449.486 163.946 449.486Z" fill="#FFD700"/>
<path d="M244.475 449.486C246.851 449.486 248.778 447.559 248.778 445.181C248.778 442.804 246.851 440.876 244.475 440.876C242.098 440.876 240.172 442.804 240.172 445.181C240.172 447.559 242.098 449.486 244.475 449.486Z" fill="#FFD700"/>
<path d="M257.692 449.486C260.069 449.486 261.995 447.559 261.995 445.181C261.995 442.804 260.069 440.876 257.692 440.876C255.315 440.876 253.389 442.804 253.389 445.181C253.389 447.559 255.315 449.486 257.692 449.486Z" fill="#FFD700"/>
<path d="M97.2473 435.957C99.6239 435.957 101.55 434.029 101.55 431.652C101.55 429.274 99.6239 427.347 97.2473 427.347C94.8708 427.347 92.9441 429.274 92.9441 431.652C92.9441 434.029 94.8708 435.957 97.2473 435.957Z" fill="#FFD700"/>
<path d="M110.464 435.957C112.84 435.957 114.767 434.029 114.767 431.652C114.767 429.274 112.84 427.347 110.464 427.347C108.087 427.347 106.161 429.274 106.161 431.652C106.161 434.029 108.087 435.957 110.464 435.957Z" fill="#FFD700"/>
<path d="M123.988 435.957C126.365 435.957 128.291 434.029 128.291 431.652C128.291 429.274 126.365 427.347 123.988 427.347C121.611 427.347 119.685 429.274 119.685 431.652C119.685 434.029 121.611 435.957 123.988 435.957Z" fill="#FFD700"/>
<path d="M137.512 435.957C139.889 435.957 141.815 434.029 141.815 431.652C141.815 429.274 139.889 427.347 137.512 427.347C135.136 427.347 133.209 429.274 133.209 431.652C133.209 434.029 135.136 435.957 137.512 435.957Z" fill="#FFD700"/>
<path d="M150.729 435.957C153.105 435.957 155.032 434.029 155.032 431.652C155.032 429.274 153.105 427.347 150.729 427.347C148.352 427.347 146.425 429.274 146.425 431.652C146.425 434.029 148.352 435.957 150.729 435.957Z" fill="#FFD700"/>
<path d="M163.946 435.957C166.322 435.957 168.249 434.029 168.249 431.652C168.249 429.274 166.322 427.347 163.946 427.347C161.569 427.347 159.643 429.274 159.643 431.652C159.643 434.029 161.569 435.957 163.946 435.957Z" fill="#FFD700"/>
<path d="M177.469 435.957C179.846 435.957 181.773 434.029 181.773 431.652C181.773 429.274 179.846 427.347 177.469 427.347C175.093 427.347 173.166 429.274 173.166 431.652C173.166 434.029 175.093 435.957 177.469 435.957Z" fill="#FFD700"/>
<path d="M204.21 435.957C206.586 435.957 208.513 434.029 208.513 431.652C208.513 429.274 206.586 427.347 204.21 427.347C201.833 427.347 199.907 429.274 199.907 431.652C199.907 434.029 201.833 435.957 204.21 435.957Z" fill="#FFD700"/>
<path d="M230.951 435.957C233.327 435.957 235.254 434.029 235.254 431.652C235.254 429.274 233.327 427.347 230.951 427.347C228.574 427.347 226.648 429.274 226.648 431.652C226.648 434.029 228.574 435.957 230.951 435.957Z" fill="#FFD700"/>
<path d="M244.475 435.957C246.851 435.957 248.778 434.029 248.778 431.652C248.778 429.274 246.851 427.347 244.475 427.347C242.098 427.347 240.172 429.274 240.172 431.652C240.172 434.029 242.098 435.957 244.475 435.957Z" fill="#FFD700"/>
<path d="M257.692 435.957C260.069 435.957 261.995 434.029 261.995 431.652C261.995 429.274 260.069 427.347 257.692 427.347C255.315 427.347 253.389 429.274 253.389 431.652C253.389 434.029 255.315 435.957 257.692 435.957Z" fill="#FFD700"/>
<path d="M97.2473 422.734C99.6239 422.734 101.55 420.807 101.55 418.429C101.55 416.051 99.6239 414.124 97.2473 414.124C94.8708 414.124 92.9441 416.051 92.9441 418.429C92.9441 420.807 94.8708 422.734 97.2473 422.734Z" fill="#FFD700"/>
<path d="M110.464 422.734C112.84 422.734 114.767 420.807 114.767 418.429C114.767 416.051 112.84 414.124 110.464 414.124C108.087 414.124 106.161 416.051 106.161 418.429C106.161 420.807 108.087 422.734 110.464 422.734Z" fill="#FFD700"/>
<path d="M123.988 422.734C126.365 422.734 128.291 420.807 128.291 418.429C128.291 416.051 126.365 414.124 123.988 414.124C121.611 414.124 119.685 416.051 119.685 418.429C119.685 420.807 121.611 422.734 123.988 422.734Z" fill="#FFD700"/>
<path d="M137.512 422.734C139.889 422.734 141.815 420.807 141.815 418.429C141.815 416.051 139.889 414.124 137.512 414.124C135.136 414.124 133.209 416.051 133.209 418.429C133.209 420.807 135.136 422.734 137.512 422.734Z" fill="#FFD700"/>
<path d="M150.729 422.734C153.105 422.734 155.032 420.807 155.032 418.429C155.032 416.051 153.105 414.124 150.729 414.124C148.352 414.124 146.425 416.051 146.425 418.429C146.425 420.807 148.352 422.734 150.729 422.734Z" fill="#FFD700"/>
<path d="M163.946 422.734C166.322 422.734 168.249 420.807 168.249 418.429C168.249 416.051 166.322 414.124 163.946 414.124C161.569 414.124 159.643 416.051 159.643 418.429C159.643 420.807 161.569 422.734 163.946 422.734Z" fill="#FFD700"/>
<path d="M177.469 422.734C179.846 422.734 181.773 420.807 181.773 418.429C181.773 416.051 179.846 414.124 177.469 414.124C175.093 414.124 173.166 416.051 173.166 418.429C173.166 420.807 175.093 422.734 177.469 422.734Z" fill="#FFD700"/>
<path d="M190.686 422.734C193.062 422.734 194.989 420.807 194.989 418.429C194.989 416.051 193.062 414.124 190.686 414.124C188.309 414.124 186.383 416.051 186.383 418.429C186.383 420.807 188.309 422.734 190.686 422.734Z" fill="#FFD700"/>
<path d="M204.21 422.734C206.586 422.734 208.513 420.807 208.513 418.429C208.513 416.051 206.586 414.124 204.21 414.124C201.833 414.124 199.907 416.051 199.907 418.429C199.907 420.807 201.833 422.734 204.21 422.734Z" fill="#FFD700"/>
<path d="M217.734 422.734C220.111 422.734 222.037 420.807 222.037 418.429C222.037 416.051 220.111 414.124 217.734 414.124C215.358 414.124 213.431 416.051 213.431 418.429C213.431 420.807 215.358 422.734 217.734 422.734Z" fill="#FFD700"/>
<path d="M230.951 422.734C233.327 422.734 235.254 420.806 235.254 418.429C235.254 416.051 233.327 414.124 230.951 414.124C228.574 414.124 226.648 416.051 226.648 418.429C226.648 420.806 228.574 422.734 230.951 422.734Z" fill="#FFD700"/>
<path d="M244.475 422.734C246.851 422.734 248.778 420.806 248.778 418.429C248.778 416.051 246.851 414.124 244.475 414.124C242.098 414.124 240.172 416.051 240.172 418.429C240.172 420.806 242.098 422.734 244.475 422.734Z" fill="#FFD700"/>
<path d="M257.692 422.734C260.069 422.734 261.995 420.806 261.995 418.429C261.995 416.051 260.069 414.124 257.692 414.124C255.315 414.124 253.389 416.051 253.389 418.429C253.389 420.806 255.315 422.734 257.692 422.734Z" fill="#FFD700"/>
<path d="M97.2473 409.204C99.6239 409.204 101.55 407.277 101.55 404.899C101.55 402.522 99.6239 400.594 97.2473 400.594C94.8708 400.594 92.9441 402.522 92.9441 404.899C92.9441 407.277 94.8708 409.204 97.2473 409.204Z" fill="#FFD700"/>
<path d="M110.464 409.204C112.84 409.204 114.767 407.277 114.767 404.899C114.767 402.522 112.84 400.594 110.464 400.594C108.087 400.594 106.161 402.522 106.161 404.899C106.161 407.277 108.087 409.204 110.464 409.204Z" fill="#FFD700"/>
<path d="M123.988 409.204C126.365 409.204 128.291 407.277 128.291 404.899C128.291 402.522 126.365 400.594 123.988 400.594C121.611 400.594 119.685 402.522 119.685 404.899C119.685 407.277 121.611 409.204 123.988 409.204Z" fill="#FFD700"/>
<path d="M137.512 409.204C139.889 409.204 141.815 407.277 141.815 404.899C141.815 402.522 139.889 400.594 137.512 400.594C135.136 400.594 133.209 402.522 133.209 404.899C133.209 407.277 135.136 409.204 137.512 409.204Z" fill="#FFD700"/>
<path d="M150.729 409.204C153.105 409.204 155.032 407.277 155.032 404.899C155.032 402.522 153.105 400.594 150.729 400.594C148.352 400.594 146.425 402.522 146.425 404.899C146.425 407.277 148.352 409.204 150.729 409.204Z" fill="#FFD700"/>
<path d="M163.946 409.204C166.322 409.204 168.249 407.277 168.249 404.899C168.249 402.522 166.322 400.594 163.946 400.594C161.569 400.594 159.643 402.522 159.643 404.899C159.643 407.277 161.569 409.204 163.946 409.204Z" fill="#FFD700"/>
<path d="M177.469 409.204C179.846 409.204 181.773 407.277 181.773 404.899C181.773 402.522 179.846 400.594 177.469 400.594C175.093 400.594 173.166 402.522 173.166 404.899C173.166 407.277 175.093 409.204 177.469 409.204Z" fill="#FFD700"/>
<path d="M190.686 409.204C193.062 409.204 194.989 407.277 194.989 404.899C194.989 402.522 193.062 400.594 190.686 400.594C188.309 400.594 186.383 402.522 186.383 404.899C186.383 407.277 188.309 409.204 190.686 409.204Z" fill="#FFD700"/>
<path d="M204.21 409.204C206.586 409.204 208.513 407.277 208.513 404.899C208.513 402.522 206.586 400.594 204.21 400.594C201.833 400.594 199.907 402.522 199.907 404.899C199.907 407.277 201.833 409.204 204.21 409.204Z" fill="#FFD700"/>
<path d="M217.734 409.204C220.111 409.204 222.037 407.277 222.037 404.899C222.037 402.522 220.111 400.594 217.734 400.594C215.358 400.594 213.431 402.522 213.431 404.899C213.431 407.277 215.358 409.204 217.734 409.204Z" fill="#FFD700"/>
<path d="M230.951 409.204C233.327 409.204 235.254 407.277 235.254 404.899C235.254 402.522 233.327 400.594 230.951 400.594C228.574 400.594 226.648 402.522 226.648 404.899C226.648 407.277 228.574 409.204 230.951 409.204Z" fill="#FFD700"/>
<path d="M244.475 409.204C246.851 409.204 248.778 407.277 248.778 404.899C248.778 402.522 246.851 400.594 244.475 400.594C242.098 400.594 240.172 402.522 240.172 404.899C240.172 407.277 242.098 409.204 244.475 409.204Z" fill="#FFD700"/>
<path d="M257.692 409.204C260.069 409.204 261.995 407.277 261.995 404.899C261.995 402.522 260.069 400.594 257.692 400.594C255.315 400.594 253.389 402.522 253.389 404.899C253.389 407.277 255.315 409.204 257.692 409.204Z" fill="#FFD700"/>
<path d="M97.2473 395.674C99.6239 395.674 101.55 393.746 101.55 391.369C101.55 388.991 99.6239 387.064 97.2473 387.064C94.8708 387.064 92.9441 388.991 92.9441 391.369C92.9441 393.746 94.8708 395.674 97.2473 395.674Z" fill="#FFD700"/>
<path d="M110.464 395.674C112.84 395.674 114.767 393.746 114.767 391.369C114.767 388.991 112.84 387.064 110.464 387.064C108.087 387.064 106.161 388.991 106.161 391.369C106.161 393.746 108.087 395.674 110.464 395.674Z" fill="#FFD700"/>
<path d="M123.988 395.674C126.365 395.674 128.291 393.746 128.291 391.369C128.291 388.991 126.365 387.064 123.988 387.064C121.611 387.064 119.685 388.991 119.685 391.369C119.685 393.746 121.611 395.674 123.988 395.674Z" fill="#FFD700"/>
<path d="M137.512 395.674C139.889 395.674 141.815 393.746 141.815 391.369C141.815 388.991 139.889 387.064 137.512 387.064C135.136 387.064 133.209 388.991 133.209 391.369C133.209 393.746 135.136 395.674 137.512 395.674Z" fill="#FFD700"/>
<path d="M150.729 395.674C153.105 395.674 155.032 393.746 155.032 391.369C155.032 388.991 153.105 387.064 150.729 387.064C148.352 387.064 146.425 388.991 146.425 391.369C146.425 393.746 148.352 395.674 150.729 395.674Z" fill="#FFD700"/>
<path d="M163.946 395.674C166.322 395.674 168.249 393.746 168.249 391.369C168.249 388.991 166.322 387.064 163.946 387.064C161.569 387.064 159.643 388.991 159.643 391.369C159.643 393.746 161.569 395.674 163.946 395.674Z" fill="#FFD700"/>
<path d="M177.469 395.674C179.846 395.674 181.773 393.746 181.773 391.369C181.773 388.991 179.846 387.064 177.469 387.064C175.093 387.064 173.166 388.991 173.166 391.369C173.166 393.746 175.093 395.674 177.469 395.674Z" fill="#FFD700"/>
<path d="M190.686 395.674C193.062 395.674 194.989 393.746 194.989 391.369C194.989 388.991 193.062 387.064 190.686 387.064C188.309 387.064 186.383 388.991 186.383 391.369C186.383 393.746 188.309 395.674 190.686 395.674Z" fill="#FFD700"/>
<path d="M204.21 395.674C206.586 395.674 208.513 393.746 208.513 391.369C208.513 388.991 206.586 387.064 204.21 387.064C201.833 387.064 199.907 388.991 199.907 391.369C199.907 393.746 201.833 395.674 204.21 395.674Z" fill="#FFD700"/>
<path d="M217.734 395.674C220.111 395.674 222.037 393.746 222.037 391.369C222.037 388.991 220.111 387.064 217.734 387.064C215.358 387.064 213.431 388.991 213.431 391.369C213.431 393.746 215.358 395.674 217.734 395.674Z" fill="#FFD700"/>
<path d="M230.951 395.674C233.327 395.674 235.254 393.746 235.254 391.369C235.254 388.991 233.327 387.064 230.951 387.064C228.574 387.064 226.648 388.991 226.648 391.369C226.648 393.746 228.574 395.674 230.951 395.674Z" fill="#FFD700"/>
<path d="M244.475 395.674C246.851 395.674 248.778 393.746 248.778 391.369C248.778 388.991 246.851 387.064 244.475 387.064C242.098 387.064 240.172 388.991 240.172 391.369C240.172 393.746 242.098 395.674 244.475 395.674Z" fill="#FFD700"/>
<path d="M257.692 395.674C260.069 395.674 261.995 393.746 261.995 391.369C261.995 388.991 260.069 387.064 257.692 387.064C255.315 387.064 253.389 388.991 253.389 391.369C253.389 393.746 255.315 395.674 257.692 395.674Z" fill="#FFD700"/>
<path d="M270.909 395.674C273.285 395.674 275.212 393.746 275.212 391.369C275.212 388.991 273.285 387.064 270.909 387.064C268.532 387.064 266.605 388.991 266.605 391.369C266.605 393.746 268.532 395.674 270.909 395.674Z" fill="#FFD700"/>
<path d="M97.2473 383.989C99.6239 383.989 101.55 382.062 101.55 379.684C101.55 377.306 99.6239 375.379 97.2473 375.379C94.8708 375.379 92.9441 377.306 92.9441 379.684C92.9441 382.062 94.8708 383.989 97.2473 383.989Z" fill="#FFD700"/>
<path d="M110.464 383.989C112.84 383.989 114.767 382.062 114.767 379.684C114.767 377.306 112.84 375.379 110.464 375.379C108.087 375.379 106.161 377.306 106.161 379.684C106.161 382.062 108.087 383.989 110.464 383.989Z" fill="#FFD700"/>
<path d="M123.988 383.989C126.365 383.989 128.291 382.062 128.291 379.684C128.291 377.306 126.365 375.379 123.988 375.379C121.611 375.379 119.685 377.306 119.685 379.684C119.685 382.062 121.611 383.989 123.988 383.989Z" fill="#FFD700"/>
<path d="M137.512 383.989C139.889 383.989 141.815 382.062 141.815 379.684C141.815 377.306 139.889 375.379 137.512 375.379C135.136 375.379 133.209 377.306 133.209 379.684C133.209 382.062 135.136 383.989 137.512 383.989Z" fill="#FFD700"/>
<path d="M150.729 383.989C153.105 383.989 155.032 382.062 155.032 379.684C155.032 377.306 153.105 375.379 150.729 375.379C148.352 375.379 146.425 377.306 146.425 379.684C146.425 382.062 148.352 383.989 150.729 383.989Z" fill="#FFD700"/>
<path d="M164.252 383.989C166.629 383.989 168.555 382.062 168.555 379.684C168.555 377.306 166.629 375.379 164.252 375.379C161.876 375.379 159.949 377.306 159.949 379.684C159.949 382.062 161.876 383.989 164.252 383.989Z" fill="#FFD700"/>
<path d="M177.469 383.989C179.846 383.989 181.773 382.062 181.773 379.684C181.773 377.306 179.846 375.379 177.469 375.379C175.093 375.379 173.166 377.306 173.166 379.684C173.166 382.062 175.093 383.989 177.469 383.989Z" fill="#FFD700"/>
<path d="M190.994 383.989C193.37 383.989 195.297 382.062 195.297 379.684C195.297 377.306 193.37 375.379 190.994 375.379C188.617 375.379 186.69 377.306 186.69 379.684C186.69 382.062 188.617 383.989 190.994 383.989Z" fill="#FFD700"/>
<path d="M204.21 383.989C206.586 383.989 208.513 382.062 208.513 379.684C208.513 377.306 206.586 375.379 204.21 375.379C201.833 375.379 199.907 377.306 199.907 379.684C199.907 382.062 201.833 383.989 204.21 383.989Z" fill="#FFD700"/>
<path d="M217.734 383.989C220.111 383.989 222.037 382.062 222.037 379.684C222.037 377.306 220.111 375.379 217.734 375.379C215.358 375.379 213.431 377.306 213.431 379.684C213.431 382.062 215.358 383.989 217.734 383.989Z" fill="#FFD700"/>
<path d="M231.258 383.989C233.635 383.989 235.562 382.061 235.562 379.684C235.562 377.306 233.635 375.379 231.258 375.379C228.882 375.379 226.955 377.306 226.955 379.684C226.955 382.061 228.882 383.989 231.258 383.989Z" fill="#FFD700"/>
<path d="M244.475 383.989C246.851 383.989 248.778 382.061 248.778 379.684C248.778 377.306 246.851 375.379 244.475 375.379C242.098 375.379 240.172 377.306 240.172 379.684C240.172 382.061 242.098 383.989 244.475 383.989Z" fill="#FFD700"/>
<path d="M257.692 383.989C260.069 383.989 261.995 382.061 261.995 379.684C261.995 377.306 260.069 375.379 257.692 375.379C255.315 375.379 253.389 377.306 253.389 379.684C253.389 382.061 255.315 383.989 257.692 383.989Z" fill="#FFD700"/>
<path d="M271.216 383.989C273.592 383.989 275.519 382.061 275.519 379.684C275.519 377.306 273.592 375.379 271.216 375.379C268.839 375.379 266.913 377.306 266.913 379.684C266.913 382.061 268.839 383.989 271.216 383.989Z" fill="#FFD700"/>
<path d="M284.74 383.989C287.116 383.989 289.043 382.061 289.043 379.684C289.043 377.306 287.116 375.379 284.74 375.379C282.363 375.379 280.437 377.306 280.437 379.684C280.437 382.061 282.363 383.989 284.74 383.989Z" fill="#FFD700"/>
<path d="M123.988 370.459C126.365 370.459 128.291 368.532 128.291 366.154C128.291 363.777 126.365 361.849 123.988 361.849C121.611 361.849 119.685 363.777 119.685 366.154C119.685 368.532 121.611 370.459 123.988 370.459Z" fill="#FFD700"/>
<path d="M137.512 370.459C139.889 370.459 141.815 368.532 141.815 366.154C141.815 363.777 139.889 361.849 137.512 361.849C135.136 361.849 133.209 363.777 133.209 366.154C133.209 368.532 135.136 370.459 137.512 370.459Z" fill="#FFD700"/>
<path d="M150.729 370.459C153.105 370.459 155.032 368.532 155.032 366.154C155.032 363.777 153.105 361.849 150.729 361.849C148.352 361.849 146.425 363.777 146.425 366.154C146.425 368.532 148.352 370.459 150.729 370.459Z" fill="#FFD700"/>
<path d="M164.252 370.459C166.629 370.459 168.555 368.532 168.555 366.154C168.555 363.777 166.629 361.849 164.252 361.849C161.876 361.849 159.949 363.777 159.949 366.154C159.949 368.532 161.876 370.459 164.252 370.459Z" fill="#FFD700"/>
<path d="M177.469 370.459C179.846 370.459 181.773 368.532 181.773 366.154C181.773 363.777 179.846 361.849 177.469 361.849C175.093 361.849 173.166 363.777 173.166 366.154C173.166 368.532 175.093 370.459 177.469 370.459Z" fill="#FFD700"/>
<path d="M190.994 370.459C193.37 370.459 195.297 368.532 195.297 366.154C195.297 363.777 193.37 361.849 190.994 361.849C188.617 361.849 186.69 363.777 186.69 366.154C186.69 368.532 188.617 370.459 190.994 370.459Z" fill="#FFD700"/>
<path d="M204.21 370.459C206.586 370.459 208.513 368.532 208.513 366.154C208.513 363.777 206.586 361.849 204.21 361.849C201.833 361.849 199.907 363.777 199.907 366.154C199.907 368.532 201.833 370.459 204.21 370.459Z" fill="#FFD700"/>
<path d="M217.734 370.459C220.111 370.459 222.037 368.532 222.037 366.154C222.037 363.777 220.111 361.849 217.734 361.849C215.358 361.849 213.431 363.777 213.431 366.154C213.431 368.532 215.358 370.459 217.734 370.459Z" fill="#FFD700"/>
<path d="M231.258 370.459C233.635 370.459 235.562 368.532 235.562 366.154C235.562 363.777 233.635 361.849 231.258 361.849C228.882 361.849 226.955 363.777 226.955 366.154C226.955 368.532 228.882 370.459 231.258 370.459Z" fill="#FFD700"/>
<path d="M244.475 370.459C246.851 370.459 248.778 368.532 248.778 366.154C248.778 363.777 246.851 361.849 244.475 361.849C242.098 361.849 240.172 363.777 240.172 366.154C240.172 368.532 242.098 370.459 244.475 370.459Z" fill="#FFD700"/>
<path d="M257.692 370.459C260.069 370.459 261.995 368.532 261.995 366.154C261.995 363.777 260.069 361.849 257.692 361.849C255.315 361.849 253.389 363.777 253.389 366.154C253.389 368.532 255.315 370.459 257.692 370.459Z" fill="#FFD700"/>
<path d="M271.216 370.459C273.592 370.459 275.519 368.532 275.519 366.154C275.519 363.777 273.592 361.849 271.216 361.849C268.839 361.849 266.913 363.777 266.913 366.154C266.913 368.532 268.839 370.459 271.216 370.459Z" fill="#FFD700"/>
<path d="M284.74 370.459C287.116 370.459 289.043 368.532 289.043 366.154C289.043 363.777 287.116 361.849 284.74 361.849C282.363 361.849 280.437 363.777 280.437 366.154C280.437 368.532 282.363 370.459 284.74 370.459Z" fill="#FFD700"/>
<path d="M297.956 370.459C300.333 370.459 302.259 368.532 302.259 366.154C302.259 363.777 300.333 361.849 297.956 361.849C295.58 361.849 293.653 363.777 293.653 366.154C293.653 368.532 295.58 370.459 297.956 370.459Z" fill="#FFD700"/>
<path d="M97.2473 356.93C99.6239 356.93 101.55 355.002 101.55 352.625C101.55 350.247 99.6239 348.32 97.2473 348.32C94.8708 348.32 92.9441 350.247 92.9441 352.625C92.9441 355.002 94.8708 356.93 97.2473 356.93Z" fill="#FFD700"/>
<path d="M110.464 356.93C112.84 356.93 114.767 355.002 114.767 352.625C114.767 350.247 112.84 348.32 110.464 348.32C108.087 348.32 106.161 350.247 106.161 352.625C106.161 355.002 108.087 356.93 110.464 356.93Z" fill="#FFD700"/>
<path d="M150.729 356.93C153.105 356.93 155.032 355.002 155.032 352.625C155.032 350.247 153.105 348.32 150.729 348.32C148.352 348.32 146.425 350.247 146.425 352.625C146.425 355.002 148.352 356.93 150.729 356.93Z" fill="#FFD700"/>
<path d="M164.252 356.93C166.629 356.93 168.555 355.002 168.555 352.625C168.555 350.247 166.629 348.32 164.252 348.32C161.876 348.32 159.949 350.247 159.949 352.625C159.949 355.002 161.876 356.93 164.252 356.93Z" fill="#FFD700"/>
<path d="M177.469 356.93C179.846 356.93 181.773 355.002 181.773 352.625C181.773 350.247 179.846 348.32 177.469 348.32C175.093 348.32 173.166 350.247 173.166 352.625C173.166 355.002 175.093 356.93 177.469 356.93Z" fill="#FFD700"/>
<path d="M190.994 356.93C193.37 356.93 195.297 355.002 195.297 352.625C195.297 350.247 193.37 348.32 190.994 348.32C188.617 348.32 186.69 350.247 186.69 352.625C186.69 355.002 188.617 356.93 190.994 356.93Z" fill="#FFD700"/>
<path d="M204.21 356.93C206.586 356.93 208.513 355.002 208.513 352.625C208.513 350.247 206.586 348.32 204.21 348.32C201.833 348.32 199.907 350.247 199.907 352.625C199.907 355.002 201.833 356.93 204.21 356.93Z" fill="#FFD700"/>
<path d="M217.734 356.93C220.111 356.93 222.037 355.002 222.037 352.625C222.037 350.247 220.111 348.32 217.734 348.32C215.358 348.32 213.431 350.247 213.431 352.625C213.431 355.002 215.358 356.93 217.734 356.93Z" fill="#FFD700"/>
<path d="M231.258 356.93C233.635 356.93 235.562 355.002 235.562 352.625C235.562 350.247 233.635 348.32 231.258 348.32C228.882 348.32 226.955 350.247 226.955 352.625C226.955 355.002 228.882 356.93 231.258 356.93Z" fill="#FFD700"/>
<path d="M244.475 356.93C246.851 356.93 248.778 355.002 248.778 352.625C248.778 350.247 246.851 348.32 244.475 348.32C242.098 348.32 240.172 350.247 240.172 352.625C240.172 355.002 242.098 356.93 244.475 356.93Z" fill="#FFD700"/>
<path d="M257.692 356.93C260.069 356.93 261.995 355.002 261.995 352.625C261.995 350.247 260.069 348.32 257.692 348.32C255.315 348.32 253.389 350.247 253.389 352.625C253.389 355.002 255.315 356.93 257.692 356.93Z" fill="#FFD700"/>
<path d="M271.216 356.93C273.592 356.93 275.519 355.002 275.519 352.625C275.519 350.247 273.592 348.32 271.216 348.32C268.839 348.32 266.913 350.247 266.913 352.625C266.913 355.002 268.839 356.93 271.216 356.93Z" fill="#FFD700"/>
<path d="M284.74 356.93C287.116 356.93 289.043 355.002 289.043 352.625C289.043 350.247 287.116 348.32 284.74 348.32C282.363 348.32 280.437 350.247 280.437 352.625C280.437 355.002 282.363 356.93 284.74 356.93Z" fill="#FFD700"/>
<path d="M297.956 356.93C300.333 356.93 302.259 355.002 302.259 352.625C302.259 350.247 300.333 348.32 297.956 348.32C295.58 348.32 293.653 350.247 293.653 352.625C293.653 355.002 295.58 356.93 297.956 356.93Z" fill="#FFD700"/>
<path d="M110.464 343.707C112.84 343.707 114.767 341.78 114.767 339.402C114.767 337.024 112.84 335.097 110.464 335.097C108.087 335.097 106.161 337.024 106.161 339.402C106.161 341.78 108.087 343.707 110.464 343.707Z" fill="#FFD700"/>
<path d="M164.252 343.707C166.629 343.707 168.555 341.78 168.555 339.402C168.555 337.024 166.629 335.097 164.252 335.097C161.876 335.097 159.949 337.024 159.949 339.402C159.949 341.78 161.876 343.707 164.252 343.707Z" fill="#FFD700"/>
<path d="M177.469 343.707C179.846 343.707 181.773 341.78 181.773 339.402C181.773 337.024 179.846 335.097 177.469 335.097C175.093 335.097 173.166 337.024 173.166 339.402C173.166 341.78 175.093 343.707 177.469 343.707Z" fill="#FFD700"/>
<path d="M190.994 343.707C193.37 343.707 195.297 341.78 195.297 339.402C195.297 337.024 193.37 335.097 190.994 335.097C188.617 335.097 186.69 337.024 186.69 339.402C186.69 341.78 188.617 343.707 190.994 343.707Z" fill="#FFD700"/>
<path d="M204.21 343.707C206.586 343.707 208.513 341.78 208.513 339.402C208.513 337.024 206.586 335.097 204.21 335.097C201.833 335.097 199.907 337.024 199.907 339.402C199.907 341.78 201.833 343.707 204.21 343.707Z" fill="#FFD700"/>
<path d="M217.734 343.707C220.111 343.707 222.037 341.78 222.037 339.402C222.037 337.024 220.111 335.097 217.734 335.097C215.358 335.097 213.431 337.024 213.431 339.402C213.431 341.78 215.358 343.707 217.734 343.707Z" fill="#FFD700"/>
<path d="M231.258 343.707C233.635 343.707 235.562 341.779 235.562 339.402C235.562 337.024 233.635 335.097 231.258 335.097C228.882 335.097 226.955 337.024 226.955 339.402C226.955 341.779 228.882 343.707 231.258 343.707Z" fill="#FFD700"/>
<path d="M244.475 343.707C246.851 343.707 248.778 341.779 248.778 339.402C248.778 337.024 246.851 335.097 244.475 335.097C242.098 335.097 240.172 337.024 240.172 339.402C240.172 341.779 242.098 343.707 244.475 343.707Z" fill="#FFD700"/>
<path d="M257.692 343.707C260.069 343.707 261.995 341.779 261.995 339.402C261.995 337.024 260.069 335.097 257.692 335.097C255.315 335.097 253.389 337.024 253.389 339.402C253.389 341.779 255.315 343.707 257.692 343.707Z" fill="#FFD700"/>
<path d="M271.216 343.707C273.592 343.707 275.519 341.779 275.519 339.402C275.519 337.024 273.592 335.097 271.216 335.097C268.839 335.097 266.913 337.024 266.913 339.402C266.913 341.779 268.839 343.707 271.216 343.707Z" fill="#FFD700"/>
<path d="M284.74 343.707C287.116 343.707 289.043 341.779 289.043 339.402C289.043 337.024 287.116 335.097 284.74 335.097C282.363 335.097 280.437 337.024 280.437 339.402C280.437 341.779 282.363 343.707 284.74 343.707Z" fill="#FFD700"/>
<path d="M297.956 343.707C300.333 343.707 302.259 341.779 302.259 339.402C302.259 337.024 300.333 335.097 297.956 335.097C295.58 335.097 293.653 337.024 293.653 339.402C293.653 341.779 295.58 343.707 297.956 343.707Z" fill="#FFD700"/>
<path d="M97.2473 330.177C99.6239 330.177 101.55 328.249 101.55 325.872C101.55 323.494 99.6239 321.567 97.2473 321.567C94.8708 321.567 92.9441 323.494 92.9441 325.872C92.9441 328.249 94.8708 330.177 97.2473 330.177Z" fill="#FFD700"/>
<path d="M110.771 330.177C113.148 330.177 115.074 328.249 115.074 325.872C115.074 323.494 113.148 321.567 110.771 321.567C108.395 321.567 106.468 323.494 106.468 325.872C106.468 328.249 108.395 330.177 110.771 330.177Z" fill="#FFD700"/>
<path d="M124.295 330.177C126.671 330.177 128.598 328.249 128.598 325.872C128.598 323.494 126.671 321.567 124.295 321.567C121.918 321.567 119.992 323.494 119.992 325.872C119.992 328.249 121.918 330.177 124.295 330.177Z" fill="#FFD700"/>
<path d="M150.729 330.177C153.105 330.177 155.032 328.249 155.032 325.872C155.032 323.494 153.105 321.567 150.729 321.567C148.352 321.567 146.425 323.494 146.425 325.872C146.425 328.249 148.352 330.177 150.729 330.177Z" fill="#FFD700"/>
<path d="M164.252 330.177C166.629 330.177 168.555 328.249 168.555 325.872C168.555 323.494 166.629 321.567 164.252 321.567C161.876 321.567 159.949 323.494 159.949 325.872C159.949 328.249 161.876 330.177 164.252 330.177Z" fill="#FFD700"/>
<path d="M177.469 330.177C179.846 330.177 181.773 328.249 181.773 325.872C181.773 323.494 179.846 321.567 177.469 321.567C175.093 321.567 173.166 323.494 173.166 325.872C173.166 328.249 175.093 330.177 177.469 330.177Z" fill="#FFD700"/>
<path d="M190.994 330.177C193.37 330.177 195.297 328.249 195.297 325.872C195.297 323.494 193.37 321.567 190.994 321.567C188.617 321.567 186.69 323.494 186.69 325.872C186.69 328.249 188.617 330.177 190.994 330.177Z" fill="#FFD700"/>
<path d="M204.21 330.177C206.586 330.177 208.513 328.249 208.513 325.872C208.513 323.494 206.586 321.567 204.21 321.567C201.833 321.567 199.907 323.494 199.907 325.872C199.907 328.249 201.833 330.177 204.21 330.177Z" fill="#FFD700"/>
<path d="M217.734 330.177C220.111 330.177 222.037 328.249 222.037 325.872C222.037 323.494 220.111 321.567 217.734 321.567C215.358 321.567 213.431 323.494 213.431 325.872C213.431 328.249 215.358 330.177 217.734 330.177Z" fill="#FFD700"/>
<path d="M231.258 330.177C233.635 330.177 235.562 328.249 235.562 325.872C235.562 323.494 233.635 321.567 231.258 321.567C228.882 321.567 226.955 323.494 226.955 325.872C226.955 328.249 228.882 330.177 231.258 330.177Z" fill="#FFD700"/>
<path d="M244.475 330.177C246.851 330.177 248.778 328.249 248.778 325.872C248.778 323.494 246.851 321.567 244.475 321.567C242.098 321.567 240.172 323.494 240.172 325.872C240.172 328.249 242.098 330.177 244.475 330.177Z" fill="#FFD700"/>
<path d="M257.692 330.177C260.069 330.177 261.995 328.249 261.995 325.872C261.995 323.494 260.069 321.567 257.692 321.567C255.315 321.567 253.389 323.494 253.389 325.872C253.389 328.249 255.315 330.177 257.692 330.177Z" fill="#FFD700"/>
<path d="M271.216 330.177C273.592 330.177 275.519 328.249 275.519 325.872C275.519 323.494 273.592 321.567 271.216 321.567C268.839 321.567 266.913 323.494 266.913 325.872C266.913 328.249 268.839 330.177 271.216 330.177Z" fill="#FFD700"/>
<path d="M284.74 330.177C287.116 330.177 289.043 328.249 289.043 325.872C289.043 323.494 287.116 321.567 284.74 321.567C282.363 321.567 280.437 323.494 280.437 325.872C280.437 328.249 282.363 330.177 284.74 330.177Z" fill="#FFD700"/>
<path d="M297.956 330.177C300.333 330.177 302.259 328.249 302.259 325.872C302.259 323.494 300.333 321.567 297.956 321.567C295.58 321.567 293.653 323.494 293.653 325.872C293.653 328.249 295.58 330.177 297.956 330.177Z" fill="#FFD700"/>
<path d="M97.2473 316.955C99.6239 316.955 101.55 315.027 101.55 312.65C101.55 310.272 99.6239 308.345 97.2473 308.345C94.8708 308.345 92.9441 310.272 92.9441 312.65C92.9441 315.027 94.8708 316.955 97.2473 316.955Z" fill="#FFD700"/>
<path d="M110.771 316.955C113.148 316.955 115.074 315.027 115.074 312.65C115.074 310.272 113.148 308.345 110.771 308.345C108.395 308.345 106.468 310.272 106.468 312.65C106.468 315.027 108.395 316.955 110.771 316.955Z" fill="#FFD700"/>
<path d="M124.295 316.955C126.671 316.955 128.598 315.027 128.598 312.65C128.598 310.272 126.671 308.345 124.295 308.345C121.918 308.345 119.992 310.272 119.992 312.65C119.992 315.027 121.918 316.955 124.295 316.955Z" fill="#FFD700"/>
<path d="M150.729 316.955C153.105 316.955 155.032 315.027 155.032 312.65C155.032 310.272 153.105 308.345 150.729 308.345C148.352 308.345 146.425 310.272 146.425 312.65C146.425 315.027 148.352 316.955 150.729 316.955Z" fill="#FFD700"/>
<path d="M177.469 316.955C179.846 316.955 181.773 315.027 181.773 312.65C181.773 310.272 179.846 308.345 177.469 308.345C175.093 308.345 173.166 310.272 173.166 312.65C173.166 315.027 175.093 316.955 177.469 316.955Z" fill="#FFD700"/>
<path d="M190.994 316.955C193.37 316.955 195.297 315.027 195.297 312.65C195.297 310.272 193.37 308.345 190.994 308.345C188.617 308.345 186.69 310.272 186.69 312.65C186.69 315.027 188.617 316.955 190.994 316.955Z" fill="#FFD700"/>
<path d="M204.21 316.955C206.586 316.955 208.513 315.027 208.513 312.65C208.513 310.272 206.586 308.345 204.21 308.345C201.833 308.345 199.907 310.272 199.907 312.65C199.907 315.027 201.833 316.955 204.21 316.955Z" fill="#FFD700"/>
<path d="M217.734 316.955C220.111 316.955 222.037 315.027 222.037 312.65C222.037 310.272 220.111 308.345 217.734 308.345C215.358 308.345 213.431 310.272 213.431 312.65C213.431 315.027 215.358 316.955 217.734 316.955Z" fill="#FFD700"/>
<path d="M231.258 316.955C233.635 316.955 235.562 315.027 235.562 312.65C235.562 310.272 233.635 308.345 231.258 308.345C228.882 308.345 226.955 310.272 226.955 312.65C226.955 315.027 228.882 316.955 231.258 316.955Z" fill="#FFD700"/>
<path d="M244.475 316.955C246.851 316.955 248.778 315.027 248.778 312.65C248.778 310.272 246.851 308.345 244.475 308.345C242.098 308.345 240.172 310.272 240.172 312.65C240.172 315.027 242.098 316.955 244.475 316.955Z" fill="#FFD700"/>
<path d="M257.692 316.955C260.069 316.955 261.995 315.027 261.995 312.65C261.995 310.272 260.069 308.345 257.692 308.345C255.315 308.345 253.389 310.272 253.389 312.65C253.389 315.027 255.315 316.955 257.692 316.955Z" fill="#FFD700"/>
<path d="M271.216 316.955C273.592 316.955 275.519 315.027 275.519 312.65C275.519 310.272 273.592 308.345 271.216 308.345C268.839 308.345 266.913 310.272 266.913 312.65C266.913 315.027 268.839 316.955 271.216 316.955Z" fill="#FFD700"/>
<path d="M284.74 316.955C287.116 316.955 289.043 315.027 289.043 312.65C289.043 310.272 287.116 308.345 284.74 308.345C282.363 308.345 280.437 310.272 280.437 312.65C280.437 315.027 282.363 316.955 284.74 316.955Z" fill="#FFD700"/>
<path d="M297.956 316.955C300.333 316.955 302.259 315.027 302.259 312.65C302.259 310.272 300.333 308.345 297.956 308.345C295.58 308.345 293.653 310.272 293.653 312.65C293.653 315.027 295.58 316.955 297.956 316.955Z" fill="#FFD700"/>
<path d="M97.2473 303.425C99.6239 303.425 101.55 301.497 101.55 299.12C101.55 296.742 99.6239 294.815 97.2473 294.815C94.8708 294.815 92.9441 296.742 92.9441 299.12C92.9441 301.497 94.8708 303.425 97.2473 303.425Z" fill="#FFD700"/>
<path d="M110.771 303.425C113.148 303.425 115.074 301.497 115.074 299.12C115.074 296.742 113.148 294.815 110.771 294.815C108.395 294.815 106.468 296.742 106.468 299.12C106.468 301.497 108.395 303.425 110.771 303.425Z" fill="#FFD700"/>
<path d="M124.295 303.425C126.671 303.425 128.598 301.497 128.598 299.12C128.598 296.742 126.671 294.815 124.295 294.815C121.918 294.815 119.992 296.742 119.992 299.12C119.992 301.497 121.918 303.425 124.295 303.425Z" fill="#FFD700"/>
<path d="M150.729 303.425C153.105 303.425 155.032 301.497 155.032 299.12C155.032 296.742 153.105 294.815 150.729 294.815C148.352 294.815 146.425 296.742 146.425 299.12C146.425 301.497 148.352 303.425 150.729 303.425Z" fill="#FFD700"/>
<path d="M164.252 303.425C166.629 303.425 168.555 301.497 168.555 299.12C168.555 296.742 166.629 294.815 164.252 294.815C161.876 294.815 159.949 296.742 159.949 299.12C159.949 301.497 161.876 303.425 164.252 303.425Z" fill="#FFD700"/>
<path d="M177.469 303.425C179.846 303.425 181.773 301.497 181.773 299.12C181.773 296.742 179.846 294.815 177.469 294.815C175.093 294.815 173.166 296.742 173.166 299.12C173.166 301.497 175.093 303.425 177.469 303.425Z" fill="#FFD700"/>
<path d="M190.994 303.425C193.37 303.425 195.297 301.497 195.297 299.12C195.297 296.742 193.37 294.815 190.994 294.815C188.617 294.815 186.69 296.742 186.69 299.12C186.69 301.497 188.617 303.425 190.994 303.425Z" fill="#FFD700"/>
<path d="M204.21 303.425C206.586 303.425 208.513 301.497 208.513 299.12C208.513 296.742 206.586 294.815 204.21 294.815C201.833 294.815 199.907 296.742 199.907 299.12C199.907 301.497 201.833 303.425 204.21 303.425Z" fill="#FFD700"/>
<path d="M217.734 303.425C220.111 303.425 222.037 301.497 222.037 299.12C222.037 296.742 220.111 294.815 217.734 294.815C215.358 294.815 213.431 296.742 213.431 299.12C213.431 301.497 215.358 303.425 217.734 303.425Z" fill="#FFD700"/>
<path d="M231.258 303.425C233.635 303.425 235.562 301.497 235.562 299.12C235.562 296.742 233.635 294.815 231.258 294.815C228.882 294.815 226.955 296.742 226.955 299.12C226.955 301.497 228.882 303.425 231.258 303.425Z" fill="#FFD700"/>
<path d="M244.475 303.425C246.851 303.425 248.778 301.497 248.778 299.12C248.778 296.742 246.851 294.815 244.475 294.815C242.098 294.815 240.172 296.742 240.172 299.12C240.172 301.497 242.098 303.425 244.475 303.425Z" fill="#FFD700"/>
<path d="M257.692 303.425C260.069 303.425 261.995 301.497 261.995 299.12C261.995 296.742 260.069 294.815 257.692 294.815C255.315 294.815 253.389 296.742 253.389 299.12C253.389 301.497 255.315 303.425 257.692 303.425Z" fill="#FFD700"/>
<path d="M271.216 303.425C273.592 303.425 275.519 301.497 275.519 299.12C275.519 296.742 273.592 294.815 271.216 294.815C268.839 294.815 266.913 296.742 266.913 299.12C266.913 301.497 268.839 303.425 271.216 303.425Z" fill="#FFD700"/>
<path d="M284.74 303.425C287.116 303.425 289.043 301.497 289.043 299.12C289.043 296.742 287.116 294.815 284.74 294.815C282.363 294.815 280.437 296.742 280.437 299.12C280.437 301.497 282.363 303.425 284.74 303.425Z" fill="#FFD700"/>
<path d="M297.956 303.425C300.333 303.425 302.259 301.497 302.259 299.12C302.259 296.742 300.333 294.815 297.956 294.815C295.58 294.815 293.653 296.742 293.653 299.12C293.653 301.497 295.58 303.425 297.956 303.425Z" fill="#FFD700"/>
<path d="M97.2473 290.202C99.6239 290.202 101.55 288.275 101.55 285.897C101.55 283.519 99.6239 281.592 97.2473 281.592C94.8708 281.592 92.9441 283.519 92.9441 285.897C92.9441 288.275 94.8708 290.202 97.2473 290.202Z" fill="#FFD700"/>
<path d="M110.771 290.202C113.148 290.202 115.074 288.275 115.074 285.897C115.074 283.519 113.148 281.592 110.771 281.592C108.395 281.592 106.468 283.519 106.468 285.897C106.468 288.275 108.395 290.202 110.771 290.202Z" fill="#FFD700"/>
<path d="M124.295 290.202C126.671 290.202 128.598 288.275 128.598 285.897C128.598 283.519 126.671 281.592 124.295 281.592C121.918 281.592 119.992 283.519 119.992 285.897C119.992 288.275 121.918 290.202 124.295 290.202Z" fill="#FFD700"/>
<path d="M150.729 290.202C153.105 290.202 155.032 288.275 155.032 285.897C155.032 283.519 153.105 281.592 150.729 281.592C148.352 281.592 146.425 283.519 146.425 285.897C146.425 288.275 148.352 290.202 150.729 290.202Z" fill="#FFD700"/>
<path d="M164.252 290.202C166.629 290.202 168.555 288.275 168.555 285.897C168.555 283.519 166.629 281.592 164.252 281.592C161.876 281.592 159.949 283.519 159.949 285.897C159.949 288.275 161.876 290.202 164.252 290.202Z" fill="#FFD700"/>
<path d="M177.469 290.202C179.846 290.202 181.773 288.275 181.773 285.897C181.773 283.519 179.846 281.592 177.469 281.592C175.093 281.592 173.166 283.519 173.166 285.897C173.166 288.275 175.093 290.202 177.469 290.202Z" fill="#FFD700"/>
<path d="M190.994 290.202C193.37 290.202 195.297 288.275 195.297 285.897C195.297 283.519 193.37 281.592 190.994 281.592C188.617 281.592 186.69 283.519 186.69 285.897C186.69 288.275 188.617 290.202 190.994 290.202Z" fill="#FFD700"/>
<path d="M204.21 290.202C206.586 290.202 208.513 288.275 208.513 285.897C208.513 283.519 206.586 281.592 204.21 281.592C201.833 281.592 199.907 283.519 199.907 285.897C199.907 288.275 201.833 290.202 204.21 290.202Z" fill="#FFD700"/>
<path d="M217.734 290.202C220.111 290.202 222.037 288.275 222.037 285.897C222.037 283.519 220.111 281.592 217.734 281.592C215.358 281.592 213.431 283.519 213.431 285.897C213.431 288.275 215.358 290.202 217.734 290.202Z" fill="#FFD700"/>
<path d="M231.258 290.202C233.635 290.202 235.562 288.275 235.562 285.897C235.562 283.519 233.635 281.592 231.258 281.592C228.882 281.592 226.955 283.519 226.955 285.897C226.955 288.275 228.882 290.202 231.258 290.202Z" fill="#FFD700"/>
<path d="M244.475 290.202C246.851 290.202 248.778 288.275 248.778 285.897C248.778 283.519 246.851 281.592 244.475 281.592C242.098 281.592 240.172 283.519 240.172 285.897C240.172 288.275 242.098 290.202 244.475 290.202Z" fill="#FFD700"/>
<path d="M257.692 290.202C260.069 290.202 261.995 288.275 261.995 285.897C261.995 283.519 260.069 281.592 257.692 281.592C255.315 281.592 253.389 283.519 253.389 285.897C253.389 288.275 255.315 290.202 257.692 290.202Z" fill="#FFD700"/>
<path d="M271.216 290.202C273.592 290.202 275.519 288.275 275.519 285.897C275.519 283.519 273.592 281.592 271.216 281.592C268.839 281.592 266.913 283.519 266.913 285.897C266.913 288.275 268.839 290.202 271.216 290.202Z" fill="#FFD700"/>
<path d="M284.74 290.202C287.116 290.202 289.043 288.275 289.043 285.897C289.043 283.519 287.116 281.592 284.74 281.592C282.363 281.592 280.437 283.519 280.437 285.897C280.437 288.275 282.363 290.202 284.74 290.202Z" fill="#FFD700"/>
<path d="M297.956 290.202C300.333 290.202 302.259 288.275 302.259 285.897C302.259 283.519 300.333 281.592 297.956 281.592C295.58 281.592 293.653 283.519 293.653 285.897C293.653 288.275 295.58 290.202 297.956 290.202Z" fill="#FFD700"/>
<path d="M97.2473 276.672C99.6239 276.672 101.55 274.745 101.55 272.367C101.55 269.99 99.6239 268.062 97.2473 268.062C94.8708 268.062 92.9441 269.99 92.9441 272.367C92.9441 274.745 94.8708 276.672 97.2473 276.672Z" fill="#FFD700"/>
<path d="M110.771 276.672C113.148 276.672 115.074 274.745 115.074 272.367C115.074 269.99 113.148 268.062 110.771 268.062C108.395 268.062 106.468 269.99 106.468 272.367C106.468 274.745 108.395 276.672 110.771 276.672Z" fill="#FFD700"/>
<path d="M124.295 276.672C126.671 276.672 128.598 274.745 128.598 272.367C128.598 269.99 126.671 268.062 124.295 268.062C121.918 268.062 119.992 269.99 119.992 272.367C119.992 274.745 121.918 276.672 124.295 276.672Z" fill="#FFD700"/>
<path d="M137.512 276.672C139.889 276.672 141.815 274.745 141.815 272.367C141.815 269.99 139.889 268.062 137.512 268.062C135.136 268.062 133.209 269.99 133.209 272.367C133.209 274.745 135.136 276.672 137.512 276.672Z" fill="#FFD700"/>
<path d="M164.252 276.672C166.629 276.672 168.555 274.745 168.555 272.367C168.555 269.99 166.629 268.062 164.252 268.062C161.876 268.062 159.949 269.99 159.949 272.367C159.949 274.745 161.876 276.672 164.252 276.672Z" fill="#FFD700"/>
<path d="M177.777 276.672C180.154 276.672 182.08 274.745 182.08 272.367C182.08 269.99 180.154 268.062 177.777 268.062C175.4 268.062 173.474 269.99 173.474 272.367C173.474 274.745 175.4 276.672 177.777 276.672Z" fill="#FFD700"/>
<path d="M190.994 276.672C193.37 276.672 195.297 274.745 195.297 272.367C195.297 269.99 193.37 268.062 190.994 268.062C188.617 268.062 186.69 269.99 186.69 272.367C186.69 274.745 188.617 276.672 190.994 276.672Z" fill="#FFD700"/>
<path d="M204.518 276.672C206.894 276.672 208.821 274.745 208.821 272.367C208.821 269.99 206.894 268.062 204.518 268.062C202.141 268.062 200.214 269.99 200.214 272.367C200.214 274.745 202.141 276.672 204.518 276.672Z" fill="#FFD700"/>
<path d="M217.734 276.672C220.111 276.672 222.037 274.745 222.037 272.367C222.037 269.99 220.111 268.062 217.734 268.062C215.358 268.062 213.431 269.99 213.431 272.367C213.431 274.745 215.358 276.672 217.734 276.672Z" fill="#FFD700"/>
<path d="M231.258 276.672C233.635 276.672 235.562 274.745 235.562 272.367C235.562 269.99 233.635 268.062 231.258 268.062C228.882 268.062 226.955 269.99 226.955 272.367C226.955 274.745 228.882 276.672 231.258 276.672Z" fill="#FFD700"/>
<path d="M244.475 276.672C246.851 276.672 248.778 274.745 248.778 272.367C248.778 269.99 246.851 268.062 244.475 268.062C242.098 268.062 240.172 269.99 240.172 272.367C240.172 274.745 242.098 276.672 244.475 276.672Z" fill="#FFD700"/>
<path d="M257.692 276.672C260.069 276.672 261.995 274.745 261.995 272.367C261.995 269.99 260.069 268.062 257.692 268.062C255.315 268.062 253.389 269.99 253.389 272.367C253.389 274.745 255.315 276.672 257.692 276.672Z" fill="#FFD700"/>
<path d="M271.216 276.672C273.592 276.672 275.519 274.745 275.519 272.367C275.519 269.99 273.592 268.062 271.216 268.062C268.839 268.062 266.913 269.99 266.913 272.367C266.913 274.745 268.839 276.672 271.216 276.672Z" fill="#FFD700"/>
<path d="M284.74 276.672C287.116 276.672 289.043 274.745 289.043 272.367C289.043 269.99 287.116 268.062 284.74 268.062C282.363 268.062 280.437 269.99 280.437 272.367C280.437 274.745 282.363 276.672 284.74 276.672Z" fill="#FFD700"/>
<path d="M297.956 276.672C300.333 276.672 302.259 274.745 302.259 272.367C302.259 269.99 300.333 268.062 297.956 268.062C295.58 268.062 293.653 269.99 293.653 272.367C293.653 274.745 295.58 276.672 297.956 276.672Z" fill="#FFD700"/>
<path d="M110.771 263.45C113.148 263.45 115.074 261.523 115.074 259.145C115.074 256.767 113.148 254.84 110.771 254.84C108.395 254.84 106.468 256.767 106.468 259.145C106.468 261.523 108.395 263.45 110.771 263.45Z" fill="#FFD700"/>
<path d="M124.295 263.45C126.671 263.45 128.598 261.523 128.598 259.145C128.598 256.767 126.671 254.84 124.295 254.84C121.918 254.84 119.992 256.767 119.992 259.145C119.992 261.523 121.918 263.45 124.295 263.45Z" fill="#FFD700"/>
<path d="M137.512 263.45C139.889 263.45 141.815 261.523 141.815 259.145C141.815 256.767 139.889 254.84 137.512 254.84C135.136 254.84 133.209 256.767 133.209 259.145C133.209 261.523 135.136 263.45 137.512 263.45Z" fill="#FFD700"/>
<path d="M164.252 263.45C166.629 263.45 168.555 261.523 168.555 259.145C168.555 256.767 166.629 254.84 164.252 254.84C161.876 254.84 159.949 256.767 159.949 259.145C159.949 261.523 161.876 263.45 164.252 263.45Z" fill="#FFD700"/>
<path d="M177.777 263.45C180.154 263.45 182.08 261.523 182.08 259.145C182.08 256.767 180.154 254.84 177.777 254.84C175.4 254.84 173.474 256.767 173.474 259.145C173.474 261.523 175.4 263.45 177.777 263.45Z" fill="#FFD700"/>
<path d="M190.994 263.45C193.37 263.45 195.297 261.523 195.297 259.145C195.297 256.767 193.37 254.84 190.994 254.84C188.617 254.84 186.69 256.767 186.69 259.145C186.69 261.523 188.617 263.45 190.994 263.45Z" fill="#FFD700"/>
<path d="M244.475 263.45C246.851 263.45 248.778 261.523 248.778 259.145C248.778 256.767 246.851 254.84 244.475 254.84C242.098 254.84 240.172 256.767 240.172 259.145C240.172 261.523 242.098 263.45 244.475 263.45Z" fill="#FFD700"/>
<path d="M257.692 263.45C260.069 263.45 261.995 261.523 261.995 259.145C261.995 256.767 260.069 254.84 257.692 254.84C255.315 254.84 253.389 256.767 253.389 259.145C253.389 261.523 255.315 263.45 257.692 263.45Z" fill="#FFD700"/>
<path d="M271.216 263.45C273.592 263.45 275.519 261.523 275.519 259.145C275.519 256.767 273.592 254.84 271.216 254.84C268.839 254.84 266.913 256.767 266.913 259.145C266.913 261.523 268.839 263.45 271.216 263.45Z" fill="#FFD700"/>
<path d="M284.74 263.45C287.116 263.45 289.043 261.523 289.043 259.145C289.043 256.767 287.116 254.84 284.74 254.84C282.363 254.84 280.437 256.767 280.437 259.145C280.437 261.523 282.363 263.45 284.74 263.45Z" fill="#FFD700"/>
<path d="M297.956 263.45C300.333 263.45 302.259 261.523 302.259 259.145C302.259 256.767 300.333 254.84 297.956 254.84C295.58 254.84 293.653 256.767 293.653 259.145C293.653 261.523 295.58 263.45 297.956 263.45Z" fill="#FFD700"/>
<path d="M110.771 249.92C113.148 249.92 115.074 247.993 115.074 245.615C115.074 243.238 113.148 241.31 110.771 241.31C108.395 241.31 106.468 243.238 106.468 245.615C106.468 247.993 108.395 249.92 110.771 249.92Z" fill="#FFD700"/>
<path d="M124.295 249.92C126.671 249.92 128.598 247.993 128.598 245.615C128.598 243.238 126.671 241.31 124.295 241.31C121.918 241.31 119.992 243.238 119.992 245.615C119.992 247.993 121.918 249.92 124.295 249.92Z" fill="#FFD700"/>
<path d="M137.512 249.92C139.889 249.92 141.815 247.993 141.815 245.615C141.815 243.238 139.889 241.31 137.512 241.31C135.136 241.31 133.209 243.238 133.209 245.615C133.209 247.993 135.136 249.92 137.512 249.92Z" fill="#FFD700"/>
<path d="M150.729 249.92C153.105 249.92 155.032 247.993 155.032 245.615C155.032 243.238 153.105 241.31 150.729 241.31C148.352 241.31 146.425 243.238 146.425 245.615C146.425 247.993 148.352 249.92 150.729 249.92Z" fill="#FFD700"/>
<path d="M164.252 249.92C166.629 249.92 168.555 247.993 168.555 245.615C168.555 243.238 166.629 241.31 164.252 241.31C161.876 241.31 159.949 243.238 159.949 245.615C159.949 247.993 161.876 249.92 164.252 249.92Z" fill="#FFD700"/>
<path d="M177.777 249.92C180.154 249.92 182.08 247.993 182.08 245.615C182.08 243.238 180.154 241.31 177.777 241.31C175.4 241.31 173.474 243.238 173.474 245.615C173.474 247.993 175.4 249.92 177.777 249.92Z" fill="#FFD700"/>
<path d="M190.994 249.92C193.37 249.92 195.297 247.993 195.297 245.615C195.297 243.238 193.37 241.31 190.994 241.31C188.617 241.31 186.69 243.238 186.69 245.615C186.69 247.993 188.617 249.92 190.994 249.92Z" fill="#FFD700"/>
<path d="M204.518 249.92C206.894 249.92 208.821 247.993 208.821 245.615C208.821 243.238 206.894 241.31 204.518 241.31C202.141 241.31 200.214 243.238 200.214 245.615C200.214 247.993 202.141 249.92 204.518 249.92Z" fill="#FFD700"/>
<path d="M217.734 249.92C220.111 249.92 222.037 247.993 222.037 245.615C222.037 243.238 220.111 241.31 217.734 241.31C215.358 241.31 213.431 243.238 213.431 245.615C213.431 247.993 215.358 249.92 217.734 249.92Z" fill="#FFD700"/>
<path d="M231.258 249.92C233.635 249.92 235.562 247.993 235.562 245.615C235.562 243.238 233.635 241.31 231.258 241.31C228.882 241.31 226.955 243.238 226.955 245.615C226.955 247.993 228.882 249.92 231.258 249.92Z" fill="#FFD700"/>
<path d="M271.216 249.92C273.592 249.92 275.519 247.993 275.519 245.615C275.519 243.238 273.592 241.31 271.216 241.31C268.839 241.31 266.913 243.238 266.913 245.615C266.913 247.993 268.839 249.92 271.216 249.92Z" fill="#FFD700"/>
<path d="M284.74 249.92C287.116 249.92 289.043 247.993 289.043 245.615C289.043 243.238 287.116 241.31 284.74 241.31C282.363 241.31 280.437 243.238 280.437 245.615C280.437 247.993 282.363 249.92 284.74 249.92Z" fill="#FFD700"/>
<path d="M297.956 249.92C300.333 249.92 302.259 247.993 302.259 245.615C302.259 243.238 300.333 241.31 297.956 241.31C295.58 241.31 293.653 243.238 293.653 245.615C293.653 247.993 295.58 249.92 297.956 249.92Z" fill="#FFD700"/>
<path d="M124.295 236.697C126.671 236.697 128.598 234.77 128.598 232.392C128.598 230.015 126.671 228.088 124.295 228.088C121.918 228.088 119.992 230.015 119.992 232.392C119.992 234.77 121.918 236.697 124.295 236.697Z" fill="#FFD700"/>
<path d="M137.512 236.697C139.889 236.697 141.815 234.77 141.815 232.392C141.815 230.015 139.889 228.088 137.512 228.088C135.136 228.088 133.209 230.015 133.209 232.392C133.209 234.77 135.136 236.697 137.512 236.697Z" fill="#FFD700"/>
<path d="M150.729 236.697C153.105 236.697 155.032 234.77 155.032 232.392C155.032 230.015 153.105 228.088 150.729 228.088C148.352 228.088 146.425 230.015 146.425 232.392C146.425 234.77 148.352 236.697 150.729 236.697Z" fill="#FFD700"/>
<path d="M164.252 236.697C166.629 236.697 168.555 234.77 168.555 232.392C168.555 230.015 166.629 228.088 164.252 228.088C161.876 228.088 159.949 230.015 159.949 232.392C159.949 234.77 161.876 236.697 164.252 236.697Z" fill="#FFD700"/>
<path d="M177.777 236.697C180.154 236.697 182.08 234.77 182.08 232.392C182.08 230.015 180.154 228.088 177.777 228.088C175.4 228.088 173.474 230.015 173.474 232.392C173.474 234.77 175.4 236.697 177.777 236.697Z" fill="#FFD700"/>
<path d="M190.994 236.697C193.37 236.697 195.297 234.77 195.297 232.392C195.297 230.015 193.37 228.088 190.994 228.088C188.617 228.088 186.69 230.015 186.69 232.392C186.69 234.77 188.617 236.697 190.994 236.697Z" fill="#FFD700"/>
<path d="M204.518 236.697C206.894 236.697 208.821 234.77 208.821 232.392C208.821 230.015 206.894 228.088 204.518 228.088C202.141 228.088 200.214 230.015 200.214 232.392C200.214 234.77 202.141 236.697 204.518 236.697Z" fill="#FFD700"/>
<path d="M217.734 236.697C220.111 236.697 222.037 234.77 222.037 232.392C222.037 230.015 220.111 228.088 217.734 228.088C215.358 228.088 213.431 230.015 213.431 232.392C213.431 234.77 215.358 236.697 217.734 236.697Z" fill="#FFD700"/>
<path d="M257.692 236.697C260.069 236.697 261.995 234.77 261.995 232.392C261.995 230.015 260.069 228.088 257.692 228.088C255.315 228.088 253.389 230.015 253.389 232.392C253.389 234.77 255.315 236.697 257.692 236.697Z" fill="#FFD700"/>
<path d="M284.74 236.697C287.116 236.697 289.043 234.77 289.043 232.392C289.043 230.015 287.116 228.088 284.74 228.088C282.363 228.088 280.437 230.015 280.437 232.392C280.437 234.77 282.363 236.697 284.74 236.697Z" fill="#FFD700"/>
<path d="M297.956 236.697C300.333 236.697 302.259 234.77 302.259 232.392C302.259 230.015 300.333 228.088 297.956 228.088C295.58 228.088 293.653 230.015 293.653 232.392C293.653 234.77 295.58 236.697 297.956 236.697Z" fill="#FFD700"/>
<path d="M124.295 223.168C126.671 223.168 128.598 221.24 128.598 218.863C128.598 216.485 126.671 214.558 124.295 214.558C121.918 214.558 119.992 216.485 119.992 218.863C119.992 221.24 121.918 223.168 124.295 223.168Z" fill="#FFD700"/>
<path d="M137.512 223.168C139.889 223.168 141.815 221.24 141.815 218.863C141.815 216.485 139.889 214.558 137.512 214.558C135.136 214.558 133.209 216.485 133.209 218.863C133.209 221.24 135.136 223.168 137.512 223.168Z" fill="#FFD700"/>
<path d="M150.729 223.168C153.105 223.168 155.032 221.24 155.032 218.863C155.032 216.485 153.105 214.558 150.729 214.558C148.352 214.558 146.425 216.485 146.425 218.863C146.425 221.24 148.352 223.168 150.729 223.168Z" fill="#FFD700"/>
<path d="M164.252 223.168C166.629 223.168 168.555 221.24 168.555 218.863C168.555 216.485 166.629 214.558 164.252 214.558C161.876 214.558 159.949 216.485 159.949 218.863C159.949 221.24 161.876 223.168 164.252 223.168Z" fill="#FFD700"/>
<path d="M177.777 223.168C180.154 223.168 182.08 221.24 182.08 218.863C182.08 216.485 180.154 214.558 177.777 214.558C175.4 214.558 173.474 216.485 173.474 218.863C173.474 221.24 175.4 223.168 177.777 223.168Z" fill="#FFD700"/>
<path d="M190.994 223.168C193.37 223.168 195.297 221.24 195.297 218.863C195.297 216.485 193.37 214.558 190.994 214.558C188.617 214.558 186.69 216.485 186.69 218.863C186.69 221.24 188.617 223.168 190.994 223.168Z" fill="#FFD700"/>
<path d="M204.518 223.168C206.894 223.168 208.821 221.24 208.821 218.863C208.821 216.485 206.894 214.558 204.518 214.558C202.141 214.558 200.214 216.485 200.214 218.863C200.214 221.24 202.141 223.168 204.518 223.168Z" fill="#FFD700"/>
<path d="M217.734 223.168C220.111 223.168 222.037 221.24 222.037 218.863C222.037 216.485 220.111 214.558 217.734 214.558C215.358 214.558 213.431 216.485 213.431 218.863C213.431 221.24 215.358 223.168 217.734 223.168Z" fill="#FFD700"/>
<path d="M150.729 209.945C153.105 209.945 155.032 208.018 155.032 205.64C155.032 203.263 153.105 201.335 150.729 201.335C148.352 201.335 146.425 203.263 146.425 205.64C146.425 208.018 148.352 209.945 150.729 209.945Z" fill="#FFD700"/>
<path d="M164.252 209.945C166.629 209.945 168.555 208.018 168.555 205.64C168.555 203.263 166.629 201.335 164.252 201.335C161.876 201.335 159.949 203.263 159.949 205.64C159.949 208.018 161.876 209.945 164.252 209.945Z" fill="#FFD700"/>
<path d="M177.777 209.945C180.154 209.945 182.08 208.018 182.08 205.64C182.08 203.263 180.154 201.335 177.777 201.335C175.4 201.335 173.474 203.263 173.474 205.64C173.474 208.018 175.4 209.945 177.777 209.945Z" fill="#FFD700"/>
<path d="M164.252 196.415C166.629 196.415 168.555 194.488 168.555 192.11C168.555 189.733 166.629 187.805 164.252 187.805C161.876 187.805 159.949 189.733 159.949 192.11C159.949 194.488 161.876 196.415 164.252 196.415Z" fill="#FFD700"/>
<path d="M297.956 196.415C300.333 196.415 302.259 194.488 302.259 192.11C302.259 189.733 300.333 187.805 297.956 187.805C295.58 187.805 293.653 189.733 293.653 192.11C293.653 194.488 295.58 196.415 297.956 196.415Z" fill="#FFD700"/>
<path d="M297.956 183.193C300.333 183.193 302.259 181.265 302.259 178.888C302.259 176.51 300.333 174.583 297.956 174.583C295.58 174.583 293.653 176.51 293.653 178.888C293.653 181.265 295.58 183.193 297.956 183.193Z" fill="#FFD700"/>
<path d="M297.956 169.97C300.333 169.97 302.259 168.043 302.259 165.665C302.259 163.288 300.333 161.36 297.956 161.36C295.58 161.36 293.653 163.288 293.653 165.665C293.653 168.043 295.58 169.97 297.956 169.97Z" fill="#FFD700"/>
<path d="M297.956 156.44C300.333 156.44 302.259 154.513 302.259 152.135C302.259 149.758 300.333 147.83 297.956 147.83C295.58 147.83 293.653 149.758 293.653 152.135C293.653 154.513 295.58 156.44 297.956 156.44Z" fill="#FFD700"/>
<path d="M311.173 142.911C313.55 142.911 315.477 140.983 315.477 138.606C315.477 136.228 313.55 134.301 311.173 134.301C308.797 134.301 306.87 136.228 306.87 138.606C306.87 140.983 308.797 142.911 311.173 142.911Z" fill="#FFD700"/>
<path d="M311.173 129.688C313.55 129.688 315.477 127.761 315.477 125.383C315.477 123.006 313.55 121.078 311.173 121.078C308.797 121.078 306.87 123.006 306.87 125.383C306.87 127.761 308.797 129.688 311.173 129.688Z" fill="#FFD700"/>
<path d="M324.697 129.688C327.074 129.688 329 127.761 329 125.383C329 123.006 327.074 121.078 324.697 121.078C322.321 121.078 320.394 123.006 320.394 125.383C320.394 127.761 322.321 129.688 324.697 129.688Z" fill="#FFD700"/>
<path d="M324.697 116.158C327.074 116.158 329 114.231 329 111.853C329 109.476 327.074 107.548 324.697 107.548C322.321 107.548 320.394 109.476 320.394 111.853C320.394 114.231 322.321 116.158 324.697 116.158Z" fill="#FFD700"/>
<path d="M338.221 116.158C340.598 116.158 342.524 114.231 342.524 111.853C342.524 109.476 340.598 107.548 338.221 107.548C335.845 107.548 333.918 109.476 333.918 111.853C333.918 114.231 335.845 116.158 338.221 116.158Z" fill="#FFD700"/>
<path d="M351.438 116.158C353.815 116.158 355.741 114.231 355.741 111.853C355.741 109.476 353.815 107.548 351.438 107.548C349.062 107.548 347.135 109.476 347.135 111.853C347.135 114.231 349.062 116.158 351.438 116.158Z" fill="#FFD700"/>
<path d="M124.295 102.936C126.671 102.936 128.598 101.008 128.598 98.6307C128.598 96.2531 126.671 94.3257 124.295 94.3257C121.918 94.3257 119.992 96.2531 119.992 98.6307C119.992 101.008 121.918 102.936 124.295 102.936Z" fill="#FFD700"/>
<path d="M351.438 102.936C353.815 102.936 355.741 101.008 355.741 98.6307C355.741 96.2531 353.815 94.3257 351.438 94.3257C349.062 94.3257 347.135 96.2531 347.135 98.6307C347.135 101.008 349.062 102.936 351.438 102.936Z" fill="#FFD700"/>
<path d="M364.962 102.936C367.339 102.936 369.265 101.008 369.265 98.6307C369.265 96.2531 367.339 94.3257 364.962 94.3257C362.586 94.3257 360.659 96.2531 360.659 98.6307C360.659 101.008 362.586 102.936 364.962 102.936Z" fill="#FFD700"/>
<path d="M124.295 89.4062C126.671 89.4062 128.598 87.4787 128.598 85.1012C128.598 82.7236 126.671 80.7962 124.295 80.7962C121.918 80.7962 119.992 82.7236 119.992 85.1012C119.992 87.4787 121.918 89.4062 124.295 89.4062Z" fill="#FFD700"/>
<path d="M110.771 76.1835C113.148 76.1835 115.074 74.2561 115.074 71.8785C115.074 69.5009 113.148 67.5735 110.771 67.5735C108.395 67.5735 106.468 69.5009 106.468 71.8785C106.468 74.2561 108.395 76.1835 110.771 76.1835Z" fill="#FFD700"/>
<path d="M124.295 76.1835C126.671 76.1835 128.598 74.2561 128.598 71.8785C128.598 69.5009 126.671 67.5735 124.295 67.5735C121.918 67.5735 119.992 69.5009 119.992 71.8785C119.992 74.2561 121.918 76.1835 124.295 76.1835Z" fill="#FFD700"/>
<path d="M110.771 62.6533C113.148 62.6533 115.074 60.7259 115.074 58.3483C115.074 55.9707 113.148 54.0433 110.771 54.0433C108.395 54.0433 106.468 55.9707 106.468 58.3483C106.468 60.7259 108.395 62.6533 110.771 62.6533Z" fill="#FFD700"/>
<path d="M124.295 62.6533C126.671 62.6533 128.598 60.7259 128.598 58.3483C128.598 55.9707 126.671 54.0433 124.295 54.0433C121.918 54.0433 119.992 55.9707 119.992 58.3483C119.992 60.7259 121.918 62.6533 124.295 62.6533Z" fill="#FFD700"/>
<path d="M110.771 49.4311C113.148 49.4311 115.074 47.5037 115.074 45.1261C115.074 42.7486 113.148 40.8212 110.771 40.8212C108.395 40.8212 106.468 42.7486 106.468 45.1261C106.468 47.5037 108.395 49.4311 110.771 49.4311Z" fill="#FFD700"/>
<path d="M124.295 49.4311C126.671 49.4311 128.598 47.5037 128.598 45.1261C128.598 42.7486 126.671 40.8212 124.295 40.8212C121.918 40.8212 119.992 42.7486 119.992 45.1261C119.992 47.5037 121.918 49.4311 124.295 49.4311Z" fill="#FFD700"/>
<path d="M137.512 49.4311C139.889 49.4311 141.815 47.5037 141.815 45.1261C141.815 42.7486 139.889 40.8212 137.512 40.8212C135.136 40.8212 133.209 42.7486 133.209 45.1261C133.209 47.5037 135.136 49.4311 137.512 49.4311Z" fill="#FFD700"/>
<path d="M151.036 49.4311C153.413 49.4311 155.339 47.5037 155.339 45.1261C155.339 42.7486 153.413 40.8212 151.036 40.8212C148.66 40.8212 146.733 42.7486 146.733 45.1261C146.733 47.5037 148.66 49.4311 151.036 49.4311Z" fill="#FFD700"/>
<path d="M97.5547 35.9011C99.9312 35.9011 101.858 33.9737 101.858 31.5961C101.858 29.2185 99.9312 27.2911 97.5547 27.2911C95.1781 27.2911 93.2516 29.2185 93.2516 31.5961C93.2516 33.9737 95.1781 35.9011 97.5547 35.9011Z" fill="#FFD700"/>
<path d="M110.771 35.9011C113.148 35.9011 115.074 33.9737 115.074 31.5961C115.074 29.2185 113.148 27.2911 110.771 27.2911C108.395 27.2911 106.468 29.2185 106.468 31.5961C106.468 33.9737 108.395 35.9011 110.771 35.9011Z" fill="#FFD700"/>
<path d="M124.295 35.9011C126.671 35.9011 128.598 33.9737 128.598 31.5961C128.598 29.2185 126.671 27.2911 124.295 27.2911C121.918 27.2911 119.992 29.2185 119.992 31.5961C119.992 33.9737 121.918 35.9011 124.295 35.9011Z" fill="#FFD700"/>
<path d="M151.036 35.9011C153.413 35.9011 155.339 33.9737 155.339 31.5961C155.339 29.2185 153.413 27.2911 151.036 27.2911C148.66 27.2911 146.733 29.2185 146.733 31.5961C146.733 33.9737 148.66 35.9011 151.036 35.9011Z" fill="#FFD700"/>
<path d="M164.252 35.9011C166.629 35.9011 168.555 33.9737 168.555 31.5961C168.555 29.2185 166.629 27.2911 164.252 27.2911C161.876 27.2911 159.949 29.2185 159.949 31.5961C159.949 33.9737 161.876 35.9011 164.252 35.9011Z" fill="#FFD700"/>
<path d="M137.512 22.6784C139.889 22.6784 141.815 20.751 141.815 18.3735C141.815 15.9959 139.889 14.0685 137.512 14.0685C135.136 14.0685 133.209 15.9959 133.209 18.3735C133.209 20.751 135.136 22.6784 137.512 22.6784Z" fill="#FFD700"/>
<path d="M151.036 22.6784C153.413 22.6784 155.339 20.751 155.339 18.3735C155.339 15.9959 153.413 14.0685 151.036 14.0685C148.66 14.0685 146.733 15.9959 146.733 18.3735C146.733 20.751 148.66 22.6784 151.036 22.6784Z" fill="#FFD700"/>
<path d="M164.252 22.6784C166.629 22.6784 168.555 20.751 168.555 18.3735C168.555 15.9959 166.629 14.0685 164.252 14.0685C161.876 14.0685 159.949 15.9959 159.949 18.3735C159.949 20.751 161.876 22.6784 164.252 22.6784Z" fill="#FFD700"/>
<path d="M137.512 9.14885C139.889 9.14885 141.815 7.22144 141.815 4.84387C141.815 2.46629 139.889 0.538879 137.512 0.538879C135.136 0.538879 133.209 2.46629 133.209 4.84387C133.209 7.22144 135.136 9.14885 137.512 9.14885Z" fill="#FFD700"/>
<path d="M151.036 9.14885C153.413 9.14885 155.339 7.22144 155.339 4.84387C155.339 2.46629 153.413 0.538879 151.036 0.538879C148.66 0.538879 146.733 2.46629 146.733 4.84387C146.733 7.22144 148.66 9.14885 151.036 9.14885Z" fill="#FFD700"/>
</svg>
