<svg width="351" height="582" viewBox="0 0 351 582" fill="none" xmlns="http://www.w3.org/2000/svg">
<path d="M91.4271 581.757C95.163 581.757 98.1917 578.727 98.1917 574.99C98.1917 571.252 95.163 568.222 91.4271 568.222C87.6911 568.222 84.6626 571.252 84.6626 574.99C84.6626 578.727 87.6911 581.757 91.4271 581.757Z" fill="black"/>
<path d="M70.6502 560.488C74.3861 560.488 77.4147 557.458 77.4147 553.721C77.4147 549.983 74.3861 546.953 70.6502 546.953C66.9143 546.953 63.8857 549.983 63.8857 553.721C63.8857 557.458 66.9143 560.488 70.6502 560.488Z" fill="black"/>
<path d="M91.4271 560.488C95.163 560.488 98.1917 557.458 98.1917 553.721C98.1917 549.983 95.163 546.953 91.4271 546.953C87.6911 546.953 84.6626 549.983 84.6626 553.721C84.6626 557.458 87.6911 560.488 91.4271 560.488Z" fill="black"/>
<path d="M70.6502 539.702C74.3861 539.702 77.4147 536.673 77.4147 532.935C77.4147 529.198 74.3861 526.168 70.6502 526.168C66.9143 526.168 63.8857 529.198 63.8857 532.935C63.8857 536.673 66.9143 539.702 70.6502 539.702Z" fill="black"/>
<path d="M70.6502 518.433C74.3861 518.433 77.4147 515.403 77.4147 511.665C77.4147 507.928 74.3861 504.898 70.6502 504.898C66.9143 504.898 63.8857 507.928 63.8857 511.665C63.8857 515.403 66.9143 518.433 70.6502 518.433Z" fill="black"/>
<path d="M91.4271 518.433C95.163 518.433 98.1917 515.403 98.1917 511.665C98.1917 507.928 95.163 504.898 91.4271 504.898C87.6911 504.898 84.6626 507.928 84.6626 511.665C84.6626 515.403 87.6911 518.433 91.4271 518.433Z" fill="black"/>
<path d="M49.3904 497.647C53.1264 497.647 56.1549 494.617 56.1549 490.88C56.1549 487.142 53.1264 484.112 49.3904 484.112C45.6545 484.112 42.626 487.142 42.626 490.88C42.626 494.617 45.6545 497.647 49.3904 497.647Z" fill="black"/>
<path d="M70.6502 497.647C74.3861 497.647 77.4147 494.617 77.4147 490.88C77.4147 487.142 74.3861 484.112 70.6502 484.112C66.9143 484.112 63.8857 487.142 63.8857 490.88C63.8857 494.617 66.9143 497.647 70.6502 497.647Z" fill="black"/>
<path d="M91.4271 497.647C95.163 497.647 98.1917 494.617 98.1917 490.88C98.1917 487.142 95.163 484.112 91.4271 484.112C87.6911 484.112 84.6626 487.142 84.6626 490.88C84.6626 494.617 87.6911 497.647 91.4271 497.647Z" fill="black"/>
<path d="M112.686 497.647C116.422 497.647 119.451 494.617 119.451 490.88C119.451 487.142 116.422 484.112 112.686 484.112C108.95 484.112 105.922 487.142 105.922 490.88C105.922 494.617 108.95 497.647 112.686 497.647Z" fill="black"/>
<path d="M70.6502 476.379C74.3861 476.379 77.4147 473.349 77.4147 469.611C77.4147 465.874 74.3861 462.844 70.6502 462.844C66.9143 462.844 63.8857 465.874 63.8857 469.611C63.8857 473.349 66.9143 476.379 70.6502 476.379Z" fill="black"/>
<path d="M91.4271 476.379C95.163 476.379 98.1917 473.349 98.1917 469.611C98.1917 465.874 95.163 462.844 91.4271 462.844C87.6911 462.844 84.6626 465.874 84.6626 469.611C84.6626 473.349 87.6911 476.379 91.4271 476.379Z" fill="black"/>
<path d="M70.6502 455.593C74.3861 455.593 77.4147 452.563 77.4147 448.826C77.4147 445.088 74.3861 442.058 70.6502 442.058C66.9143 442.058 63.8857 445.088 63.8857 448.826C63.8857 452.563 66.9143 455.593 70.6502 455.593Z" fill="black"/>
<path d="M91.4271 455.593C95.163 455.593 98.1917 452.563 98.1917 448.826C98.1917 445.088 95.163 442.058 91.4271 442.058C87.6911 442.058 84.6626 445.088 84.6626 448.826C84.6626 452.563 87.6911 455.593 91.4271 455.593Z" fill="black"/>
<path d="M112.686 455.593C116.422 455.593 119.451 452.563 119.451 448.826C119.451 445.088 116.422 442.058 112.686 442.058C108.95 442.058 105.922 445.088 105.922 448.826C105.922 452.563 108.95 455.593 112.686 455.593Z" fill="black"/>
<path d="M70.6502 434.325C74.3861 434.325 77.4147 431.295 77.4147 427.557C77.4147 423.82 74.3861 420.79 70.6502 420.79C66.9143 420.79 63.8857 423.82 63.8857 427.557C63.8857 431.295 66.9143 434.325 70.6502 434.325Z" fill="black"/>
<path d="M91.4271 434.325C95.163 434.325 98.1917 431.295 98.1917 427.557C98.1917 423.82 95.163 420.79 91.4271 420.79C87.6911 420.79 84.6626 423.82 84.6626 427.557C84.6626 431.295 87.6911 434.325 91.4271 434.325Z" fill="black"/>
<path d="M112.686 434.325C116.422 434.325 119.451 431.295 119.451 427.557C119.451 423.82 116.422 420.79 112.686 420.79C108.95 420.79 105.922 423.82 105.922 427.557C105.922 431.295 108.95 434.325 112.686 434.325Z" fill="black"/>
<path d="M133.464 434.325C137.2 434.325 140.229 431.295 140.229 427.557C140.229 423.82 137.2 420.79 133.464 420.79C129.728 420.79 126.7 423.82 126.7 427.557C126.7 431.295 129.728 434.325 133.464 434.325Z" fill="black"/>
<path d="M70.6502 413.539C74.3861 413.539 77.4147 410.509 77.4147 406.771C77.4147 403.034 74.3861 400.004 70.6502 400.004C66.9143 400.004 63.8857 403.034 63.8857 406.771C63.8857 410.509 66.9143 413.539 70.6502 413.539Z" fill="black"/>
<path d="M91.4271 413.539C95.163 413.539 98.1917 410.509 98.1917 406.771C98.1917 403.034 95.163 400.004 91.4271 400.004C87.6911 400.004 84.6626 403.034 84.6626 406.771C84.6626 410.509 87.6911 413.539 91.4271 413.539Z" fill="black"/>
<path d="M112.686 413.539C116.422 413.539 119.451 410.509 119.451 406.771C119.451 403.034 116.422 400.004 112.686 400.004C108.95 400.004 105.922 403.034 105.922 406.771C105.922 410.509 108.95 413.539 112.686 413.539Z" fill="black"/>
<path d="M133.464 413.539C137.2 413.539 140.229 410.509 140.229 406.771C140.229 403.034 137.2 400.004 133.464 400.004C129.728 400.004 126.7 403.034 126.7 406.771C126.7 410.509 129.728 413.539 133.464 413.539Z" fill="black"/>
<path d="M154.722 413.539C158.458 413.539 161.487 410.509 161.487 406.771C161.487 403.034 158.458 400.004 154.722 400.004C150.986 400.004 147.958 403.034 147.958 406.771C147.958 410.509 150.986 413.539 154.722 413.539Z" fill="black"/>
<path d="M175.5 413.539C179.236 413.539 182.264 410.509 182.264 406.771C182.264 403.034 179.236 400.004 175.5 400.004C171.764 400.004 168.735 403.034 168.735 406.771C168.735 410.509 171.764 413.539 175.5 413.539Z" fill="black"/>
<path d="M70.6502 392.27C74.3861 392.27 77.4147 389.24 77.4147 385.503C77.4147 381.765 74.3861 378.735 70.6502 378.735C66.9143 378.735 63.8857 381.765 63.8857 385.503C63.8857 389.24 66.9143 392.27 70.6502 392.27Z" fill="black"/>
<path d="M91.4271 392.27C95.163 392.27 98.1917 389.24 98.1917 385.503C98.1917 381.765 95.163 378.735 91.4271 378.735C87.6911 378.735 84.6626 381.765 84.6626 385.503C84.6626 389.24 87.6911 392.27 91.4271 392.27Z" fill="black"/>
<path d="M112.686 392.27C116.422 392.27 119.451 389.24 119.451 385.503C119.451 381.765 116.422 378.735 112.686 378.735C108.95 378.735 105.922 381.765 105.922 385.503C105.922 389.24 108.95 392.27 112.686 392.27Z" fill="black"/>
<path d="M133.464 392.27C137.2 392.27 140.229 389.24 140.229 385.503C140.229 381.765 137.2 378.735 133.464 378.735C129.728 378.735 126.7 381.765 126.7 385.503C126.7 389.24 129.728 392.27 133.464 392.27Z" fill="black"/>
<path d="M154.722 392.27C158.458 392.27 161.487 389.24 161.487 385.503C161.487 381.765 158.458 378.735 154.722 378.735C150.986 378.735 147.958 381.765 147.958 385.503C147.958 389.24 150.986 392.27 154.722 392.27Z" fill="black"/>
<path d="M175.5 392.27C179.236 392.27 182.264 389.24 182.264 385.503C182.264 381.765 179.236 378.735 175.5 378.735C171.764 378.735 168.735 381.765 168.735 385.503C168.735 389.24 171.764 392.27 175.5 392.27Z" fill="black"/>
<path d="M91.4271 371.484C95.163 371.484 98.1917 368.454 98.1917 364.717C98.1917 360.979 95.163 357.949 91.4271 357.949C87.6911 357.949 84.6626 360.979 84.6626 364.717C84.6626 368.454 87.6911 371.484 91.4271 371.484Z" fill="black"/>
<path d="M112.686 371.484C116.422 371.484 119.451 368.454 119.451 364.717C119.451 360.979 116.422 357.949 112.686 357.949C108.95 357.949 105.922 360.979 105.922 364.717C105.922 368.454 108.95 371.484 112.686 371.484Z" fill="black"/>
<path d="M133.464 371.484C137.2 371.484 140.229 368.454 140.229 364.717C140.229 360.979 137.2 357.949 133.464 357.949C129.728 357.949 126.7 360.979 126.7 364.717C126.7 368.454 129.728 371.484 133.464 371.484Z" fill="black"/>
<path d="M154.722 371.484C158.458 371.484 161.487 368.454 161.487 364.717C161.487 360.979 158.458 357.949 154.722 357.949C150.986 357.949 147.958 360.979 147.958 364.717C147.958 368.454 150.986 371.484 154.722 371.484Z" fill="black"/>
<path d="M175.5 371.484C179.236 371.484 182.264 368.454 182.264 364.717C182.264 360.979 179.236 357.949 175.5 357.949C171.764 357.949 168.735 360.979 168.735 364.717C168.735 368.454 171.764 371.484 175.5 371.484Z" fill="black"/>
<path d="M196.761 371.484C200.497 371.484 203.525 368.454 203.525 364.717C203.525 360.979 200.497 357.949 196.761 357.949C193.025 357.949 189.996 360.979 189.996 364.717C189.996 368.454 193.025 371.484 196.761 371.484Z" fill="black"/>
<path d="M70.6502 350.215C74.3861 350.215 77.4147 347.185 77.4147 343.447C77.4147 339.71 74.3861 336.68 70.6502 336.68C66.9143 336.68 63.8857 339.71 63.8857 343.447C63.8857 347.185 66.9143 350.215 70.6502 350.215Z" fill="black"/>
<path d="M91.4271 350.215C95.163 350.215 98.1917 347.185 98.1917 343.447C98.1917 339.71 95.163 336.68 91.4271 336.68C87.6911 336.68 84.6626 339.71 84.6626 343.447C84.6626 347.185 87.6911 350.215 91.4271 350.215Z" fill="black"/>
<path d="M112.686 350.215C116.422 350.215 119.451 347.185 119.451 343.447C119.451 339.71 116.422 336.68 112.686 336.68C108.95 336.68 105.922 339.71 105.922 343.447C105.922 347.185 108.95 350.215 112.686 350.215Z" fill="black"/>
<path d="M133.464 350.215C137.2 350.215 140.229 347.185 140.229 343.447C140.229 339.71 137.2 336.68 133.464 336.68C129.728 336.68 126.7 339.71 126.7 343.447C126.7 347.185 129.728 350.215 133.464 350.215Z" fill="black"/>
<path d="M154.722 350.215C158.458 350.215 161.487 347.185 161.487 343.447C161.487 339.71 158.458 336.68 154.722 336.68C150.986 336.68 147.958 339.71 147.958 343.447C147.958 347.185 150.986 350.215 154.722 350.215Z" fill="black"/>
<path d="M175.5 350.215C179.236 350.215 182.264 347.185 182.264 343.447C182.264 339.71 179.236 336.68 175.5 336.68C171.764 336.68 168.735 339.71 168.735 343.447C168.735 347.185 171.764 350.215 175.5 350.215Z" fill="black"/>
<path d="M196.761 350.215C200.497 350.215 203.525 347.185 203.525 343.447C203.525 339.71 200.497 336.68 196.761 336.68C193.025 336.68 189.996 339.71 189.996 343.447C189.996 347.185 193.025 350.215 196.761 350.215Z" fill="black"/>
<path d="M218.02 350.215C221.756 350.215 224.784 347.185 224.784 343.447C224.784 339.71 221.756 336.68 218.02 336.68C214.284 336.68 211.255 339.71 211.255 343.447C211.255 347.185 214.284 350.215 218.02 350.215Z" fill="black"/>
<path d="M91.4271 329.429C95.163 329.429 98.1917 326.4 98.1917 322.662C98.1917 318.924 95.163 315.895 91.4271 315.895C87.6911 315.895 84.6626 318.924 84.6626 322.662C84.6626 326.4 87.6911 329.429 91.4271 329.429Z" fill="black"/>
<path d="M112.204 329.429C115.94 329.429 118.969 326.4 118.969 322.662C118.969 318.924 115.94 315.895 112.204 315.895C108.468 315.895 105.44 318.924 105.44 322.662C105.44 326.4 108.468 329.429 112.204 329.429Z" fill="black"/>
<path d="M133.464 329.429C137.2 329.429 140.229 326.4 140.229 322.662C140.229 318.924 137.2 315.895 133.464 315.895C129.728 315.895 126.7 318.924 126.7 322.662C126.7 326.4 129.728 329.429 133.464 329.429Z" fill="black"/>
<path d="M154.722 329.429C158.458 329.429 161.487 326.4 161.487 322.662C161.487 318.924 158.458 315.895 154.722 315.895C150.986 315.895 147.958 318.924 147.958 322.662C147.958 326.4 150.986 329.429 154.722 329.429Z" fill="black"/>
<path d="M175.5 329.429C179.236 329.429 182.264 326.4 182.264 322.662C182.264 318.924 179.236 315.895 175.5 315.895C171.764 315.895 168.735 318.924 168.735 322.662C168.735 326.4 171.764 329.429 175.5 329.429Z" fill="black"/>
<path d="M196.761 329.429C200.497 329.429 203.525 326.4 203.525 322.662C203.525 318.924 200.497 315.895 196.761 315.895C193.025 315.895 189.996 318.924 189.996 322.662C189.996 326.4 193.025 329.429 196.761 329.429Z" fill="black"/>
<path d="M218.02 329.429C221.756 329.429 224.784 326.4 224.784 322.662C224.784 318.924 221.756 315.895 218.02 315.895C214.284 315.895 211.255 318.924 211.255 322.662C211.255 326.4 214.284 329.429 218.02 329.429Z" fill="black"/>
<path d="M238.795 329.429C242.531 329.429 245.56 326.4 245.56 322.662C245.56 318.924 242.531 315.895 238.795 315.895C235.059 315.895 232.031 318.924 232.031 322.662C232.031 326.4 235.059 329.429 238.795 329.429Z" fill="black"/>
<path d="M91.4271 308.644C95.163 308.644 98.1917 305.614 98.1917 301.876C98.1917 298.139 95.163 295.109 91.4271 295.109C87.6911 295.109 84.6626 298.139 84.6626 301.876C84.6626 305.614 87.6911 308.644 91.4271 308.644Z" fill="black"/>
<path d="M112.204 308.644C115.94 308.644 118.969 305.614 118.969 301.876C118.969 298.139 115.94 295.109 112.204 295.109C108.468 295.109 105.44 298.139 105.44 301.876C105.44 305.614 108.468 308.644 112.204 308.644Z" fill="black"/>
<path d="M133.464 308.644C137.2 308.644 140.229 305.614 140.229 301.876C140.229 298.139 137.2 295.109 133.464 295.109C129.728 295.109 126.7 298.139 126.7 301.876C126.7 305.614 129.728 308.644 133.464 308.644Z" fill="black"/>
<path d="M154.722 308.644C158.458 308.644 161.487 305.614 161.487 301.876C161.487 298.139 158.458 295.109 154.722 295.109C150.986 295.109 147.958 298.139 147.958 301.876C147.958 305.614 150.986 308.644 154.722 308.644Z" fill="black"/>
<path d="M175.5 308.644C179.236 308.644 182.264 305.614 182.264 301.876C182.264 298.139 179.236 295.109 175.5 295.109C171.764 295.109 168.735 298.139 168.735 301.876C168.735 305.614 171.764 308.644 175.5 308.644Z" fill="black"/>
<path d="M196.761 308.644C200.497 308.644 203.525 305.614 203.525 301.876C203.525 298.139 200.497 295.109 196.761 295.109C193.025 295.109 189.996 298.139 189.996 301.876C189.996 305.614 193.025 308.644 196.761 308.644Z" fill="black"/>
<path d="M218.02 308.644C221.756 308.644 224.784 305.614 224.784 301.876C224.784 298.139 221.756 295.109 218.02 295.109C214.284 295.109 211.255 298.139 211.255 301.876C211.255 305.614 214.284 308.644 218.02 308.644Z" fill="black"/>
<path d="M238.795 308.644C242.531 308.644 245.56 305.614 245.56 301.876C245.56 298.139 242.531 295.109 238.795 295.109C235.059 295.109 232.031 298.139 232.031 301.876C232.031 305.614 235.059 308.644 238.795 308.644Z" fill="black"/>
<path d="M91.4271 287.375C95.163 287.375 98.1917 284.345 98.1917 280.607C98.1917 276.87 95.163 273.84 91.4271 273.84C87.6911 273.84 84.6626 276.87 84.6626 280.607C84.6626 284.345 87.6911 287.375 91.4271 287.375Z" fill="black"/>
<path d="M112.204 287.375C115.94 287.375 118.969 284.345 118.969 280.607C118.969 276.87 115.94 273.84 112.204 273.84C108.468 273.84 105.44 276.87 105.44 280.607C105.44 284.345 108.468 287.375 112.204 287.375Z" fill="black"/>
<path d="M133.464 287.375C137.2 287.375 140.229 284.345 140.229 280.607C140.229 276.87 137.2 273.84 133.464 273.84C129.728 273.84 126.7 276.87 126.7 280.607C126.7 284.345 129.728 287.375 133.464 287.375Z" fill="black"/>
<path d="M154.722 287.375C158.458 287.375 161.487 284.345 161.487 280.607C161.487 276.87 158.458 273.84 154.722 273.84C150.986 273.84 147.958 276.87 147.958 280.607C147.958 284.345 150.986 287.375 154.722 287.375Z" fill="black"/>
<path d="M175.5 287.375C179.236 287.375 182.264 284.345 182.264 280.607C182.264 276.87 179.236 273.84 175.5 273.84C171.764 273.84 168.735 276.87 168.735 280.607C168.735 284.345 171.764 287.375 175.5 287.375Z" fill="black"/>
<path d="M196.761 287.375C200.497 287.375 203.525 284.345 203.525 280.607C203.525 276.87 200.497 273.84 196.761 273.84C193.025 273.84 189.996 276.87 189.996 280.607C189.996 284.345 193.025 287.375 196.761 287.375Z" fill="black"/>
<path d="M218.02 287.375C221.756 287.375 224.784 284.345 224.784 280.607C224.784 276.87 221.756 273.84 218.02 273.84C214.284 273.84 211.255 276.87 211.255 280.607C211.255 284.345 214.284 287.375 218.02 287.375Z" fill="black"/>
<path d="M238.795 287.375C242.531 287.375 245.56 284.345 245.56 280.607C245.56 276.87 242.531 273.84 238.795 273.84C235.059 273.84 232.031 276.87 232.031 280.607C232.031 284.345 235.059 287.375 238.795 287.375Z" fill="black"/>
<path d="M91.4271 266.106C95.163 266.106 98.1917 263.076 98.1917 259.338C98.1917 255.601 95.163 252.571 91.4271 252.571C87.6911 252.571 84.6626 255.601 84.6626 259.338C84.6626 263.076 87.6911 266.106 91.4271 266.106Z" fill="black"/>
<path d="M112.204 266.106C115.94 266.106 118.969 263.076 118.969 259.338C118.969 255.601 115.94 252.571 112.204 252.571C108.468 252.571 105.44 255.601 105.44 259.338C105.44 263.076 108.468 266.106 112.204 266.106Z" fill="black"/>
<path d="M133.464 266.106C137.2 266.106 140.229 263.076 140.229 259.338C140.229 255.601 137.2 252.571 133.464 252.571C129.728 252.571 126.7 255.601 126.7 259.338C126.7 263.076 129.728 266.106 133.464 266.106Z" fill="black"/>
<path d="M154.722 266.106C158.458 266.106 161.487 263.076 161.487 259.338C161.487 255.601 158.458 252.571 154.722 252.571C150.986 252.571 147.958 255.601 147.958 259.338C147.958 263.076 150.986 266.106 154.722 266.106Z" fill="black"/>
<path d="M175.5 266.106C179.236 266.106 182.264 263.076 182.264 259.338C182.264 255.601 179.236 252.571 175.5 252.571C171.764 252.571 168.735 255.601 168.735 259.338C168.735 263.076 171.764 266.106 175.5 266.106Z" fill="black"/>
<path d="M196.761 266.106C200.497 266.106 203.525 263.076 203.525 259.338C203.525 255.601 200.497 252.571 196.761 252.571C193.025 252.571 189.996 255.601 189.996 259.338C189.996 263.076 193.025 266.106 196.761 266.106Z" fill="black"/>
<path d="M218.02 266.106C221.756 266.106 224.784 263.076 224.784 259.338C224.784 255.601 221.756 252.571 218.02 252.571C214.284 252.571 211.255 255.601 211.255 259.338C211.255 263.076 214.284 266.106 218.02 266.106Z" fill="black"/>
<path d="M238.795 266.106C242.531 266.106 245.56 263.076 245.56 259.338C245.56 255.601 242.531 252.571 238.795 252.571C235.059 252.571 232.031 255.601 232.031 259.338C232.031 263.076 235.059 266.106 238.795 266.106Z" fill="black"/>
<path d="M259.573 266.106C263.308 266.106 266.337 263.076 266.337 259.338C266.337 255.601 263.308 252.571 259.573 252.571C255.837 252.571 252.808 255.601 252.808 259.338C252.808 263.076 255.837 266.106 259.573 266.106Z" fill="black"/>
<path d="M280.832 266.106C284.568 266.106 287.597 263.076 287.597 259.338C287.597 255.601 284.568 252.571 280.832 252.571C277.096 252.571 274.068 255.601 274.068 259.338C274.068 263.076 277.096 266.106 280.832 266.106Z" fill="black"/>
<path d="M301.608 266.106C305.344 266.106 308.373 263.076 308.373 259.338C308.373 255.601 305.344 252.571 301.608 252.571C297.872 252.571 294.844 255.601 294.844 259.338C294.844 263.076 297.872 266.106 301.608 266.106Z" fill="black"/>
<path d="M91.4271 245.319C95.163 245.319 98.1917 242.29 98.1917 238.552C98.1917 234.815 95.163 231.785 91.4271 231.785C87.6911 231.785 84.6626 234.815 84.6626 238.552C84.6626 242.29 87.6911 245.319 91.4271 245.319Z" fill="black"/>
<path d="M112.204 245.319C115.94 245.319 118.969 242.29 118.969 238.552C118.969 234.815 115.94 231.785 112.204 231.785C108.468 231.785 105.44 234.815 105.44 238.552C105.44 242.29 108.468 245.319 112.204 245.319Z" fill="black"/>
<path d="M133.464 245.319C137.2 245.319 140.229 242.29 140.229 238.552C140.229 234.815 137.2 231.785 133.464 231.785C129.728 231.785 126.7 234.815 126.7 238.552C126.7 242.29 129.728 245.319 133.464 245.319Z" fill="black"/>
<path d="M154.722 245.319C158.458 245.319 161.487 242.29 161.487 238.552C161.487 234.815 158.458 231.785 154.722 231.785C150.986 231.785 147.958 234.815 147.958 238.552C147.958 242.29 150.986 245.319 154.722 245.319Z" fill="black"/>
<path d="M175.5 245.319C179.236 245.319 182.264 242.29 182.264 238.552C182.264 234.815 179.236 231.785 175.5 231.785C171.764 231.785 168.735 234.815 168.735 238.552C168.735 242.29 171.764 245.319 175.5 245.319Z" fill="black"/>
<path d="M196.761 245.319C200.497 245.319 203.525 242.29 203.525 238.552C203.525 234.815 200.497 231.785 196.761 231.785C193.025 231.785 189.996 234.815 189.996 238.552C189.996 242.29 193.025 245.319 196.761 245.319Z" fill="black"/>
<path d="M218.02 245.319C221.756 245.319 224.784 242.29 224.784 238.552C224.784 234.815 221.756 231.785 218.02 231.785C214.284 231.785 211.255 234.815 211.255 238.552C211.255 242.29 214.284 245.319 218.02 245.319Z" fill="black"/>
<path d="M238.795 245.319C242.531 245.319 245.56 242.29 245.56 238.552C245.56 234.815 242.531 231.785 238.795 231.785C235.059 231.785 232.031 234.815 232.031 238.552C232.031 242.29 235.059 245.319 238.795 245.319Z" fill="black"/>
<path d="M259.573 245.319C263.308 245.319 266.337 242.29 266.337 238.552C266.337 234.815 263.308 231.785 259.573 231.785C255.837 231.785 252.808 234.815 252.808 238.552C252.808 242.29 255.837 245.319 259.573 245.319Z" fill="black"/>
<path d="M280.832 245.319C284.568 245.319 287.597 242.29 287.597 238.552C287.597 234.815 284.568 231.785 280.832 231.785C277.096 231.785 274.068 234.815 274.068 238.552C274.068 242.29 277.096 245.319 280.832 245.319Z" fill="black"/>
<path d="M301.608 245.319C305.344 245.319 308.373 242.29 308.373 238.552C308.373 234.815 305.344 231.785 301.608 231.785C297.872 231.785 294.844 234.815 294.844 238.552C294.844 242.29 297.872 245.319 301.608 245.319Z" fill="black"/>
<path d="M49.3904 224.05C53.1264 224.05 56.1549 221.02 56.1549 217.283C56.1549 213.545 53.1264 210.515 49.3904 210.515C45.6545 210.515 42.626 213.545 42.626 217.283C42.626 221.02 45.6545 224.05 49.3904 224.05Z" fill="black"/>
<path d="M70.6502 224.05C74.3861 224.05 77.4147 221.02 77.4147 217.283C77.4147 213.545 74.3861 210.515 70.6502 210.515C66.9143 210.515 63.8857 213.545 63.8857 217.283C63.8857 221.02 66.9143 224.05 70.6502 224.05Z" fill="black"/>
<path d="M91.4271 224.05C95.163 224.05 98.1917 221.02 98.1917 217.283C98.1917 213.545 95.163 210.515 91.4271 210.515C87.6911 210.515 84.6626 213.545 84.6626 217.283C84.6626 221.02 87.6911 224.05 91.4271 224.05Z" fill="black"/>
<path d="M112.204 224.05C115.94 224.05 118.969 221.02 118.969 217.283C118.969 213.545 115.94 210.515 112.204 210.515C108.468 210.515 105.44 213.545 105.44 217.283C105.44 221.02 108.468 224.05 112.204 224.05Z" fill="black"/>
<path d="M133.464 224.05C137.2 224.05 140.229 221.02 140.229 217.283C140.229 213.545 137.2 210.515 133.464 210.515C129.728 210.515 126.7 213.545 126.7 217.283C126.7 221.02 129.728 224.05 133.464 224.05Z" fill="black"/>
<path d="M154.722 224.05C158.458 224.05 161.487 221.02 161.487 217.283C161.487 213.545 158.458 210.515 154.722 210.515C150.986 210.515 147.958 213.545 147.958 217.283C147.958 221.02 150.986 224.05 154.722 224.05Z" fill="black"/>
<path d="M175.5 224.05C179.236 224.05 182.264 221.02 182.264 217.283C182.264 213.545 179.236 210.515 175.5 210.515C171.764 210.515 168.735 213.545 168.735 217.283C168.735 221.02 171.764 224.05 175.5 224.05Z" fill="black"/>
<path d="M196.761 224.05C200.497 224.05 203.525 221.02 203.525 217.283C203.525 213.545 200.497 210.515 196.761 210.515C193.025 210.515 189.996 213.545 189.996 217.283C189.996 221.02 193.025 224.05 196.761 224.05Z" fill="black"/>
<path d="M218.02 224.05C221.756 224.05 224.784 221.02 224.784 217.283C224.784 213.545 221.756 210.515 218.02 210.515C214.284 210.515 211.255 213.545 211.255 217.283C211.255 221.02 214.284 224.05 218.02 224.05Z" fill="black"/>
<path d="M238.795 224.05C242.531 224.05 245.56 221.02 245.56 217.283C245.56 213.545 242.531 210.515 238.795 210.515C235.059 210.515 232.031 213.545 232.031 217.283C232.031 221.02 235.059 224.05 238.795 224.05Z" fill="black"/>
<path d="M259.573 224.05C263.308 224.05 266.337 221.02 266.337 217.283C266.337 213.545 263.308 210.515 259.573 210.515C255.837 210.515 252.808 213.545 252.808 217.283C252.808 221.02 255.837 224.05 259.573 224.05Z" fill="black"/>
<path d="M280.832 224.05C284.568 224.05 287.597 221.02 287.597 217.283C287.597 213.545 284.568 210.515 280.832 210.515C277.096 210.515 274.068 213.545 274.068 217.283C274.068 221.02 277.096 224.05 280.832 224.05Z" fill="black"/>
<path d="M301.608 224.05C305.344 224.05 308.373 221.02 308.373 217.283C308.373 213.545 305.344 210.515 301.608 210.515C297.872 210.515 294.844 213.545 294.844 217.283C294.844 221.02 297.872 224.05 301.608 224.05Z" fill="black"/>
<path d="M49.3904 203.265C53.1264 203.265 56.1549 200.235 56.1549 196.497C56.1549 192.76 53.1264 189.73 49.3904 189.73C45.6545 189.73 42.626 192.76 42.626 196.497C42.626 200.235 45.6545 203.265 49.3904 203.265Z" fill="black"/>
<path d="M70.6502 203.265C74.3861 203.265 77.4147 200.235 77.4147 196.497C77.4147 192.76 74.3861 189.73 70.6502 189.73C66.9143 189.73 63.8857 192.76 63.8857 196.497C63.8857 200.235 66.9143 203.265 70.6502 203.265Z" fill="black"/>
<path d="M91.4271 203.265C95.163 203.265 98.1917 200.235 98.1917 196.497C98.1917 192.76 95.163 189.73 91.4271 189.73C87.6911 189.73 84.6626 192.76 84.6626 196.497C84.6626 200.235 87.6911 203.265 91.4271 203.265Z" fill="black"/>
<path d="M112.204 203.265C115.94 203.265 118.969 200.235 118.969 196.497C118.969 192.76 115.94 189.73 112.204 189.73C108.468 189.73 105.44 192.76 105.44 196.497C105.44 200.235 108.468 203.265 112.204 203.265Z" fill="black"/>
<path d="M133.464 203.265C137.2 203.265 140.229 200.235 140.229 196.497C140.229 192.76 137.2 189.73 133.464 189.73C129.728 189.73 126.7 192.76 126.7 196.497C126.7 200.235 129.728 203.265 133.464 203.265Z" fill="black"/>
<path d="M154.722 203.265C158.458 203.265 161.487 200.235 161.487 196.497C161.487 192.76 158.458 189.73 154.722 189.73C150.986 189.73 147.958 192.76 147.958 196.497C147.958 200.235 150.986 203.265 154.722 203.265Z" fill="black"/>
<path d="M175.5 203.265C179.236 203.265 182.264 200.235 182.264 196.497C182.264 192.76 179.236 189.73 175.5 189.73C171.764 189.73 168.735 192.76 168.735 196.497C168.735 200.235 171.764 203.265 175.5 203.265Z" fill="black"/>
<path d="M196.761 203.265C200.497 203.265 203.525 200.235 203.525 196.497C203.525 192.76 200.497 189.73 196.761 189.73C193.025 189.73 189.996 192.76 189.996 196.497C189.996 200.235 193.025 203.265 196.761 203.265Z" fill="black"/>
<path d="M218.02 203.265C221.756 203.265 224.784 200.235 224.784 196.497C224.784 192.76 221.756 189.73 218.02 189.73C214.284 189.73 211.255 192.76 211.255 196.497C211.255 200.235 214.284 203.265 218.02 203.265Z" fill="black"/>
<path d="M238.795 203.265C242.531 203.265 245.56 200.235 245.56 196.497C245.56 192.76 242.531 189.73 238.795 189.73C235.059 189.73 232.031 192.76 232.031 196.497C232.031 200.235 235.059 203.265 238.795 203.265Z" fill="black"/>
<path d="M259.573 203.265C263.308 203.265 266.337 200.235 266.337 196.497C266.337 192.76 263.308 189.73 259.573 189.73C255.837 189.73 252.808 192.76 252.808 196.497C252.808 200.235 255.837 203.265 259.573 203.265Z" fill="black"/>
<path d="M280.832 203.265C284.568 203.265 287.597 200.235 287.597 196.497C287.597 192.76 284.568 189.73 280.832 189.73C277.096 189.73 274.068 192.76 274.068 196.497C274.068 200.235 277.096 203.265 280.832 203.265Z" fill="black"/>
<path d="M301.608 203.265C305.344 203.265 308.373 200.235 308.373 196.497C308.373 192.76 305.344 189.73 301.608 189.73C297.872 189.73 294.844 192.76 294.844 196.497C294.844 200.235 297.872 203.265 301.608 203.265Z" fill="black"/>
<path d="M28.1303 181.996C31.8662 181.996 34.8948 178.967 34.8948 175.229C34.8948 171.491 31.8662 168.462 28.1303 168.462C24.3943 168.462 21.3657 171.491 21.3657 175.229C21.3657 178.967 24.3943 181.996 28.1303 181.996Z" fill="black"/>
<path d="M49.3904 181.996C53.1264 181.996 56.1549 178.967 56.1549 175.229C56.1549 171.491 53.1264 168.462 49.3904 168.462C45.6545 168.462 42.626 171.491 42.626 175.229C42.626 178.967 45.6545 181.996 49.3904 181.996Z" fill="black"/>
<path d="M70.6502 181.996C74.3861 181.996 77.4147 178.967 77.4147 175.229C77.4147 171.491 74.3861 168.462 70.6502 168.462C66.9143 168.462 63.8857 171.491 63.8857 175.229C63.8857 178.967 66.9143 181.996 70.6502 181.996Z" fill="black"/>
<path d="M91.4271 181.996C95.163 181.996 98.1917 178.967 98.1917 175.229C98.1917 171.491 95.163 168.462 91.4271 168.462C87.6911 168.462 84.6626 171.491 84.6626 175.229C84.6626 178.967 87.6911 181.996 91.4271 181.996Z" fill="black"/>
<path d="M112.204 181.996C115.94 181.996 118.969 178.967 118.969 175.229C118.969 171.491 115.94 168.462 112.204 168.462C108.468 168.462 105.44 171.491 105.44 175.229C105.44 178.967 108.468 181.996 112.204 181.996Z" fill="black"/>
<path d="M133.464 181.996C137.2 181.996 140.229 178.967 140.229 175.229C140.229 171.491 137.2 168.462 133.464 168.462C129.728 168.462 126.7 171.491 126.7 175.229C126.7 178.967 129.728 181.996 133.464 181.996Z" fill="black"/>
<path d="M154.722 181.996C158.458 181.996 161.487 178.967 161.487 175.229C161.487 171.491 158.458 168.462 154.722 168.462C150.986 168.462 147.958 171.491 147.958 175.229C147.958 178.967 150.986 181.996 154.722 181.996Z" fill="black"/>
<path d="M175.5 181.996C179.236 181.996 182.264 178.967 182.264 175.229C182.264 171.491 179.236 168.462 175.5 168.462C171.764 168.462 168.735 171.491 168.735 175.229C168.735 178.967 171.764 181.996 175.5 181.996Z" fill="black"/>
<path d="M196.761 181.996C200.497 181.996 203.525 178.967 203.525 175.229C203.525 171.491 200.497 168.462 196.761 168.462C193.025 168.462 189.996 171.491 189.996 175.229C189.996 178.967 193.025 181.996 196.761 181.996Z" fill="black"/>
<path d="M218.02 181.996C221.756 181.996 224.784 178.967 224.784 175.229C224.784 171.491 221.756 168.462 218.02 168.462C214.284 168.462 211.255 171.491 211.255 175.229C211.255 178.967 214.284 181.996 218.02 181.996Z" fill="black"/>
<path d="M238.795 181.996C242.531 181.996 245.56 178.967 245.56 175.229C245.56 171.491 242.531 168.462 238.795 168.462C235.059 168.462 232.031 171.491 232.031 175.229C232.031 178.967 235.059 181.996 238.795 181.996Z" fill="black"/>
<path d="M259.573 181.996C263.308 181.996 266.337 178.967 266.337 175.229C266.337 171.491 263.308 168.462 259.573 168.462C255.837 168.462 252.808 171.491 252.808 175.229C252.808 178.967 255.837 181.996 259.573 181.996Z" fill="black"/>
<path d="M280.832 181.996C284.568 181.996 287.597 178.967 287.597 175.229C287.597 171.491 284.568 168.462 280.832 168.462C277.096 168.462 274.068 171.491 274.068 175.229C274.068 178.967 277.096 181.996 280.832 181.996Z" fill="black"/>
<path d="M301.608 181.996C305.344 181.996 308.373 178.967 308.373 175.229C308.373 171.491 305.344 168.462 301.608 168.462C297.872 168.462 294.844 171.491 294.844 175.229C294.844 178.967 297.872 181.996 301.608 181.996Z" fill="black"/>
<path d="M322.869 181.996C326.605 181.996 329.633 178.967 329.633 175.229C329.633 171.491 326.605 168.462 322.869 168.462C319.133 168.462 316.104 171.491 316.104 175.229C316.104 178.967 319.133 181.996 322.869 181.996Z" fill="black"/>
<path d="M28.6136 161.211C32.3496 161.211 35.3782 158.181 35.3782 154.444C35.3782 150.706 32.3496 147.676 28.6136 147.676C24.8777 147.676 21.8491 150.706 21.8491 154.444C21.8491 158.181 24.8777 161.211 28.6136 161.211Z" fill="black"/>
<path d="M49.3904 161.211C53.1264 161.211 56.1549 158.181 56.1549 154.444C56.1549 150.706 53.1264 147.676 49.3904 147.676C45.6545 147.676 42.626 150.706 42.626 154.444C42.626 158.181 45.6545 161.211 49.3904 161.211Z" fill="black"/>
<path d="M70.6502 161.211C74.3861 161.211 77.4147 158.181 77.4147 154.444C77.4147 150.706 74.3861 147.676 70.6502 147.676C66.9143 147.676 63.8857 150.706 63.8857 154.444C63.8857 158.181 66.9143 161.211 70.6502 161.211Z" fill="black"/>
<path d="M91.4271 161.211C95.163 161.211 98.1917 158.181 98.1917 154.444C98.1917 150.706 95.163 147.676 91.4271 147.676C87.6911 147.676 84.6626 150.706 84.6626 154.444C84.6626 158.181 87.6911 161.211 91.4271 161.211Z" fill="black"/>
<path d="M112.686 161.211C116.422 161.211 119.451 158.181 119.451 154.444C119.451 150.706 116.422 147.676 112.686 147.676C108.95 147.676 105.922 150.706 105.922 154.444C105.922 158.181 108.95 161.211 112.686 161.211Z" fill="black"/>
<path d="M133.464 161.211C137.2 161.211 140.229 158.181 140.229 154.444C140.229 150.706 137.2 147.676 133.464 147.676C129.728 147.676 126.7 150.706 126.7 154.444C126.7 158.181 129.728 161.211 133.464 161.211Z" fill="black"/>
<path d="M154.722 161.211C158.458 161.211 161.487 158.181 161.487 154.444C161.487 150.706 158.458 147.676 154.722 147.676C150.986 147.676 147.958 150.706 147.958 154.444C147.958 158.181 150.986 161.211 154.722 161.211Z" fill="black"/>
<path d="M175.5 161.211C179.236 161.211 182.264 158.181 182.264 154.444C182.264 150.706 179.236 147.676 175.5 147.676C171.764 147.676 168.735 150.706 168.735 154.444C168.735 158.181 171.764 161.211 175.5 161.211Z" fill="black"/>
<path d="M196.761 161.211C200.497 161.211 203.525 158.181 203.525 154.444C203.525 150.706 200.497 147.676 196.761 147.676C193.025 147.676 189.996 150.706 189.996 154.444C189.996 158.181 193.025 161.211 196.761 161.211Z" fill="black"/>
<path d="M218.02 161.211C221.756 161.211 224.784 158.181 224.784 154.444C224.784 150.706 221.756 147.676 218.02 147.676C214.284 147.676 211.255 150.706 211.255 154.444C211.255 158.181 214.284 161.211 218.02 161.211Z" fill="black"/>
<path d="M238.795 161.211C242.531 161.211 245.56 158.181 245.56 154.444C245.56 150.706 242.531 147.676 238.795 147.676C235.059 147.676 232.031 150.706 232.031 154.444C232.031 158.181 235.059 161.211 238.795 161.211Z" fill="black"/>
<path d="M259.573 161.211C263.308 161.211 266.337 158.181 266.337 154.444C266.337 150.706 263.308 147.676 259.573 147.676C255.837 147.676 252.808 150.706 252.808 154.444C252.808 158.181 255.837 161.211 259.573 161.211Z" fill="black"/>
<path d="M280.832 161.211C284.568 161.211 287.597 158.181 287.597 154.444C287.597 150.706 284.568 147.676 280.832 147.676C277.096 147.676 274.068 150.706 274.068 154.444C274.068 158.181 277.096 161.211 280.832 161.211Z" fill="black"/>
<path d="M302.093 161.211C305.829 161.211 308.857 158.181 308.857 154.444C308.857 150.706 305.829 147.676 302.093 147.676C298.357 147.676 295.328 150.706 295.328 154.444C295.328 158.181 298.357 161.211 302.093 161.211Z" fill="black"/>
<path d="M322.869 161.211C326.605 161.211 329.633 158.181 329.633 154.444C329.633 150.706 326.605 147.676 322.869 147.676C319.133 147.676 316.104 150.706 316.104 154.444C316.104 158.181 319.133 161.211 322.869 161.211Z" fill="black"/>
<path d="M343.646 161.211C347.382 161.211 350.41 158.181 350.41 154.444C350.41 150.706 347.382 147.676 343.646 147.676C339.91 147.676 336.881 150.706 336.881 154.444C336.881 158.181 339.91 161.211 343.646 161.211Z" fill="black"/>
<path d="M7.35389 140.425C11.0898 140.425 14.1183 137.395 14.1183 133.658C14.1183 129.92 11.0898 126.89 7.35389 126.89C3.61796 126.89 0.589355 129.92 0.589355 133.658C0.589355 137.395 3.61796 140.425 7.35389 140.425Z" fill="black"/>
<path d="M28.6136 140.425C32.3496 140.425 35.3782 137.395 35.3782 133.658C35.3782 129.92 32.3496 126.89 28.6136 126.89C24.8777 126.89 21.8491 129.92 21.8491 133.658C21.8491 137.395 24.8777 140.425 28.6136 140.425Z" fill="black"/>
<path d="M49.3904 140.425C53.1264 140.425 56.1549 137.395 56.1549 133.658C56.1549 129.92 53.1264 126.89 49.3904 126.89C45.6545 126.89 42.626 129.92 42.626 133.658C42.626 137.395 45.6545 140.425 49.3904 140.425Z" fill="black"/>
<path d="M70.6502 140.425C74.3861 140.425 77.4147 137.395 77.4147 133.658C77.4147 129.92 74.3861 126.89 70.6502 126.89C66.9143 126.89 63.8857 129.92 63.8857 133.658C63.8857 137.395 66.9143 140.425 70.6502 140.425Z" fill="black"/>
<path d="M91.4271 140.425C95.163 140.425 98.1917 137.395 98.1917 133.658C98.1917 129.92 95.163 126.89 91.4271 126.89C87.6911 126.89 84.6626 129.92 84.6626 133.658C84.6626 137.395 87.6911 140.425 91.4271 140.425Z" fill="black"/>
<path d="M112.686 140.425C116.422 140.425 119.451 137.395 119.451 133.658C119.451 129.92 116.422 126.89 112.686 126.89C108.95 126.89 105.922 129.92 105.922 133.658C105.922 137.395 108.95 140.425 112.686 140.425Z" fill="black"/>
<path d="M133.464 140.425C137.2 140.425 140.229 137.395 140.229 133.658C140.229 129.92 137.2 126.89 133.464 126.89C129.728 126.89 126.7 129.92 126.7 133.658C126.7 137.395 129.728 140.425 133.464 140.425Z" fill="black"/>
<path d="M154.722 140.425C158.458 140.425 161.487 137.395 161.487 133.658C161.487 129.92 158.458 126.89 154.722 126.89C150.986 126.89 147.958 129.92 147.958 133.658C147.958 137.395 150.986 140.425 154.722 140.425Z" fill="black"/>
<path d="M175.5 140.425C179.236 140.425 182.264 137.395 182.264 133.658C182.264 129.92 179.236 126.89 175.5 126.89C171.764 126.89 168.735 129.92 168.735 133.658C168.735 137.395 171.764 140.425 175.5 140.425Z" fill="black"/>
<path d="M196.761 140.425C200.497 140.425 203.525 137.395 203.525 133.658C203.525 129.92 200.497 126.89 196.761 126.89C193.025 126.89 189.996 129.92 189.996 133.658C189.996 137.395 193.025 140.425 196.761 140.425Z" fill="black"/>
<path d="M218.02 140.425C221.756 140.425 224.784 137.395 224.784 133.658C224.784 129.92 221.756 126.89 218.02 126.89C214.284 126.89 211.255 129.92 211.255 133.658C211.255 137.395 214.284 140.425 218.02 140.425Z" fill="black"/>
<path d="M238.795 140.425C242.531 140.425 245.56 137.395 245.56 133.658C245.56 129.92 242.531 126.89 238.795 126.89C235.059 126.89 232.031 129.92 232.031 133.658C232.031 137.395 235.059 140.425 238.795 140.425Z" fill="black"/>
<path d="M259.573 140.425C263.308 140.425 266.337 137.395 266.337 133.658C266.337 129.92 263.308 126.89 259.573 126.89C255.837 126.89 252.808 129.92 252.808 133.658C252.808 137.395 255.837 140.425 259.573 140.425Z" fill="black"/>
<path d="M280.832 140.425C284.568 140.425 287.597 137.395 287.597 133.658C287.597 129.92 284.568 126.89 280.832 126.89C277.096 126.89 274.068 129.92 274.068 133.658C274.068 137.395 277.096 140.425 280.832 140.425Z" fill="black"/>
<path d="M302.093 140.425C305.829 140.425 308.857 137.395 308.857 133.658C308.857 129.92 305.829 126.89 302.093 126.89C298.357 126.89 295.328 129.92 295.328 133.658C295.328 137.395 298.357 140.425 302.093 140.425Z" fill="black"/>
<path d="M7.35389 119.156C11.0898 119.156 14.1183 116.127 14.1183 112.389C14.1183 108.651 11.0898 105.622 7.35389 105.622C3.61796 105.622 0.589355 108.651 0.589355 112.389C0.589355 116.127 3.61796 119.156 7.35389 119.156Z" fill="black"/>
<path d="M28.6136 119.156C32.3496 119.156 35.3782 116.127 35.3782 112.389C35.3782 108.651 32.3496 105.622 28.6136 105.622C24.8777 105.622 21.8491 108.651 21.8491 112.389C21.8491 116.127 24.8777 119.156 28.6136 119.156Z" fill="black"/>
<path d="M49.3904 119.156C53.1264 119.156 56.1549 116.127 56.1549 112.389C56.1549 108.651 53.1264 105.622 49.3904 105.622C45.6545 105.622 42.626 108.651 42.626 112.389C42.626 116.127 45.6545 119.156 49.3904 119.156Z" fill="black"/>
<path d="M70.6502 119.156C74.3861 119.156 77.4147 116.127 77.4147 112.389C77.4147 108.651 74.3861 105.622 70.6502 105.622C66.9143 105.622 63.8857 108.651 63.8857 112.389C63.8857 116.127 66.9143 119.156 70.6502 119.156Z" fill="black"/>
<path d="M91.4271 119.156C95.163 119.156 98.1917 116.127 98.1917 112.389C98.1917 108.651 95.163 105.622 91.4271 105.622C87.6911 105.622 84.6626 108.651 84.6626 112.389C84.6626 116.127 87.6911 119.156 91.4271 119.156Z" fill="black"/>
<path d="M112.686 119.156C116.422 119.156 119.451 116.127 119.451 112.389C119.451 108.651 116.422 105.622 112.686 105.622C108.95 105.622 105.922 108.651 105.922 112.389C105.922 116.127 108.95 119.156 112.686 119.156Z" fill="black"/>
<path d="M133.464 119.156C137.2 119.156 140.229 116.127 140.229 112.389C140.229 108.651 137.2 105.622 133.464 105.622C129.728 105.622 126.7 108.651 126.7 112.389C126.7 116.127 129.728 119.156 133.464 119.156Z" fill="black"/>
<path d="M154.722 119.156C158.458 119.156 161.487 116.127 161.487 112.389C161.487 108.651 158.458 105.622 154.722 105.622C150.986 105.622 147.958 108.651 147.958 112.389C147.958 116.127 150.986 119.156 154.722 119.156Z" fill="black"/>
<path d="M175.5 119.156C179.236 119.156 182.264 116.127 182.264 112.389C182.264 108.651 179.236 105.622 175.5 105.622C171.764 105.622 168.735 108.651 168.735 112.389C168.735 116.127 171.764 119.156 175.5 119.156Z" fill="black"/>
<path d="M196.761 119.156C200.497 119.156 203.525 116.127 203.525 112.389C203.525 108.651 200.497 105.622 196.761 105.622C193.025 105.622 189.996 108.651 189.996 112.389C189.996 116.127 193.025 119.156 196.761 119.156Z" fill="black"/>
<path d="M218.02 119.156C221.756 119.156 224.784 116.127 224.784 112.389C224.784 108.651 221.756 105.622 218.02 105.622C214.284 105.622 211.255 108.651 211.255 112.389C211.255 116.127 214.284 119.156 218.02 119.156Z" fill="black"/>
<path d="M238.795 119.156C242.531 119.156 245.56 116.127 245.56 112.389C245.56 108.651 242.531 105.622 238.795 105.622C235.059 105.622 232.031 108.651 232.031 112.389C232.031 116.127 235.059 119.156 238.795 119.156Z" fill="black"/>
<path d="M259.573 119.156C263.308 119.156 266.337 116.127 266.337 112.389C266.337 108.651 263.308 105.622 259.573 105.622C255.837 105.622 252.808 108.651 252.808 112.389C252.808 116.127 255.837 119.156 259.573 119.156Z" fill="black"/>
<path d="M28.6136 97.8869C32.3496 97.8869 35.3782 94.857 35.3782 91.1195C35.3782 87.3819 32.3496 84.3521 28.6136 84.3521C24.8777 84.3521 21.8491 87.3819 21.8491 91.1195C21.8491 94.857 24.8777 97.8869 28.6136 97.8869Z" fill="black"/>
<path d="M49.3904 97.8869C53.1264 97.8869 56.1549 94.857 56.1549 91.1195C56.1549 87.3819 53.1264 84.3521 49.3904 84.3521C45.6545 84.3521 42.626 87.3819 42.626 91.1195C42.626 94.857 45.6545 97.8869 49.3904 97.8869Z" fill="black"/>
<path d="M70.6502 97.8869C74.3861 97.8869 77.4147 94.857 77.4147 91.1195C77.4147 87.3819 74.3861 84.3521 70.6502 84.3521C66.9143 84.3521 63.8857 87.3819 63.8857 91.1195C63.8857 94.857 66.9143 97.8869 70.6502 97.8869Z" fill="black"/>
<path d="M91.4271 97.8869C95.163 97.8869 98.1917 94.857 98.1917 91.1195C98.1917 87.3819 95.163 84.3521 91.4271 84.3521C87.6911 84.3521 84.6626 87.3819 84.6626 91.1195C84.6626 94.857 87.6911 97.8869 91.4271 97.8869Z" fill="black"/>
<path d="M112.686 97.8869C116.422 97.8869 119.451 94.857 119.451 91.1195C119.451 87.3819 116.422 84.3521 112.686 84.3521C108.95 84.3521 105.922 87.3819 105.922 91.1195C105.922 94.857 108.95 97.8869 112.686 97.8869Z" fill="black"/>
<path d="M133.464 97.8869C137.2 97.8869 140.229 94.857 140.229 91.1195C140.229 87.3819 137.2 84.3521 133.464 84.3521C129.728 84.3521 126.7 87.3819 126.7 91.1195C126.7 94.857 129.728 97.8869 133.464 97.8869Z" fill="black"/>
<path d="M154.722 97.8869C158.458 97.8869 161.487 94.857 161.487 91.1195C161.487 87.3819 158.458 84.3521 154.722 84.3521C150.986 84.3521 147.958 87.3819 147.958 91.1195C147.958 94.857 150.986 97.8869 154.722 97.8869Z" fill="black"/>
<path d="M175.5 97.8869C179.236 97.8869 182.264 94.857 182.264 91.1195C182.264 87.3819 179.236 84.3521 175.5 84.3521C171.764 84.3521 168.735 87.3819 168.735 91.1195C168.735 94.857 171.764 97.8869 175.5 97.8869Z" fill="black"/>
<path d="M196.761 97.8869C200.497 97.8869 203.525 94.857 203.525 91.1195C203.525 87.3819 200.497 84.3521 196.761 84.3521C193.025 84.3521 189.996 87.3819 189.996 91.1195C189.996 94.857 193.025 97.8869 196.761 97.8869Z" fill="black"/>
<path d="M218.02 97.8869C221.756 97.8869 224.784 94.857 224.784 91.1195C224.784 87.3819 221.756 84.3521 218.02 84.3521C214.284 84.3521 211.255 87.3819 211.255 91.1195C211.255 94.857 214.284 97.8869 218.02 97.8869Z" fill="black"/>
<path d="M49.8735 77.1019C53.6094 77.1019 56.6379 74.072 56.6379 70.3345C56.6379 66.5969 53.6094 63.5669 49.8735 63.5669C46.1375 63.5669 43.1089 66.5969 43.1089 70.3345C43.1089 74.072 46.1375 77.1019 49.8735 77.1019Z" fill="black"/>
<path d="M70.6502 77.1019C74.3861 77.1019 77.4147 74.072 77.4147 70.3345C77.4147 66.5969 74.3861 63.5669 70.6502 63.5669C66.9143 63.5669 63.8857 66.5969 63.8857 70.3345C63.8857 74.072 66.9143 77.1019 70.6502 77.1019Z" fill="black"/>
<path d="M91.4271 77.1019C95.163 77.1019 98.1917 74.072 98.1917 70.3345C98.1917 66.5969 95.163 63.5669 91.4271 63.5669C87.6911 63.5669 84.6626 66.5969 84.6626 70.3345C84.6626 74.072 87.6911 77.1019 91.4271 77.1019Z" fill="black"/>
<path d="M112.686 77.1019C116.422 77.1019 119.451 74.072 119.451 70.3345C119.451 66.5969 116.422 63.5669 112.686 63.5669C108.95 63.5669 105.922 66.5969 105.922 70.3345C105.922 74.072 108.95 77.1019 112.686 77.1019Z" fill="black"/>
<path d="M133.464 77.1019C137.2 77.1019 140.229 74.072 140.229 70.3345C140.229 66.5969 137.2 63.5669 133.464 63.5669C129.728 63.5669 126.7 66.5969 126.7 70.3345C126.7 74.072 129.728 77.1019 133.464 77.1019Z" fill="black"/>
<path d="M154.722 77.1019C158.458 77.1019 161.487 74.072 161.487 70.3345C161.487 66.5969 158.458 63.5669 154.722 63.5669C150.986 63.5669 147.958 66.5969 147.958 70.3345C147.958 74.072 150.986 77.1019 154.722 77.1019Z" fill="black"/>
<path d="M175.5 77.1019C179.236 77.1019 182.264 74.072 182.264 70.3345C182.264 66.5969 179.236 63.5669 175.5 63.5669C171.764 63.5669 168.735 66.5969 168.735 70.3345C168.735 74.072 171.764 77.1019 175.5 77.1019Z" fill="black"/>
<path d="M196.761 77.1019C200.497 77.1019 203.525 74.072 203.525 70.3345C203.525 66.5969 200.497 63.5669 196.761 63.5669C193.025 63.5669 189.996 66.5969 189.996 70.3345C189.996 74.072 193.025 77.1019 196.761 77.1019Z" fill="black"/>
<path d="M218.02 77.1019C221.756 77.1019 224.784 74.072 224.784 70.3345C224.784 66.5969 221.756 63.5669 218.02 63.5669C214.284 63.5669 211.255 66.5969 211.255 70.3345C211.255 74.072 214.284 77.1019 218.02 77.1019Z" fill="black"/>
<path d="M7.35389 55.8328C11.0898 55.8328 14.1183 52.8028 14.1183 49.0653C14.1183 45.3278 11.0898 42.298 7.35389 42.298C3.61796 42.298 0.589355 45.3278 0.589355 49.0653C0.589355 52.8028 3.61796 55.8328 7.35389 55.8328Z" fill="black"/>
<path d="M28.6136 55.8328C32.3496 55.8328 35.3782 52.8028 35.3782 49.0653C35.3782 45.3278 32.3496 42.298 28.6136 42.298C24.8777 42.298 21.8491 45.3278 21.8491 49.0653C21.8491 52.8028 24.8777 55.8328 28.6136 55.8328Z" fill="black"/>
<path d="M49.8735 55.8328C53.6094 55.8328 56.6379 52.8028 56.6379 49.0653C56.6379 45.3278 53.6094 42.298 49.8735 42.298C46.1375 42.298 43.1089 45.3278 43.1089 49.0653C43.1089 52.8028 46.1375 55.8328 49.8735 55.8328Z" fill="black"/>
<path d="M70.6502 55.8328C74.3861 55.8328 77.4147 52.8028 77.4147 49.0653C77.4147 45.3278 74.3861 42.298 70.6502 42.298C66.9143 42.298 63.8857 45.3278 63.8857 49.0653C63.8857 52.8028 66.9143 55.8328 70.6502 55.8328Z" fill="black"/>
<path d="M91.4271 55.8328C95.163 55.8328 98.1917 52.8028 98.1917 49.0653C98.1917 45.3278 95.163 42.298 91.4271 42.298C87.6911 42.298 84.6626 45.3278 84.6626 49.0653C84.6626 52.8028 87.6911 55.8328 91.4271 55.8328Z" fill="black"/>
<path d="M112.686 55.8328C116.422 55.8328 119.451 52.8028 119.451 49.0653C119.451 45.3278 116.422 42.298 112.686 42.298C108.95 42.298 105.922 45.3278 105.922 49.0653C105.922 52.8028 108.95 55.8328 112.686 55.8328Z" fill="black"/>
<path d="M133.464 55.8328C137.2 55.8328 140.229 52.8028 140.229 49.0653C140.229 45.3278 137.2 42.298 133.464 42.298C129.728 42.298 126.7 45.3278 126.7 49.0653C126.7 52.8028 129.728 55.8328 133.464 55.8328Z" fill="black"/>
<path d="M154.722 55.8328C158.458 55.8328 161.487 52.8028 161.487 49.0653C161.487 45.3278 158.458 42.298 154.722 42.298C150.986 42.298 147.958 45.3278 147.958 49.0653C147.958 52.8028 150.986 55.8328 154.722 55.8328Z" fill="black"/>
<path d="M49.8735 35.0465C53.6094 35.0465 56.6379 32.0167 56.6379 28.2792C56.6379 24.5418 53.6094 21.512 49.8735 21.512C46.1375 21.512 43.1089 24.5418 43.1089 28.2792C43.1089 32.0167 46.1375 35.0465 49.8735 35.0465Z" fill="black"/>
<path d="M70.6502 35.0465C74.3861 35.0465 77.4147 32.0167 77.4147 28.2792C77.4147 24.5418 74.3861 21.512 70.6502 21.512C66.9143 21.512 63.8857 24.5418 63.8857 28.2792C63.8857 32.0167 66.9143 35.0465 70.6502 35.0465Z" fill="black"/>
<path d="M91.4271 35.0465C95.163 35.0465 98.1917 32.0167 98.1917 28.2792C98.1917 24.5418 95.163 21.512 91.4271 21.512C87.6911 21.512 84.6626 24.5418 84.6626 28.2792C84.6626 32.0167 87.6911 35.0465 91.4271 35.0465Z" fill="black"/>
<path d="M112.686 35.0465C116.422 35.0465 119.451 32.0167 119.451 28.2792C119.451 24.5418 116.422 21.512 112.686 21.512C108.95 21.512 105.922 24.5418 105.922 28.2792C105.922 32.0167 108.95 35.0465 112.686 35.0465Z" fill="black"/>
<path d="M133.464 35.0465C137.2 35.0465 140.229 32.0167 140.229 28.2792C140.229 24.5418 137.2 21.512 133.464 21.512C129.728 21.512 126.7 24.5418 126.7 28.2792C126.7 32.0167 129.728 35.0465 133.464 35.0465Z" fill="black"/>
<path d="M70.6502 13.7778C74.3861 13.7778 77.4147 10.7479 77.4147 7.01039C77.4147 3.27284 74.3861 0.242981 70.6502 0.242981C66.9143 0.242981 63.8857 3.27284 63.8857 7.01039C63.8857 10.7479 66.9143 13.7778 70.6502 13.7778Z" fill="black"/>
<path d="M154.722 13.7778C158.458 13.7778 161.487 10.7479 161.487 7.01039C161.487 3.27284 158.458 0.242981 154.722 0.242981C150.986 0.242981 147.958 3.27284 147.958 7.01039C147.958 10.7479 150.986 13.7778 154.722 13.7778Z" fill="black"/>
</svg>
